<svg xmlns="http://www.w3.org/2000/svg" xmlns:xlink="http://www.w3.org/1999/xlink" xmlns:lucid="lucid" width="1692" height="1142.48"><g transform="translate(-24 0)" lucid:page-tab-id="0_0"><path d="M0 0h1760v1360H0z" fill="#fff"/><path d="M399.9 32c0-6.63 5.4-12 12-12h936.2c6.6 0 12 5.37 12 12v39.08c0 6.62-5.4 12-12 12H411.9c-6.6 0-12-5.38-12-12z" stroke="#000" stroke-opacity="0" stroke-width="2" fill="#fff" fill-opacity="0"/><use xlink:href="#a" transform="matrix(1,0,0,1,404.9128901765501,25) translate(325.4259259259259 31.458333333333336)"/><use xlink:href="#b" transform="matrix(1,0,0,1,404.9128901765501,25) translate(449.72222222222223 31.458333333333336)"/><use xlink:href="#c" transform="matrix(1,0,0,1,404.9128901765501,25) translate(483.72222222222223 31.458333333333336)"/><use xlink:href="#d" transform="matrix(1,0,0,1,404.9128901765501,25) translate(548.7592592592592 31.458333333333336)"/><path d="M653 92c0-6.63 5.37-12 12-12h430c6.63 0 12 5.37 12 12v9.93c0 6.62-5.37 12-12 12H665c-6.63 0-12-5.38-12-12z" stroke="#000" stroke-opacity="0" stroke-width="2" fill="#fff" fill-opacity="0"/><use xlink:href="#e" transform="matrix(1,0,0,1,657.9999999999998,85) translate(176.87037037037038 15.444444444444446)"/><use xlink:href="#f" transform="matrix(1,0,0,1,657.9999999999998,85) translate(208.80246913580248 15.444444444444446)"/><use xlink:href="#g" transform="matrix(1,0,0,1,657.9999999999998,85) translate(233.56172839506175 15.444444444444446)"/><path d="M512.74 75.6h742.55M512.77 75.6h-1.03M1255.26 75.6h1.03" stroke="#b2b2b2" stroke-width="2" fill="none"/><path d="M1420 186.53h240v343h-240z" fill="#fff"/><path d="M1420 261.53h240v35h-240zM1420 331.53h240v32h-240zM1420 398.53h240v32h-240zM1420 462.53h240v32h-240z" fill="#e6e6e6"/><path d="M1420 186.53h240v40h-240z" fill="#ccc"/><path d="M1420 186.53h240v343h-240zM1420 226.53h240" stroke="#666" fill="none"/><use xlink:href="#h" transform="matrix(1,0,0,1,1430,186.5295233990812) translate(5 25.15555555555556)"/><use xlink:href="#i" transform="matrix(1,0,0,1,1425,229.0295233990812) translate(5 20.155555555555555)"/><use xlink:href="#j" transform="matrix(1,0,0,1,1425,264.0295233990812) translate(5 20.155555555555555)"/><use xlink:href="#k" transform="matrix(1,0,0,1,1425,299.0295233990812) translate(5 20.155555555555555)"/><use xlink:href="#l" transform="matrix(1,0,0,1,1425,334.0295233990812) translate(0 17.1)"/><use xlink:href="#m" transform="matrix(1,0,0,1,1425,366.0295233990812) translate(5 20.155555555555555)"/><use xlink:href="#n" transform="matrix(1,0,0,1,1425,401.0295233990812) translate(0 17.1)"/><use xlink:href="#o" transform="matrix(1,0,0,1,1425,433.0295233990812) translate(0 17.1)"/><use xlink:href="#p" transform="matrix(1,0,0,1,1425,465.0295233990812) translate(0 17.1)"/><use xlink:href="#q" transform="matrix(1,0,0,1,1425,497.0295233990812) translate(5 20.155555555555555)"/><path d="M1399.5 817.92h-5.5c-6.63 0-12-5.38-12-12v-549.9c0-6.62-5.37-12-12-12h-48" stroke="#000" fill="none"/><path d="M1399.5 807.92v20M1419.5 817.92h-20M1322 254.03v-20M1302 244.03h20" stroke="#000" fill="#fff"/><path d="M1399.5 446.53H1387c0-2.76-2.24-5-5-5s-5 2.24-5 5h-3.5c-1.93 0-3.5 1.57-3.5 3.5V470c0 6.63-5.37 12-12 12H301" stroke="#000" fill="none"/><path d="M1399.5 436.53v20M1419.5 446.53h-20M301 492v-20M281 482h20" stroke="#000" fill="#fff"/><path d="M720 186.53h238.5v247H720z" fill="#fff"/><path d="M720 261.53h238.5v35H720zM720 331.53h238.5v32H720zM720 398.53h238.5v35H720z" fill="#e6e6e6"/><path d="M720 186.53h238.5v40H720z" fill="#ccc"/><path d="M720 186.53h238.5v247H720zM720 226.53h238.5" stroke="#666" fill="none"/><use xlink:href="#r" transform="matrix(1,0,0,1,730,186.5295233990812) translate(5 25.15555555555556)"/><use xlink:href="#m" transform="matrix(1,0,0,1,725,229.0295233990812) translate(5 20.155555555555555)"/><use xlink:href="#j" transform="matrix(1,0,0,1,725,264.0295233990812) translate(5 20.155555555555555)"/><use xlink:href="#k" transform="matrix(1,0,0,1,725,299.0295233990812) translate(5 20.155555555555555)"/><use xlink:href="#l" transform="matrix(1,0,0,1,725,334.0295233990812) translate(0 17.1)"/><use xlink:href="#s" transform="matrix(1,0,0,1,725,366.0295233990812) translate(5 20.155555555555555)"/><use xlink:href="#t" transform="matrix(1,0,0,1,725,401.0295233990812) translate(5 20.155555555555555)"/><path d="M1020 186.53h281.5v209H1020z" fill="#fff"/><path d="M1020 261.53h281.5v35H1020zM1020 328.53h281.5v32H1020z" fill="#e6e6e6"/><path d="M1020 186.53h281.5v40H1020z" fill="#ccc"/><path d="M1020 186.53h281.5v209H1020zM1020 226.53h281.5" stroke="#666" fill="none"/><use xlink:href="#u" transform="matrix(1,0,0,1,1030,186.5295233990812) translate(5 25.15555555555556)"/><use xlink:href="#v" transform="matrix(1,0,0,1,1025,229.0295233990812) translate(5 20.155555555555555)"/><use xlink:href="#j" transform="matrix(1,0,0,1,1025,264.0295233990812) translate(5 20.155555555555555)"/><use xlink:href="#w" transform="matrix(1,0,0,1,1025,299.0295233990812) translate(0 17.1)"/><use xlink:href="#l" transform="matrix(1,0,0,1,1025,331.0295233990812) translate(0 17.1)"/><use xlink:href="#x" transform="matrix(1,0,0,1,1025,363.0295233990812) translate(5 20.155555555555555)"/><path d="M90.25 186.53h219.5v200H90.25z" fill="#fff"/><path d="M90.25 258.53h219.5v32H90.25zM90.25 322.53h219.5v32H90.25z" fill="#e6e6e6"/><path d="M90.25 186.53h219.5v40H90.25z" fill="#ccc"/><path d="M90.25 186.53h219.5v200H90.25zM90.25 226.53h219.5" stroke="#666" fill="none"/><use xlink:href="#y" transform="matrix(1,0,0,1,100.24999999999955,186.5295233990812) translate(5 25.15555555555556)"/><use xlink:href="#z" transform="matrix(1,0,0,1,95.24999999999955,229.0295233990812) translate(0 17.1)"/><use xlink:href="#A" transform="matrix(1,0,0,1,95.24999999999955,261.0295233990812) translate(0 17.1)"/><use xlink:href="#w" transform="matrix(1,0,0,1,95.24999999999955,293.0295233990812) translate(0 17.1)"/><use xlink:href="#l" transform="matrix(1,0,0,1,95.24999999999955,325.0295233990812) translate(0 17.1)"/><use xlink:href="#n" transform="matrix(1,0,0,1,95.24999999999955,357.0295233990812) translate(0 17.1)"/><path d="M447.62 186.53h180v200h-180z" fill="#fff"/><path d="M447.62 258.53h180v32h-180zM447.62 322.53h180v32h-180z" fill="#e6e6e6"/><path d="M447.62 186.53h180v40h-180z" fill="#ccc"/><path d="M447.62 186.53h180v200h-180zM447.62 226.53h180" stroke="#666" fill="none"/><use xlink:href="#B" transform="matrix(1,0,0,1,457.6249999999998,186.5295233990812) translate(5 25.15555555555556)"/><use xlink:href="#C" transform="matrix(1,0,0,1,452.6249999999998,229.0295233990812) translate(0 17.1)"/><use xlink:href="#A" transform="matrix(1,0,0,1,452.6249999999998,261.0295233990812) translate(0 17.1)"/><use xlink:href="#w" transform="matrix(1,0,0,1,452.6249999999998,293.0295233990812) translate(0 17.1)"/><use xlink:href="#l" transform="matrix(1,0,0,1,452.6249999999998,325.0295233990812) translate(0 17.1)"/><use xlink:href="#n" transform="matrix(1,0,0,1,452.6249999999998,357.0295233990812) translate(0 17.1)"/><path d="M330.25 370.53h8c6.63 0 12 5.37 12 12V470c0 6.63-5.37 12-12 12H301" stroke="#000" fill="none"/><path d="M330.25 380.53v-20M310.25 370.53h20M301 492v-20M281 482h20" stroke="#000" fill="#fff"/><path d="M427.12 370.53h-51.06c-6.62 0-12 5.37-12 12V470c0 6.63-5.37 12-12 12H301" stroke="#000" fill="none"/><path d="M427.12 360.53v20M447.12 370.53h-20M301 492v-20M281 482h20" stroke="#000" fill="#fff"/><path d="M648.12 242.53h27.38c6.63 0 12 5.37 12 12v114.5c0 6.63 5.37 12 12 12h.6" stroke="#000" fill="none"/><path d="M648.12 252.53v-20M628.12 242.53h20M719.28 391.03l-20-10 20-10M719.28 381.03h-20" stroke="#000" fill="#fff"/><path d="M1399.5 381.03H1387c0-2.76-2.24-5-5-5s-5 2.24-5 5h-3.5c-1.93 0-3.5 1.57-3.5 3.5V398c0 6.63-5.37 12-12 12h-346c-6.63 0-12-5.37-12-12V256.03c0-6.63-5.37-12-12-12h-9" stroke="#000" fill="none"/><path d="M1399.5 371.03v20M1419.5 381.03h-20M979 254.03v-20M959 244.03h20" stroke="#000" fill="#fff"/><path d="M1420 600h240v235h-240z" fill="#fff"/><path d="M1420 672h240v32h-240zM1420 736h240v32h-240zM1420 800h240v35h-240z" fill="#e6e6e6"/><path d="M1420 600h240v40h-240z" fill="#ccc"/><path d="M1420 600h240v235h-240zM1420 640h240" stroke="#000" fill="none"/><use xlink:href="#D" transform="matrix(1,0,0,1,1430,600) translate(5 25.15555555555556)"/><use xlink:href="#E" transform="matrix(1,0,0,1,1425,642.5) translate(0 17.1)"/><use xlink:href="#A" transform="matrix(1,0,0,1,1425,674.5) translate(0 17.1)"/><use xlink:href="#w" transform="matrix(1,0,0,1,1425,706.5) translate(0 17.1)"/><use xlink:href="#F" transform="matrix(1,0,0,1,1425,738.5) translate(0 17.1)"/><use xlink:href="#G" transform="matrix(1,0,0,1,1425,770.5) translate(0 17.1)"/><use xlink:href="#v" transform="matrix(1,0,0,1,1425,802.5) translate(5 20.155555555555555)"/><path d="M1679.9 784.28h18.1c6.63 0 12-5.38 12-12V257.8c0-6.6-5.37-12-12-12h-17.5" stroke="#000" fill="none"/><path d="M1660.72 774.28l20 10-20 10M1660.72 784.28h20M1680.5 255.8v-20M1660.5 245.8h20" stroke="#000" fill="#fff"/><path d="M690.7 540h200v264h-200z" fill="#fff"/><path d="M690.7 612h200v32h-200zM690.7 676h200v32h-200zM690.7 740h200v32h-200z" fill="#e6e6e6"/><path d="M690.7 540h200v40h-200z" fill="#ccc"/><path d="M690.7 540h200v264h-200zM690.7 580h200" stroke="#000" fill="none"/><use xlink:href="#H" transform="matrix(1,0,0,1,700.7064450882752,540) translate(5 25.15555555555556)"/><use xlink:href="#I" transform="matrix(1,0,0,1,695.7064450882752,582.5) translate(0 17.1)"/><use xlink:href="#w" transform="matrix(1,0,0,1,695.7064450882752,614.5) translate(0 17.1)"/><use xlink:href="#A" transform="matrix(1,0,0,1,695.7064450882752,646.5) translate(0 17.1)"/><use xlink:href="#J" transform="matrix(1,0,0,1,695.7064450882752,678.5) translate(0 17.1)"/><use xlink:href="#K" transform="matrix(1,0,0,1,695.7064450882752,710.5) translate(0 17.1)"/><use xlink:href="#L" transform="matrix(1,0,0,1,695.7064450882752,742.5) translate(0 17.1)"/><use xlink:href="#M" transform="matrix(1,0,0,1,695.7064450882752,774.5) translate(0 17.1)"/><path d="M427.62 716h200v104h-200z" fill="#fff"/><path d="M427.62 788h200v32h-200z" fill="#e6e6e6"/><path d="M427.62 716h200v40h-200z" fill="#ccc"/><path d="M427.62 716h200v104h-200zM427.62 756h200" stroke="#000" fill="none"/><use xlink:href="#N" transform="matrix(1,0,0,1,437.6249999999998,716) translate(5 25.15555555555556)"/><use xlink:href="#J" transform="matrix(1,0,0,1,432.6249999999998,758.5) translate(0 17.1)"/><use xlink:href="#A" transform="matrix(1,0,0,1,432.6249999999998,790.5) translate(0 17.1)"/><path d="M670.2 692c-6.1 0-11.03 4.94-11.03 11.04v57.92c0 6.1-4.95 11.04-11.05 11.04" stroke="#000" fill="none"/><path d="M670.2 682v20M690.2 692h-20M648.12 782v-20M628.12 772h20" stroke="#000" fill="#fff"/><path d="M80 1018.48h240v104H80z" fill="#fff"/><path d="M80 1090.48h240v32H80z" fill="#e6e6e6"/><path d="M80 1018.48h240v40H80z" fill="#ccc"/><path d="M80 1018.48h240v104H80zM80 1058.48h240" stroke="#000" fill="none"/><use xlink:href="#O" transform="matrix(1,0,0,1,89.99999999999955,1018.4761494591007) translate(5 25.15555555555556)"/><use xlink:href="#I" transform="matrix(1,0,0,1,84.99999999999955,1060.9761494591007) translate(0 17.1)"/><use xlink:href="#z" transform="matrix(1,0,0,1,84.99999999999955,1092.9761494591007) translate(0 17.1)"/><path d="M399.9 1018.48h200v104h-200z" fill="#fff"/><path d="M399.9 1090.48h200v32h-200z" fill="#e6e6e6"/><path d="M399.9 1018.48h200v40h-200z" fill="#ccc"/><path d="M399.9 1018.48h200v104h-200zM399.9 1058.48h200" stroke="#000" fill="none"/><use xlink:href="#P" transform="matrix(1,0,0,1,409.9128901765501,1018.4761494591007) translate(5 25.15555555555556)"/><use xlink:href="#I" transform="matrix(1,0,0,1,404.9128901765501,1060.9761494591007) translate(0 17.1)"/><use xlink:href="#C" transform="matrix(1,0,0,1,404.9128901765501,1092.9761494591007) translate(0 17.1)"/><path d="M60.1 1106.48H42c-6.63 0-12-5.38-12-12V254.53c0-6.63 5.37-12 12-12h27.75" stroke="#000" fill="none"/><path d="M79.28 1116.48l-20-10 20-10M79.28 1106.48h-20M69.75 232.53v20M89.75 242.53h-20" stroke="#000" fill="#fff"/><path d="M380 1106.48h-28c-6.63 0-12-5.38-12-12V1002c0-6.63 5.37-12 12-12h43.12c6.63 0 12-5.37 12-12V487c-2.76 0-5-2.24-5-5s2.24-5 5-5V375.53c-2.76 0-5-2.24-5-5s2.24-5 5-5v-111c0-6.63 5.38-12 12-12h8" stroke="#000" fill="none"/><path d="M399.2 1116.48l-20-10 20-10M399.2 1106.48h-20M427.12 232.53v20M447.12 242.53h-20" stroke="#000" fill="#fff"/><path d="M659.96 1018.48h261.5v104h-261.5z" fill="#fff"/><path d="M659.96 1090.48h261.5v32h-261.5z" fill="#e6e6e6"/><path d="M659.96 1018.48h261.5v40h-261.5z" fill="#ccc"/><path d="M659.96 1018.48h261.5v104h-261.5zM659.96 1058.48h261.5" stroke="#000" fill="none"/><use xlink:href="#Q" transform="matrix(1,0,0,1,669.9564450882752,1018.4761494591007) translate(5 25.15555555555556)"/><use xlink:href="#I" transform="matrix(1,0,0,1,664.9564450882752,1060.9761494591007) translate(0 17.1)"/><use xlink:href="#R" transform="matrix(1,0,0,1,664.9564450882752,1092.9761494591007) translate(0 17.1)"/><path d="M941.37 1106.48h8.6c6.6 0 12-5.38 12-12V972c0-6.63 5.36-12 12-12H1328c6.63 0 12-5.37 12-12V487c-2.76 0-5-2.24-5-5s2.24-5 5-5v-62c-2.76 0-5-2.24-5-5s2.24-5 5-5V256.03c0-6.63-5.37-12-12-12h-6" stroke="#000" fill="none"/><path d="M922.18 1096.48l20 10-20 10M922.18 1106.48h20M1322 254.03v-20M1302 244.03h20" stroke="#000" fill="#fff"/><path d="M499.9 1017.48v-94.24c0-6.63 5.4-12 12-12h266.8c6.63 0 12-5.37 12-12V844" stroke="#000" fill="none"/><path d="M500.4 1017.98h-1v-.52h1z"/><path d="M780.7 814.5h20M790.7 804.5v20M800.7 834.5c0 5.52-4.47 10-10 10-5.52 0-10-4.48-10-10s4.48-10 10-10c5.53 0 10 4.48 10 10" stroke="#000" fill="#fff"/><path d="M200 1017.48v-94.24c0-6.63 5.37-12 12-12h190.12c0-2.76 2.24-5 5-5 2.77 0 5 2.24 5 5h366.6c6.6 0 12-5.37 12-12V844" stroke="#000" fill="none"/><path d="M200.5 1017.98h-1v-.52h1z"/><path d="M780.7 814.5h20M790.7 804.5v20M800.7 834.5c0 5.52-4.47 10-10 10-5.52 0-10-4.48-10-10s4.48-10 10-10c5.53 0 10 4.48 10 10" stroke="#000" fill="#fff"/><path d="M790.7 1017.48V844" stroke="#000" fill="none"/><path d="M791.2 1017.98h-1v-.52h1z"/><path d="M780.7 814.5h20M790.7 804.5v20M800.7 834.5c0 5.52-4.47 10-10 10-5.52 0-10-4.48-10-10s4.48-10 10-10c5.53 0 10 4.48 10 10" stroke="#000" fill="#fff"/><path d="M1020 1018.48h218.5v104H1020z" fill="#fff"/><path d="M1020 1090.48h218.5v32H1020z" fill="#e6e6e6"/><path d="M1020 1018.48h218.5v40H1020z" fill="#ccc"/><path d="M1020 1018.48h218.5v104H1020zM1020 1058.48h218.5" stroke="#000" fill="none"/><use xlink:href="#S" transform="matrix(1,0,0,1,1030,1018.4761494591007) translate(5 25.15555555555556)"/><use xlink:href="#I" transform="matrix(1,0,0,1,1025,1060.9761494591007) translate(0 17.1)"/><use xlink:href="#G" transform="matrix(1,0,0,1,1025,1092.9761494591007) translate(0 17.1)"/><path d="M1129.25 1017.48V965c-2.76 0-5-2.24-5-5s2.24-5 5-5v-31.76c0-6.63-5.37-12-12-12H802.7c-6.62 0-12-5.37-12-12V844" stroke="#000" fill="none"/><path d="M1129.75 1017.98h-1v-.52h1z"/><path d="M780.7 814.5h20M790.7 804.5v20M800.7 834.5c0 5.52-4.47 10-10 10-5.52 0-10-4.48-10-10s4.48-10 10-10c5.53 0 10 4.48 10 10" stroke="#000" fill="#fff"/><path d="M1420 1018.48h200v104h-200z" fill="#fff"/><path d="M1420 1090.48h200v32h-200z" fill="#e6e6e6"/><path d="M1420 1018.48h200v40h-200z" fill="#ccc"/><path d="M1420 1018.48h200v104h-200zM1420 1058.48h200" stroke="#000" fill="none"/><use xlink:href="#T" transform="matrix(1,0,0,1,1430,1018.4761494591007) translate(5 25.15555555555556)"/><use xlink:href="#I" transform="matrix(1,0,0,1,1425,1060.9761494591007) translate(0 17.1)"/><use xlink:href="#E" transform="matrix(1,0,0,1,1425,1092.9761494591007) translate(0 17.1)"/><path d="M1520 1017.48v-94.24c0-6.63-5.37-12-12-12h-163c0-2.76-2.24-5-5-5s-5 2.24-5 5H802.7c-6.62 0-12-5.37-12-12V844" stroke="#000" fill="none"/><path d="M1520.5 1017.98h-1v-.52h1z"/><path d="M780.7 814.5h20M790.7 804.5v20M800.7 834.5c0 5.52-4.47 10-10 10-5.52 0-10-4.48-10-10s4.48-10 10-10c5.53 0 10 4.48 10 10" stroke="#000" fill="#fff"/><path d="M1400.1 1106.66H1372c-6.63 0-12-5.38-12-12V916.24c-2.76 0-5-2.24-5-5s2.24-5 5-5v-242c0-4.7 3.8-8.5 8.5-8.5h8.5c0-2.76 2.24-5 5-5s5 2.24 5 5h12.5" stroke="#000" fill="none"/><path d="M1419.28 1116.66l-20-10 20-10M1419.28 1106.66h-20M1399.5 645.74v20M1419.5 655.74h-20" stroke="#000" fill="#fff"/><path d="M1258.4 1106.48h8.6c6.63 0 12-5.38 12-12V992c0-6.63 5.37-12 12-12h64c0-2.76 2.24-5 5-5s5 2.24 5 5h150c0-2.76 2.24-5 5-5s5 2.24 5 5h173c6.63 0 12-5.37 12-12V256.03c0-6.63-5.37-12-12-12h-17.5" stroke="#000" fill="none"/><path d="M1239.22 1096.48l20 10-20 10M1239.22 1106.48h20M1680.5 254.03v-20M1660.5 244.03h20" stroke="#000" fill="#fff"/><path d="M80.5 426h200v264h-200z" fill="#fff"/><path d="M80.5 498h200v32h-200zM80.5 562h200v32h-200zM80.5 626h200v32h-200z" fill="#e6e6e6"/><path d="M80.5 426h200v40h-200z" fill="#ccc"/><path d="M80.5 426h200v264h-200zM80.5 466h200" stroke="#000" fill="none"/><use xlink:href="#U" transform="matrix(1,0,0,1,90.5,426) translate(5 25.15555555555556)"/><use xlink:href="#V" transform="matrix(1,0,0,1,85.5,468.5) translate(0 17.1)"/><use xlink:href="#A" transform="matrix(1,0,0,1,85.5,500.5) translate(0 17.1)"/><use xlink:href="#w" transform="matrix(1,0,0,1,85.5,532.5) translate(0 17.1)"/><use xlink:href="#l" transform="matrix(1,0,0,1,85.5,564.5) translate(0 17.1)"/><use xlink:href="#W" transform="matrix(1,0,0,1,85.5,596.5) translate(0 17.1)"/><use xlink:href="#X" transform="matrix(1,0,0,1,85.5,628.5) translate(0 17.1)"/><use xlink:href="#Y" transform="matrix(1,0,0,1,85.5,660.5) translate(0 17.1)"/><path d="M80 716h200v104H80z" fill="#fff"/><path d="M80 788h200v32H80z" fill="#e6e6e6"/><path d="M80 716h200v40H80z" fill="#ccc"/><path d="M80 716h200v104H80zM80 756h200" stroke="#000" fill="none"/><use xlink:href="#Z" transform="matrix(1,0,0,1,90,716) translate(5 25.15555555555556)"/><use xlink:href="#Y" transform="matrix(1,0,0,1,85,758.5) translate(0 17.1)"/><use xlink:href="#A" transform="matrix(1,0,0,1,85,790.5) translate(0 17.1)"/><path d="M60 674h-8.5c-6.63 0-12 5.37-12 12v74c0 6.63 5.37 12 12 12h8" stroke="#000" fill="none"/><path d="M60 664v20M80 674H60M59.5 762v20M79.5 772h-20" stroke="#000" fill="#fff"/><path d="M1399.5 414.76H1387c0-2.76-2.24-5-5-5s-5 2.24-5 5h-3.5c-1.93 0-3.5 1.57-3.5 3.5v51.36c0 6.63-5.37 12-12 12h-13c0-2.76-2.24-5-5-5s-5 2.24-5 5H412.12c0-2.76-2.23-5-5-5-2.76 0-5 2.24-5 5h-33.06c0-2.76-2.24-5-5-5s-5 2.24-5 5h-3.8c0-2.76-2.25-5-5-5-2.77 0-5 2.24-5 5H300.4" stroke="#000" fill="none"/><path d="M1399.5 404.76v20M1419.5 414.76h-20M281.22 471.62l20 10-20 10M281.22 481.62h20" stroke="#000" fill="#fff"/><defs><path fill="#b2b2b2" d="M182-130c37 4 62 22 62 59C244 23 116-4 24 0v-248c84 5 203-23 205 63 0 31-19 50-47 55zM76-148c40-3 101 13 101-30 0-44-60-28-101-31v61zm0 110c48-3 116 14 116-37 0-48-69-32-116-35v72" id="aa"/><path fill="#b2b2b2" d="M24 0v-248h195v40H76v63h132v40H76v65h150V0H24" id="ab"/><path fill="#b2b2b2" d="M169-182c-1-43-94-46-97-3 18 66 151 10 154 114 3 95-165 93-204 36-6-8-10-19-12-30l50-8c3 46 112 56 116 5-17-69-150-10-154-114-4-87 153-88 188-35 5 8 8 18 10 28" id="ac"/><path fill="#b2b2b2" d="M24-248c93 1 206-16 204 79-1 75-69 88-152 82V0H24v-248zm52 121c47 0 100 7 100-41 0-47-54-39-100-39v80" id="ad"/><path fill="#b2b2b2" d="M24 0v-248h52V0H24" id="ae"/><path fill="#b2b2b2" d="M175 0L67-191c6 58 2 128 3 191H24v-248h59L193-55c-6-58-2-129-3-193h46V0h-61" id="af"/><g id="a"><use transform="matrix(0.07407407407407408,0,0,0.07407407407407408,0,0)" xlink:href="#aa"/><use transform="matrix(0.07407407407407408,0,0,0.07407407407407408,19.185185185185187,0)" xlink:href="#ab"/><use transform="matrix(0.07407407407407408,0,0,0.07407407407407408,36.96296296296296,0)" xlink:href="#ac"/><use transform="matrix(0.07407407407407408,0,0,0.07407407407407408,54.74074074074074,0)" xlink:href="#ac"/><use transform="matrix(0.07407407407407408,0,0,0.07407407407407408,72.51851851851852,0)" xlink:href="#ad"/><use transform="matrix(0.07407407407407408,0,0,0.07407407407407408,90.2962962962963,0)" xlink:href="#ae"/><use transform="matrix(0.07407407407407408,0,0,0.07407407407407408,97.70370370370371,0)" xlink:href="#af"/></g><path fill="#b2b2b2" d="M238-95c0 69-44 99-111 99C63 4 22-25 22-93v-155h51v151c-1 38 19 59 55 60 90 1 49-130 58-211h52v153" id="ag"/><g id="b"><use transform="matrix(0.07407407407407408,0,0,0.07407407407407408,0,0)" xlink:href="#ag"/><use transform="matrix(0.07407407407407408,0,0,0.07407407407407408,19.185185185185187,0)" xlink:href="#ae"/></g><path fill="#b2b2b2" d="M24-248c120-7 223 5 221 122C244-46 201 0 124 0H24v-248zM76-40c74 7 117-18 117-86 0-67-45-88-117-82v168" id="ah"/><path fill="#b2b2b2" d="M133-34C117-15 103 5 69 4 32 3 11-16 11-54c-1-60 55-63 116-61 1-26-3-47-28-47-18 1-26 9-28 27l-52-2c7-38 36-58 82-57s74 22 75 68l1 82c-1 14 12 18 25 15v27c-30 8-71 5-69-32zm-48 3c29 0 43-24 42-57-32 0-66-3-65 30 0 17 8 27 23 27" id="ai"/><path fill="#b2b2b2" d="M115-3C79 11 28 4 28-45v-112H4v-33h27l15-45h31v45h36v33H77v99c-1 23 16 31 38 25v30" id="aj"/><g id="c"><use transform="matrix(0.07407407407407408,0,0,0.07407407407407408,0,0)" xlink:href="#ah"/><use transform="matrix(0.07407407407407408,0,0,0.07407407407407408,19.185185185185187,0)" xlink:href="#ai"/><use transform="matrix(0.07407407407407408,0,0,0.07407407407407408,34,0)" xlink:href="#aj"/><use transform="matrix(0.07407407407407408,0,0,0.07407407407407408,42.814814814814824,0)" xlink:href="#ai"/></g><path fill="#b2b2b2" d="M230 0l2-204L168 0h-37L68-204 70 0H24v-248h70l56 185 57-185h69V0h-46" id="ak"/><path fill="#b2b2b2" d="M110-194c64 0 96 36 96 99 0 64-35 99-97 99-61 0-95-36-95-99 0-62 34-99 96-99zm-1 164c35 0 45-28 45-65 0-40-10-65-43-65-34 0-45 26-45 65 0 36 10 65 43 65" id="al"/><path fill="#b2b2b2" d="M88-194c31-1 46 15 58 34l-1-101h50l1 261h-48c-2-10 0-23-3-31C134-8 116 4 84 4 32 4 16-41 15-95c0-56 19-97 73-99zm17 164c33 0 40-30 41-66 1-37-9-64-41-64s-38 30-39 65c0 43 13 65 39 65" id="am"/><path fill="#b2b2b2" d="M185-48c-13 30-37 53-82 52C43 2 14-33 14-96s30-98 90-98c62 0 83 45 84 108H66c0 31 8 55 39 56 18 0 30-7 34-22zm-45-69c5-46-57-63-70-21-2 6-4 13-4 21h74" id="an"/><path fill="#b2b2b2" d="M25 0v-261h50V0H25" id="ao"/><g id="d"><use transform="matrix(0.07407407407407408,0,0,0.07407407407407408,0,0)" xlink:href="#ak"/><use transform="matrix(0.07407407407407408,0,0,0.07407407407407408,22.148148148148152,0)" xlink:href="#al"/><use transform="matrix(0.07407407407407408,0,0,0.07407407407407408,38.37037037037038,0)" xlink:href="#am"/><use transform="matrix(0.07407407407407408,0,0,0.07407407407407408,54.59259259259261,0)" xlink:href="#an"/><use transform="matrix(0.07407407407407408,0,0,0.07407407407407408,69.40740740740742,0)" xlink:href="#ao"/></g><path fill="#b2b2b2" d="M30-248c118-7 216 8 213 122C240-48 200 0 122 0H30v-248zM63-27c89 8 146-16 146-99s-60-101-146-95v194" id="ap"/><path fill="#b2b2b2" d="M100-194c63 0 86 42 84 106H49c0 40 14 67 53 68 26 1 43-12 49-29l28 8c-11 28-37 45-77 45C44 4 14-33 15-96c1-61 26-98 85-98zm52 81c6-60-76-77-97-28-3 7-6 17-6 28h103" id="aq"/><path fill="#b2b2b2" d="M96-169c-40 0-48 33-48 73s9 75 48 75c24 0 41-14 43-38l32 2c-6 37-31 61-74 61-59 0-76-41-82-99-10-93 101-131 147-64 4 7 5 14 7 22l-32 3c-4-21-16-35-41-35" id="ar"/><g id="e"><use transform="matrix(0.04320987654320988,0,0,0.04320987654320988,0,0)" xlink:href="#ap"/><use transform="matrix(0.04320987654320988,0,0,0.04320987654320988,11.19135802469136,0)" xlink:href="#aq"/><use transform="matrix(0.04320987654320988,0,0,0.04320987654320988,19.833333333333336,0)" xlink:href="#ar"/></g><path fill="#b2b2b2" d="M27 0v-27h64v-190l-56 39v-29l58-41h29v221h61V0H27" id="as"/><path fill="#b2b2b2" d="M68-38c1 34 0 65-14 84H32c9-13 17-26 17-46H33v-38h35" id="at"/><g id="f"><use transform="matrix(0.04320987654320988,0,0,0.04320987654320988,0,0)" xlink:href="#as"/><use transform="matrix(0.04320987654320988,0,0,0.04320987654320988,7.475308641975309,0)" xlink:href="#as"/><use transform="matrix(0.04320987654320988,0,0,0.04320987654320988,16.117283950617285,0)" xlink:href="#at"/></g><path fill="#b2b2b2" d="M101-251c82-7 93 87 43 132L82-64C71-53 59-42 53-27h129V0H18c2-99 128-94 128-182 0-28-16-43-45-43s-46 15-49 41l-32-3c6-41 34-60 81-64" id="au"/><path fill="#b2b2b2" d="M101-251c68 0 85 55 85 127S166 4 100 4C33 4 14-52 14-124c0-73 17-127 87-127zm-1 229c47 0 54-49 54-102s-4-102-53-102c-51 0-55 48-55 102 0 53 5 102 54 102" id="av"/><path fill="#b2b2b2" d="M99-251c64 0 84 50 84 122C183-37 130 33 47-8c-14-7-20-23-25-40l30-5c6 39 69 39 84 7 9-19 16-44 16-74-10 22-31 35-62 35-49 0-73-33-73-83 0-54 28-83 82-83zm-1 141c31-1 51-18 51-49 0-36-14-67-51-67-34 0-49 23-49 58 0 34 15 58 49 58" id="aw"/><g id="g"><use transform="matrix(0.04320987654320988,0,0,0.04320987654320988,0,0)" xlink:href="#au"/><use transform="matrix(0.04320987654320988,0,0,0.04320987654320988,8.641975308641976,0)" xlink:href="#av"/><use transform="matrix(0.04320987654320988,0,0,0.04320987654320988,17.283950617283953,0)" xlink:href="#as"/><use transform="matrix(0.04320987654320988,0,0,0.04320987654320988,25.925925925925927,0)" xlink:href="#aw"/></g><path d="M185-189c-5-48-123-54-124 2 14 75 158 14 163 119 3 78-121 87-175 55-17-10-28-26-33-46l33-7c5 56 141 63 141-1 0-78-155-14-162-118-5-82 145-84 179-34 5 7 8 16 11 25" id="ax"/><path d="M179-190L93 31C79 59 56 82 12 73V49c39 6 53-20 64-50L1-190h34L92-34l54-156h33" id="ay"/><path d="M135-143c-3-34-86-38-87 0 15 53 115 12 119 90S17 21 10-45l28-5c4 36 97 45 98 0-10-56-113-15-118-90-4-57 82-63 122-42 12 7 21 19 24 35" id="az"/><path d="M59-47c-2 24 18 29 38 22v24C64 9 27 4 27-40v-127H5v-23h24l9-43h21v43h35v23H59v120" id="aA"/><path d="M100-194c63 0 86 42 84 106H49c0 40 14 67 53 68 26 1 43-12 49-29l28 8c-11 28-37 45-77 45C44 4 14-33 15-96c1-61 26-98 85-98zm52 81c6-60-76-77-97-28-3 7-6 17-6 28h103" id="aB"/><path d="M210-169c-67 3-38 105-44 169h-31v-121c0-29-5-50-35-48C34-165 62-65 56 0H25l-1-190h30c1 10-1 24 2 32 10-44 99-50 107 0 11-21 27-35 58-36 85-2 47 119 55 194h-31v-121c0-29-5-49-35-48" id="aC"/><path d="M212-179c-10-28-35-45-73-45-59 0-87 40-87 99 0 60 29 101 89 101 43 0 62-24 78-52l27 14C228-24 195 4 139 4 59 4 22-46 18-125c-6-104 99-153 187-111 19 9 31 26 39 46" id="aD"/><path d="M100-194c62-1 85 37 85 99 1 63-27 99-86 99S16-35 15-95c0-66 28-99 85-99zM99-20c44 1 53-31 53-75 0-43-8-75-51-75s-53 32-53 75 10 74 51 75" id="aE"/><path d="M117-194c89-4 53 116 60 194h-32v-121c0-31-8-49-39-48C34-167 62-67 57 0H25l-1-190h30c1 10-1 24 2 32 11-22 29-35 61-36" id="aF"/><path d="M101-234c-31-9-42 10-38 44h38v23H63V0H32v-167H5v-23h27c-7-52 17-82 69-68v24" id="aG"/><path d="M24-231v-30h32v30H24zM24 0v-190h32V0H24" id="aH"/><path d="M177-190C167-65 218 103 67 71c-23-6-38-20-44-43l32-5c15 47 100 32 89-28v-30C133-14 115 1 83 1 29 1 15-40 15-95c0-56 16-97 71-98 29-1 48 16 59 35 1-10 0-23 2-32h30zM94-22c36 0 50-32 50-73 0-42-14-75-50-75-39 0-46 34-46 75s6 73 46 73" id="aI"/><path d="M84 4C-5 8 30-112 23-190h32v120c0 31 7 50 39 49 72-2 45-101 50-169h31l1 190h-30c-1-10 1-25-2-33-11 22-28 36-60 37" id="aJ"/><path d="M114-163C36-179 61-72 57 0H25l-1-190h30c1 12-1 29 2 39 6-27 23-49 58-41v29" id="aK"/><path d="M141-36C126-15 110 5 73 4 37 3 15-17 15-53c-1-64 63-63 125-63 3-35-9-54-41-54-24 1-41 7-42 31l-33-3c5-37 33-52 76-52 45 0 72 20 72 64v82c-1 20 7 32 28 27v20c-31 9-61-2-59-35zM48-53c0 20 12 33 32 33 41-3 63-29 60-74-43 2-92-5-92 41" id="aL"/><path d="M33 0v-248h34V0H33" id="aM"/><path d="M115-194c55 1 70 41 70 98S169 2 115 4C84 4 66-9 55-30l1 105H24l-1-265h31l2 30c10-21 28-34 59-34zm-8 174c40 0 45-34 45-75s-6-73-45-74c-42 0-51 32-51 76 0 43 10 73 51 73" id="aN"/><g id="h"><use transform="matrix(0.04938271604938272,0,0,0.04938271604938272,0,0)" xlink:href="#ax"/><use transform="matrix(0.04938271604938272,0,0,0.04938271604938272,11.851851851851853,0)" xlink:href="#ay"/><use transform="matrix(0.04938271604938272,0,0,0.04938271604938272,20.74074074074074,0)" xlink:href="#az"/><use transform="matrix(0.04938271604938272,0,0,0.04938271604938272,29.629629629629633,0)" xlink:href="#aA"/><use transform="matrix(0.04938271604938272,0,0,0.04938271604938272,34.5679012345679,0)" xlink:href="#aB"/><use transform="matrix(0.04938271604938272,0,0,0.04938271604938272,44.44444444444444,0)" xlink:href="#aC"/><use transform="matrix(0.04938271604938272,0,0,0.04938271604938272,59.20987654320987,0)" xlink:href="#aD"/><use transform="matrix(0.04938271604938272,0,0,0.04938271604938272,72,0)" xlink:href="#aE"/><use transform="matrix(0.04938271604938272,0,0,0.04938271604938272,81.87654320987654,0)" xlink:href="#aF"/><use transform="matrix(0.04938271604938272,0,0,0.04938271604938272,91.75308641975309,0)" xlink:href="#aG"/><use transform="matrix(0.04938271604938272,0,0,0.04938271604938272,96.69135802469137,0)" xlink:href="#aH"/><use transform="matrix(0.04938271604938272,0,0,0.04938271604938272,100.59259259259261,0)" xlink:href="#aI"/><use transform="matrix(0.04938271604938272,0,0,0.04938271604938272,110.46913580246914,0)" xlink:href="#aJ"/><use transform="matrix(0.04938271604938272,0,0,0.04938271604938272,120.34567901234568,0)" xlink:href="#aK"/><use transform="matrix(0.04938271604938272,0,0,0.04938271604938272,126.22222222222223,0)" xlink:href="#aL"/><use transform="matrix(0.04938271604938272,0,0,0.04938271604938272,136.0987654320988,0)" xlink:href="#aA"/><use transform="matrix(0.04938271604938272,0,0,0.04938271604938272,141.03703703703707,0)" xlink:href="#aH"/><use transform="matrix(0.04938271604938272,0,0,0.04938271604938272,144.9382716049383,0)" xlink:href="#aE"/><use transform="matrix(0.04938271604938272,0,0,0.04938271604938272,154.81481481481484,0)" xlink:href="#aF"/><use transform="matrix(0.04938271604938272,0,0,0.04938271604938272,164.6913580246914,0)" xlink:href="#aM"/><use transform="matrix(0.04938271604938272,0,0,0.04938271604938272,169.62962962962968,0)" xlink:href="#aF"/><use transform="matrix(0.04938271604938272,0,0,0.04938271604938272,179.50617283950623,0)" xlink:href="#aN"/><use transform="matrix(0.04938271604938272,0,0,0.04938271604938272,189.3827160493828,0)" xlink:href="#aJ"/><use transform="matrix(0.04938271604938272,0,0,0.04938271604938272,199.25925925925935,0)" xlink:href="#aA"/><use transform="matrix(0.04938271604938272,0,0,0.04938271604938272,204.19753086419763,0)" xlink:href="#az"/></g><path d="M85-194c31 0 48 13 60 33l-1-100h32l1 261h-30c-2-10 0-23-3-31C134-8 116 4 85 4 32 4 16-35 15-94c0-66 23-100 70-100zm9 24c-40 0-46 34-46 75 0 40 6 74 45 74 42 0 51-32 51-76 0-42-9-74-50-73" id="aO"/><g id="i"><use transform="matrix(0.04938271604938272,0,0,0.04938271604938272,0,0)" xlink:href="#az"/><use transform="matrix(0.04938271604938272,0,0,0.04938271604938272,8.88888888888889,0)" xlink:href="#ay"/><use transform="matrix(0.04938271604938272,0,0,0.04938271604938272,17.77777777777778,0)" xlink:href="#az"/><use transform="matrix(0.04938271604938272,0,0,0.04938271604938272,26.666666666666668,0)" xlink:href="#aD"/><use transform="matrix(0.04938271604938272,0,0,0.04938271604938272,39.45679012345679,0)" xlink:href="#aE"/><use transform="matrix(0.04938271604938272,0,0,0.04938271604938272,49.333333333333336,0)" xlink:href="#aF"/><use transform="matrix(0.04938271604938272,0,0,0.04938271604938272,59.20987654320988,0)" xlink:href="#aG"/><use transform="matrix(0.04938271604938272,0,0,0.04938271604938272,64.14814814814815,0)" xlink:href="#aH"/><use transform="matrix(0.04938271604938272,0,0,0.04938271604938272,68.0493827160494,0)" xlink:href="#aI"/><use transform="matrix(0.04938271604938272,0,0,0.04938271604938272,77.92592592592594,0)" xlink:href="#aM"/><use transform="matrix(0.04938271604938272,0,0,0.04938271604938272,82.8641975308642,0)" xlink:href="#aO"/></g><path d="M24 0v-261h32V0H24" id="aP"/><path d="M115-194c53 0 69 39 70 98 0 66-23 100-70 100C84 3 66-7 56-30L54 0H23l1-261h32v101c10-23 28-34 59-34zm-8 174c40 0 45-34 45-75 0-40-5-75-45-74-42 0-51 32-51 76 0 43 10 73 51 73" id="aQ"/><g id="j"><use transform="matrix(0.04938271604938272,0,0,0.04938271604938272,0,0)" xlink:href="#aP"/><use transform="matrix(0.04938271604938272,0,0,0.04938271604938272,3.901234567901235,0)" xlink:href="#aL"/><use transform="matrix(0.04938271604938272,0,0,0.04938271604938272,13.777777777777779,0)" xlink:href="#aQ"/><use transform="matrix(0.04938271604938272,0,0,0.04938271604938272,23.654320987654323,0)" xlink:href="#aB"/><use transform="matrix(0.04938271604938272,0,0,0.04938271604938272,33.53086419753087,0)" xlink:href="#aP"/></g><path d="M96-169c-40 0-48 33-48 73s9 75 48 75c24 0 41-14 43-38l32 2c-6 37-31 61-74 61-59 0-76-41-82-99-10-93 101-131 147-64 4 7 5 14 7 22l-32 3c-4-21-16-35-41-35" id="aR"/><path d="M205 0l-28-72H64L36 0H1l101-248h38L239 0h-34zm-38-99l-47-123c-12 45-31 82-46 123h93" id="aS"/><g id="k"><use transform="matrix(0.04938271604938272,0,0,0.04938271604938272,0,0)" xlink:href="#aR"/><use transform="matrix(0.04938271604938272,0,0,0.04938271604938272,8.88888888888889,0)" xlink:href="#aK"/><use transform="matrix(0.04938271604938272,0,0,0.04938271604938272,14.765432098765434,0)" xlink:href="#aB"/><use transform="matrix(0.04938271604938272,0,0,0.04938271604938272,24.641975308641978,0)" xlink:href="#aL"/><use transform="matrix(0.04938271604938272,0,0,0.04938271604938272,34.51851851851852,0)" xlink:href="#aA"/><use transform="matrix(0.04938271604938272,0,0,0.04938271604938272,39.45679012345679,0)" xlink:href="#aB"/><use transform="matrix(0.04938271604938272,0,0,0.04938271604938272,49.333333333333336,0)" xlink:href="#aO"/><use transform="matrix(0.04938271604938272,0,0,0.04938271604938272,59.20987654320988,0)" xlink:href="#aS"/><use transform="matrix(0.04938271604938272,0,0,0.04938271604938272,71.06172839506173,0)" xlink:href="#aA"/></g><g id="l"><use transform="matrix(0.05,0,0,0.05,0,0)" xlink:href="#aJ"/><use transform="matrix(0.05,0,0,0.05,10,0)" xlink:href="#aN"/><use transform="matrix(0.05,0,0,0.05,20,0)" xlink:href="#aO"/><use transform="matrix(0.05,0,0,0.05,30,0)" xlink:href="#aL"/><use transform="matrix(0.05,0,0,0.05,40,0)" xlink:href="#aA"/><use transform="matrix(0.05,0,0,0.05,45,0)" xlink:href="#aB"/><use transform="matrix(0.05,0,0,0.05,55,0)" xlink:href="#aO"/><use transform="matrix(0.05,0,0,0.05,65,0)" xlink:href="#aS"/><use transform="matrix(0.05,0,0,0.05,77,0)" xlink:href="#aA"/></g><g id="m"><use transform="matrix(0.04938271604938272,0,0,0.04938271604938272,0,0)" xlink:href="#aG"/><use transform="matrix(0.04938271604938272,0,0,0.04938271604938272,4.938271604938272,0)" xlink:href="#aB"/><use transform="matrix(0.04938271604938272,0,0,0.04938271604938272,14.814814814814817,0)" xlink:href="#aL"/><use transform="matrix(0.04938271604938272,0,0,0.04938271604938272,24.69135802469136,0)" xlink:href="#aA"/><use transform="matrix(0.04938271604938272,0,0,0.04938271604938272,29.629629629629633,0)" xlink:href="#aD"/><use transform="matrix(0.04938271604938272,0,0,0.04938271604938272,42.41975308641976,0)" xlink:href="#aE"/><use transform="matrix(0.04938271604938272,0,0,0.04938271604938272,52.2962962962963,0)" xlink:href="#aF"/><use transform="matrix(0.04938271604938272,0,0,0.04938271604938272,62.17283950617284,0)" xlink:href="#aG"/><use transform="matrix(0.04938271604938272,0,0,0.04938271604938272,67.11111111111111,0)" xlink:href="#aH"/><use transform="matrix(0.04938271604938272,0,0,0.04938271604938272,71.01234567901236,0)" xlink:href="#aI"/><use transform="matrix(0.04938271604938272,0,0,0.04938271604938272,80.8888888888889,0)" xlink:href="#aM"/><use transform="matrix(0.04938271604938272,0,0,0.04938271604938272,85.82716049382717,0)" xlink:href="#aO"/></g><path d="M106-169C34-169 62-67 57 0H25v-261h32l-1 103c12-21 28-36 61-36 89 0 53 116 60 194h-32v-121c2-32-8-49-39-48" id="aT"/><g id="n"><use transform="matrix(0.05,0,0,0.05,0,0)" xlink:href="#aT"/><use transform="matrix(0.05,0,0,0.05,10,0)" xlink:href="#aO"/><use transform="matrix(0.05,0,0,0.05,20,0)" xlink:href="#aP"/><use transform="matrix(0.05,0,0,0.05,23.95,0)" xlink:href="#aM"/><use transform="matrix(0.05,0,0,0.05,28.950000000000003,0)" xlink:href="#aO"/></g><g id="o"><use transform="matrix(0.05,0,0,0.05,0,0)" xlink:href="#aE"/><use transform="matrix(0.05,0,0,0.05,10,0)" xlink:href="#az"/><use transform="matrix(0.05,0,0,0.05,19,0)" xlink:href="#aM"/><use transform="matrix(0.05,0,0,0.05,24,0)" xlink:href="#aO"/></g><g id="p"><use transform="matrix(0.05,0,0,0.05,0,0)" xlink:href="#aA"/><use transform="matrix(0.05,0,0,0.05,5,0)" xlink:href="#aE"/><use transform="matrix(0.05,0,0,0.05,15,0)" xlink:href="#aE"/><use transform="matrix(0.05,0,0,0.05,25,0)" xlink:href="#aP"/><use transform="matrix(0.05,0,0,0.05,28.950000000000003,0)" xlink:href="#aD"/><use transform="matrix(0.05,0,0,0.05,41.9,0)" xlink:href="#aT"/><use transform="matrix(0.05,0,0,0.05,51.900000000000006,0)" xlink:href="#aL"/><use transform="matrix(0.05,0,0,0.05,61.900000000000006,0)" xlink:href="#aH"/><use transform="matrix(0.05,0,0,0.05,65.85,0)" xlink:href="#aF"/><use transform="matrix(0.05,0,0,0.05,75.85,0)" xlink:href="#aM"/><use transform="matrix(0.05,0,0,0.05,80.85,0)" xlink:href="#aO"/></g><path d="M141 0L90-78 38 0H4l68-98-65-92h35l48 74 47-74h35l-64 92 68 98h-35" id="aU"/><g id="q"><use transform="matrix(0.04938271604938272,0,0,0.04938271604938272,0,0)" xlink:href="#aF"/><use transform="matrix(0.04938271604938272,0,0,0.04938271604938272,9.876543209876544,0)" xlink:href="#aH"/><use transform="matrix(0.04938271604938272,0,0,0.04938271604938272,13.777777777777779,0)" xlink:href="#aU"/><use transform="matrix(0.04938271604938272,0,0,0.04938271604938272,22.666666666666668,0)" xlink:href="#aD"/><use transform="matrix(0.04938271604938272,0,0,0.04938271604938272,35.45679012345679,0)" xlink:href="#aE"/><use transform="matrix(0.04938271604938272,0,0,0.04938271604938272,45.333333333333336,0)" xlink:href="#aF"/><use transform="matrix(0.04938271604938272,0,0,0.04938271604938272,55.20987654320988,0)" xlink:href="#aG"/><use transform="matrix(0.04938271604938272,0,0,0.04938271604938272,60.14814814814815,0)" xlink:href="#aH"/><use transform="matrix(0.04938271604938272,0,0,0.04938271604938272,64.0493827160494,0)" xlink:href="#aI"/></g><path d="M63-220v92h138v28H63V0H30v-248h175v28H63" id="aV"/><g id="r"><use transform="matrix(0.04938271604938272,0,0,0.04938271604938272,0,0)" xlink:href="#aV"/><use transform="matrix(0.04938271604938272,0,0,0.04938271604938272,10.814814814814815,0)" xlink:href="#aB"/><use transform="matrix(0.04938271604938272,0,0,0.04938271604938272,20.69135802469136,0)" xlink:href="#aL"/><use transform="matrix(0.04938271604938272,0,0,0.04938271604938272,30.567901234567906,0)" xlink:href="#aA"/><use transform="matrix(0.04938271604938272,0,0,0.04938271604938272,35.50617283950618,0)" xlink:href="#aJ"/><use transform="matrix(0.04938271604938272,0,0,0.04938271604938272,45.38271604938272,0)" xlink:href="#aK"/><use transform="matrix(0.04938271604938272,0,0,0.04938271604938272,51.25925925925927,0)" xlink:href="#aB"/><use transform="matrix(0.04938271604938272,0,0,0.04938271604938272,61.13580246913581,0)" xlink:href="#aD"/><use transform="matrix(0.04938271604938272,0,0,0.04938271604938272,73.92592592592594,0)" xlink:href="#aE"/><use transform="matrix(0.04938271604938272,0,0,0.04938271604938272,83.80246913580248,0)" xlink:href="#aF"/><use transform="matrix(0.04938271604938272,0,0,0.04938271604938272,93.67901234567903,0)" xlink:href="#aG"/><use transform="matrix(0.04938271604938272,0,0,0.04938271604938272,98.61728395061729,0)" xlink:href="#aH"/><use transform="matrix(0.04938271604938272,0,0,0.04938271604938272,102.51851851851853,0)" xlink:href="#aI"/><use transform="matrix(0.04938271604938272,0,0,0.04938271604938272,112.39506172839508,0)" xlink:href="#aJ"/><use transform="matrix(0.04938271604938272,0,0,0.04938271604938272,122.27160493827162,0)" xlink:href="#aK"/><use transform="matrix(0.04938271604938272,0,0,0.04938271604938272,128.14814814814815,0)" xlink:href="#aL"/><use transform="matrix(0.04938271604938272,0,0,0.04938271604938272,138.0246913580247,0)" xlink:href="#aA"/><use transform="matrix(0.04938271604938272,0,0,0.04938271604938272,142.962962962963,0)" xlink:href="#aH"/><use transform="matrix(0.04938271604938272,0,0,0.04938271604938272,146.86419753086423,0)" xlink:href="#aE"/><use transform="matrix(0.04938271604938272,0,0,0.04938271604938272,156.74074074074076,0)" xlink:href="#aF"/><use transform="matrix(0.04938271604938272,0,0,0.04938271604938272,166.61728395061732,0)" xlink:href="#aM"/><use transform="matrix(0.04938271604938272,0,0,0.04938271604938272,171.5555555555556,0)" xlink:href="#aF"/><use transform="matrix(0.04938271604938272,0,0,0.04938271604938272,181.43209876543216,0)" xlink:href="#aN"/><use transform="matrix(0.04938271604938272,0,0,0.04938271604938272,191.30864197530872,0)" xlink:href="#aJ"/><use transform="matrix(0.04938271604938272,0,0,0.04938271604938272,201.18518518518528,0)" xlink:href="#aA"/><use transform="matrix(0.04938271604938272,0,0,0.04938271604938272,206.12345679012356,0)" xlink:href="#az"/></g><path d="M240 0l2-218c-23 76-54 145-80 218h-23L58-218 59 0H30v-248h44l77 211c21-75 51-140 76-211h43V0h-30" id="aW"/><g id="s"><use transform="matrix(0.04938271604938272,0,0,0.04938271604938272,0,0)" xlink:href="#aG"/><use transform="matrix(0.04938271604938272,0,0,0.04938271604938272,4.938271604938272,0)" xlink:href="#aB"/><use transform="matrix(0.04938271604938272,0,0,0.04938271604938272,14.814814814814817,0)" xlink:href="#aL"/><use transform="matrix(0.04938271604938272,0,0,0.04938271604938272,24.69135802469136,0)" xlink:href="#aA"/><use transform="matrix(0.04938271604938272,0,0,0.04938271604938272,29.629629629629633,0)" xlink:href="#aW"/><use transform="matrix(0.04938271604938272,0,0,0.04938271604938272,44.39506172839506,0)" xlink:href="#aE"/><use transform="matrix(0.04938271604938272,0,0,0.04938271604938272,54.27160493827161,0)" xlink:href="#aO"/><use transform="matrix(0.04938271604938272,0,0,0.04938271604938272,64.14814814814815,0)" xlink:href="#aB"/><use transform="matrix(0.04938271604938272,0,0,0.04938271604938272,74.0246913580247,0)" xlink:href="#aP"/><use transform="matrix(0.04938271604938272,0,0,0.04938271604938272,77.92592592592594,0)" xlink:href="#aM"/><use transform="matrix(0.04938271604938272,0,0,0.04938271604938272,82.8641975308642,0)" xlink:href="#aO"/></g><path d="M153-248C145-148 188 4 80 4 36 3 13-21 6-62l32-5c4 25 16 42 43 43 27 0 39-20 39-49v-147H72v-28h81" id="aX"/><g id="t"><use transform="matrix(0.04938271604938272,0,0,0.04938271604938272,0,0)" xlink:href="#aR"/><use transform="matrix(0.04938271604938272,0,0,0.04938271604938272,8.88888888888889,0)" xlink:href="#aE"/><use transform="matrix(0.04938271604938272,0,0,0.04938271604938272,18.765432098765434,0)" xlink:href="#aF"/><use transform="matrix(0.04938271604938272,0,0,0.04938271604938272,28.641975308641978,0)" xlink:href="#aG"/><use transform="matrix(0.04938271604938272,0,0,0.04938271604938272,33.580246913580254,0)" xlink:href="#aH"/><use transform="matrix(0.04938271604938272,0,0,0.04938271604938272,37.48148148148149,0)" xlink:href="#aI"/><use transform="matrix(0.04938271604938272,0,0,0.04938271604938272,47.35802469135803,0)" xlink:href="#aJ"/><use transform="matrix(0.04938271604938272,0,0,0.04938271604938272,57.23456790123457,0)" xlink:href="#aK"/><use transform="matrix(0.04938271604938272,0,0,0.04938271604938272,63.111111111111114,0)" xlink:href="#aL"/><use transform="matrix(0.04938271604938272,0,0,0.04938271604938272,72.98765432098767,0)" xlink:href="#aA"/><use transform="matrix(0.04938271604938272,0,0,0.04938271604938272,77.92592592592595,0)" xlink:href="#aH"/><use transform="matrix(0.04938271604938272,0,0,0.04938271604938272,81.8271604938272,0)" xlink:href="#aE"/><use transform="matrix(0.04938271604938272,0,0,0.04938271604938272,91.70370370370374,0)" xlink:href="#aF"/><use transform="matrix(0.04938271604938272,0,0,0.04938271604938272,101.58024691358028,0)" xlink:href="#aX"/><use transform="matrix(0.04938271604938272,0,0,0.04938271604938272,110.46913580246917,0)" xlink:href="#az"/><use transform="matrix(0.04938271604938272,0,0,0.04938271604938272,119.35802469135805,0)" xlink:href="#aE"/><use transform="matrix(0.04938271604938272,0,0,0.04938271604938272,129.23456790123458,0)" xlink:href="#aF"/></g><path d="M137 0h-34L2-248h35l83 218 83-218h36" id="aY"/><g id="u"><use transform="matrix(0.04938271604938272,0,0,0.04938271604938272,0,0)" xlink:href="#aY"/><use transform="matrix(0.04938271604938272,0,0,0.04938271604938272,11.209876543209878,0)" xlink:href="#aJ"/><use transform="matrix(0.04938271604938272,0,0,0.04938271604938272,21.086419753086425,0)" xlink:href="#aP"/><use transform="matrix(0.04938271604938272,0,0,0.04938271604938272,24.98765432098766,0)" xlink:href="#aF"/><use transform="matrix(0.04938271604938272,0,0,0.04938271604938272,34.8641975308642,0)" xlink:href="#aB"/><use transform="matrix(0.04938271604938272,0,0,0.04938271604938272,44.74074074074075,0)" xlink:href="#aK"/><use transform="matrix(0.04938271604938272,0,0,0.04938271604938272,50.617283950617285,0)" xlink:href="#aL"/><use transform="matrix(0.04938271604938272,0,0,0.04938271604938272,60.49382716049383,0)" xlink:href="#aQ"/><use transform="matrix(0.04938271604938272,0,0,0.04938271604938272,70.37037037037038,0)" xlink:href="#aH"/><use transform="matrix(0.04938271604938272,0,0,0.04938271604938272,74.27160493827162,0)" xlink:href="#aP"/><use transform="matrix(0.04938271604938272,0,0,0.04938271604938272,78.17283950617286,0)" xlink:href="#aH"/><use transform="matrix(0.04938271604938272,0,0,0.04938271604938272,82.0740740740741,0)" xlink:href="#aA"/><use transform="matrix(0.04938271604938272,0,0,0.04938271604938272,87.01234567901238,0)" xlink:href="#ay"/><use transform="matrix(0.04938271604938272,0,0,0.04938271604938272,95.90123456790127,0)" xlink:href="#aD"/><use transform="matrix(0.04938271604938272,0,0,0.04938271604938272,108.6913580246914,0)" xlink:href="#aE"/><use transform="matrix(0.04938271604938272,0,0,0.04938271604938272,118.56790123456793,0)" xlink:href="#aF"/><use transform="matrix(0.04938271604938272,0,0,0.04938271604938272,128.44444444444449,0)" xlink:href="#aG"/><use transform="matrix(0.04938271604938272,0,0,0.04938271604938272,133.38271604938276,0)" xlink:href="#aH"/><use transform="matrix(0.04938271604938272,0,0,0.04938271604938272,137.283950617284,0)" xlink:href="#aI"/><use transform="matrix(0.04938271604938272,0,0,0.04938271604938272,147.16049382716056,0)" xlink:href="#aJ"/><use transform="matrix(0.04938271604938272,0,0,0.04938271604938272,157.03703703703712,0)" xlink:href="#aK"/><use transform="matrix(0.04938271604938272,0,0,0.04938271604938272,162.91358024691365,0)" xlink:href="#aL"/><use transform="matrix(0.04938271604938272,0,0,0.04938271604938272,172.79012345679018,0)" xlink:href="#aA"/><use transform="matrix(0.04938271604938272,0,0,0.04938271604938272,177.72839506172846,0)" xlink:href="#aH"/><use transform="matrix(0.04938271604938272,0,0,0.04938271604938272,181.6296296296297,0)" xlink:href="#aE"/><use transform="matrix(0.04938271604938272,0,0,0.04938271604938272,191.50617283950623,0)" xlink:href="#aF"/><use transform="matrix(0.04938271604938272,0,0,0.04938271604938272,201.3827160493828,0)" xlink:href="#aM"/><use transform="matrix(0.04938271604938272,0,0,0.04938271604938272,206.3209876543211,0)" xlink:href="#aF"/><use transform="matrix(0.04938271604938272,0,0,0.04938271604938272,216.19753086419763,0)" xlink:href="#aN"/><use transform="matrix(0.04938271604938272,0,0,0.04938271604938272,226.0740740740742,0)" xlink:href="#aJ"/><use transform="matrix(0.04938271604938272,0,0,0.04938271604938272,235.95061728395072,0)" xlink:href="#aA"/><use transform="matrix(0.04938271604938272,0,0,0.04938271604938272,240.88888888888906,0)" xlink:href="#az"/></g><path d="M108 0H70L1-190h34L89-25l56-165h34" id="aZ"/><g id="v"><use transform="matrix(0.04938271604938272,0,0,0.04938271604938272,0,0)" xlink:href="#aZ"/><use transform="matrix(0.04938271604938272,0,0,0.04938271604938272,8.88888888888889,0)" xlink:href="#aJ"/><use transform="matrix(0.04938271604938272,0,0,0.04938271604938272,18.765432098765434,0)" xlink:href="#aP"/><use transform="matrix(0.04938271604938272,0,0,0.04938271604938272,22.666666666666668,0)" xlink:href="#aF"/><use transform="matrix(0.04938271604938272,0,0,0.04938271604938272,32.543209876543216,0)" xlink:href="#aD"/><use transform="matrix(0.04938271604938272,0,0,0.04938271604938272,45.33333333333334,0)" xlink:href="#aE"/><use transform="matrix(0.04938271604938272,0,0,0.04938271604938272,55.209876543209894,0)" xlink:href="#aF"/><use transform="matrix(0.04938271604938272,0,0,0.04938271604938272,65.08641975308643,0)" xlink:href="#aG"/><use transform="matrix(0.04938271604938272,0,0,0.04938271604938272,70.02469135802471,0)" xlink:href="#aH"/><use transform="matrix(0.04938271604938272,0,0,0.04938271604938272,73.92592592592595,0)" xlink:href="#aI"/><use transform="matrix(0.04938271604938272,0,0,0.04938271604938272,83.8024691358025,0)" xlink:href="#aM"/><use transform="matrix(0.04938271604938272,0,0,0.04938271604938272,88.74074074074076,0)" xlink:href="#aO"/></g><g id="w"><use transform="matrix(0.05,0,0,0.05,0,0)" xlink:href="#aR"/><use transform="matrix(0.05,0,0,0.05,9,0)" xlink:href="#aK"/><use transform="matrix(0.05,0,0,0.05,14.949999999999998,0)" xlink:href="#aB"/><use transform="matrix(0.05,0,0,0.05,24.95,0)" xlink:href="#aL"/><use transform="matrix(0.05,0,0,0.05,34.95,0)" xlink:href="#aA"/><use transform="matrix(0.05,0,0,0.05,39.95,0)" xlink:href="#aB"/><use transform="matrix(0.05,0,0,0.05,49.95,0)" xlink:href="#aO"/><use transform="matrix(0.05,0,0,0.05,59.95,0)" xlink:href="#aS"/><use transform="matrix(0.05,0,0,0.05,71.95,0)" xlink:href="#aA"/></g><g id="x"><use transform="matrix(0.04938271604938272,0,0,0.04938271604938272,0,0)" xlink:href="#aR"/><use transform="matrix(0.04938271604938272,0,0,0.04938271604938272,8.88888888888889,0)" xlink:href="#aE"/><use transform="matrix(0.04938271604938272,0,0,0.04938271604938272,18.765432098765434,0)" xlink:href="#aF"/><use transform="matrix(0.04938271604938272,0,0,0.04938271604938272,28.641975308641978,0)" xlink:href="#aG"/><use transform="matrix(0.04938271604938272,0,0,0.04938271604938272,33.580246913580254,0)" xlink:href="#aH"/><use transform="matrix(0.04938271604938272,0,0,0.04938271604938272,37.48148148148149,0)" xlink:href="#aI"/><use transform="matrix(0.04938271604938272,0,0,0.04938271604938272,47.35802469135803,0)" xlink:href="#aJ"/><use transform="matrix(0.04938271604938272,0,0,0.04938271604938272,57.23456790123457,0)" xlink:href="#aK"/><use transform="matrix(0.04938271604938272,0,0,0.04938271604938272,63.111111111111114,0)" xlink:href="#aL"/><use transform="matrix(0.04938271604938272,0,0,0.04938271604938272,72.98765432098767,0)" xlink:href="#aA"/><use transform="matrix(0.04938271604938272,0,0,0.04938271604938272,77.92592592592595,0)" xlink:href="#aH"/><use transform="matrix(0.04938271604938272,0,0,0.04938271604938272,81.8271604938272,0)" xlink:href="#aE"/><use transform="matrix(0.04938271604938272,0,0,0.04938271604938272,91.70370370370374,0)" xlink:href="#aF"/></g><g id="y"><use transform="matrix(0.04938271604938272,0,0,0.04938271604938272,0,0)" xlink:href="#aS"/><use transform="matrix(0.04938271604938272,0,0,0.04938271604938272,11.851851851851853,0)" xlink:href="#aK"/><use transform="matrix(0.04938271604938272,0,0,0.04938271604938272,17.728395061728396,0)" xlink:href="#aR"/><use transform="matrix(0.04938271604938272,0,0,0.04938271604938272,26.617283950617285,0)" xlink:href="#aT"/><use transform="matrix(0.04938271604938272,0,0,0.04938271604938272,36.49382716049383,0)" xlink:href="#aH"/><use transform="matrix(0.04938271604938272,0,0,0.04938271604938272,40.39506172839506,0)" xlink:href="#aA"/><use transform="matrix(0.04938271604938272,0,0,0.04938271604938272,45.333333333333336,0)" xlink:href="#aB"/><use transform="matrix(0.04938271604938272,0,0,0.04938271604938272,55.20987654320988,0)" xlink:href="#aR"/><use transform="matrix(0.04938271604938272,0,0,0.04938271604938272,64.09876543209877,0)" xlink:href="#aA"/><use transform="matrix(0.04938271604938272,0,0,0.04938271604938272,69.03703703703704,0)" xlink:href="#aJ"/><use transform="matrix(0.04938271604938272,0,0,0.04938271604938272,78.91358024691358,0)" xlink:href="#aK"/><use transform="matrix(0.04938271604938272,0,0,0.04938271604938272,84.79012345679013,0)" xlink:href="#aB"/><use transform="matrix(0.04938271604938272,0,0,0.04938271604938272,94.66666666666667,0)" xlink:href="#aW"/><use transform="matrix(0.04938271604938272,0,0,0.04938271604938272,109.4320987654321,0)" xlink:href="#aE"/><use transform="matrix(0.04938271604938272,0,0,0.04938271604938272,119.30864197530865,0)" xlink:href="#aO"/><use transform="matrix(0.04938271604938272,0,0,0.04938271604938272,129.1851851851852,0)" xlink:href="#aB"/><use transform="matrix(0.04938271604938272,0,0,0.04938271604938272,139.06172839506172,0)" xlink:href="#aP"/><use transform="matrix(0.04938271604938272,0,0,0.04938271604938272,142.96296296296296,0)" xlink:href="#aM"/><use transform="matrix(0.04938271604938272,0,0,0.04938271604938272,147.90123456790124,0)" xlink:href="#aF"/><use transform="matrix(0.04938271604938272,0,0,0.04938271604938272,157.77777777777777,0)" xlink:href="#aN"/><use transform="matrix(0.04938271604938272,0,0,0.04938271604938272,167.65432098765433,0)" xlink:href="#aJ"/><use transform="matrix(0.04938271604938272,0,0,0.04938271604938272,177.5308641975309,0)" xlink:href="#aA"/><use transform="matrix(0.04938271604938272,0,0,0.04938271604938272,182.46913580246917,0)" xlink:href="#az"/></g><g id="z"><use transform="matrix(0.05,0,0,0.05,0,0)" xlink:href="#aL"/><use transform="matrix(0.05,0,0,0.05,10,0)" xlink:href="#aK"/><use transform="matrix(0.05,0,0,0.05,15.949999999999998,0)" xlink:href="#aR"/><use transform="matrix(0.05,0,0,0.05,24.95,0)" xlink:href="#aT"/><use transform="matrix(0.05,0,0,0.05,34.95,0)" xlink:href="#aW"/><use transform="matrix(0.05,0,0,0.05,49.900000000000006,0)" xlink:href="#aE"/><use transform="matrix(0.05,0,0,0.05,59.900000000000006,0)" xlink:href="#aO"/><use transform="matrix(0.05,0,0,0.05,69.9,0)" xlink:href="#aB"/><use transform="matrix(0.05,0,0,0.05,79.9,0)" xlink:href="#aP"/><use transform="matrix(0.05,0,0,0.05,83.85000000000001,0)" xlink:href="#aM"/><use transform="matrix(0.05,0,0,0.05,88.85000000000001,0)" xlink:href="#aO"/></g><g id="A"><use transform="matrix(0.05,0,0,0.05,0,0)" xlink:href="#aP"/><use transform="matrix(0.05,0,0,0.05,3.95,0)" xlink:href="#aL"/><use transform="matrix(0.05,0,0,0.05,13.949999999999998,0)" xlink:href="#aQ"/><use transform="matrix(0.05,0,0,0.05,23.95,0)" xlink:href="#aB"/><use transform="matrix(0.05,0,0,0.05,33.95,0)" xlink:href="#aP"/></g><g id="B"><use transform="matrix(0.04938271604938272,0,0,0.04938271604938272,0,0)" xlink:href="#aV"/><use transform="matrix(0.04938271604938272,0,0,0.04938271604938272,10.814814814814815,0)" xlink:href="#aB"/><use transform="matrix(0.04938271604938272,0,0,0.04938271604938272,20.69135802469136,0)" xlink:href="#aL"/><use transform="matrix(0.04938271604938272,0,0,0.04938271604938272,30.567901234567906,0)" xlink:href="#aA"/><use transform="matrix(0.04938271604938272,0,0,0.04938271604938272,35.50617283950618,0)" xlink:href="#aJ"/><use transform="matrix(0.04938271604938272,0,0,0.04938271604938272,45.38271604938272,0)" xlink:href="#aK"/><use transform="matrix(0.04938271604938272,0,0,0.04938271604938272,51.25925925925927,0)" xlink:href="#aB"/><use transform="matrix(0.04938271604938272,0,0,0.04938271604938272,61.13580246913581,0)" xlink:href="#aW"/><use transform="matrix(0.04938271604938272,0,0,0.04938271604938272,75.90123456790124,0)" xlink:href="#aE"/><use transform="matrix(0.04938271604938272,0,0,0.04938271604938272,85.77777777777779,0)" xlink:href="#aO"/><use transform="matrix(0.04938271604938272,0,0,0.04938271604938272,95.65432098765433,0)" xlink:href="#aB"/><use transform="matrix(0.04938271604938272,0,0,0.04938271604938272,105.53086419753087,0)" xlink:href="#aP"/><use transform="matrix(0.04938271604938272,0,0,0.04938271604938272,109.4320987654321,0)" xlink:href="#aM"/><use transform="matrix(0.04938271604938272,0,0,0.04938271604938272,114.37037037037038,0)" xlink:href="#aF"/><use transform="matrix(0.04938271604938272,0,0,0.04938271604938272,124.24691358024693,0)" xlink:href="#aN"/><use transform="matrix(0.04938271604938272,0,0,0.04938271604938272,134.12345679012347,0)" xlink:href="#aJ"/><use transform="matrix(0.04938271604938272,0,0,0.04938271604938272,144,0)" xlink:href="#aA"/><use transform="matrix(0.04938271604938272,0,0,0.04938271604938272,148.93827160493828,0)" xlink:href="#az"/></g><g id="C"><use transform="matrix(0.05,0,0,0.05,0,0)" xlink:href="#aG"/><use transform="matrix(0.05,0,0,0.05,5,0)" xlink:href="#aB"/><use transform="matrix(0.05,0,0,0.05,15,0)" xlink:href="#aL"/><use transform="matrix(0.05,0,0,0.05,25,0)" xlink:href="#aA"/><use transform="matrix(0.05,0,0,0.05,30,0)" xlink:href="#aW"/><use transform="matrix(0.05,0,0,0.05,44.95,0)" xlink:href="#aE"/><use transform="matrix(0.05,0,0,0.05,54.95,0)" xlink:href="#aO"/><use transform="matrix(0.05,0,0,0.05,64.95,0)" xlink:href="#aB"/><use transform="matrix(0.05,0,0,0.05,74.95,0)" xlink:href="#aP"/><use transform="matrix(0.05,0,0,0.05,78.9,0)" xlink:href="#aM"/><use transform="matrix(0.05,0,0,0.05,83.9,0)" xlink:href="#aO"/></g><path d="M127-220V0H93v-220H8v-28h204v28h-85" id="ba"/><path d="M233-177c-1 41-23 64-60 70L243 0h-38l-65-103H63V0H30v-248c88 3 205-21 203 71zM63-129c60-2 137 13 137-47 0-61-80-42-137-45v92" id="bb"/><g id="D"><use transform="matrix(0.04938271604938272,0,0,0.04938271604938272,0,0)" xlink:href="#ba"/><use transform="matrix(0.04938271604938272,0,0,0.04938271604938272,8.839506172839506,0)" xlink:href="#aB"/><use transform="matrix(0.04938271604938272,0,0,0.04938271604938272,18.71604938271605,0)" xlink:href="#az"/><use transform="matrix(0.04938271604938272,0,0,0.04938271604938272,27.60493827160494,0)" xlink:href="#aA"/><use transform="matrix(0.04938271604938272,0,0,0.04938271604938272,32.543209876543216,0)" xlink:href="#bb"/><use transform="matrix(0.04938271604938272,0,0,0.04938271604938272,45.33333333333334,0)" xlink:href="#aJ"/><use transform="matrix(0.04938271604938272,0,0,0.04938271604938272,55.209876543209894,0)" xlink:href="#aF"/><use transform="matrix(0.04938271604938272,0,0,0.04938271604938272,65.08641975308643,0)" xlink:href="#aM"/><use transform="matrix(0.04938271604938272,0,0,0.04938271604938272,70.02469135802471,0)" xlink:href="#aF"/><use transform="matrix(0.04938271604938272,0,0,0.04938271604938272,79.90123456790126,0)" xlink:href="#aN"/><use transform="matrix(0.04938271604938272,0,0,0.04938271604938272,89.7777777777778,0)" xlink:href="#aJ"/><use transform="matrix(0.04938271604938272,0,0,0.04938271604938272,99.65432098765434,0)" xlink:href="#aA"/><use transform="matrix(0.04938271604938272,0,0,0.04938271604938272,104.5925925925926,0)" xlink:href="#az"/></g><g id="E"><use transform="matrix(0.05,0,0,0.05,0,0)" xlink:href="#aA"/><use transform="matrix(0.05,0,0,0.05,5,0)" xlink:href="#aB"/><use transform="matrix(0.05,0,0,0.05,15,0)" xlink:href="#az"/><use transform="matrix(0.05,0,0,0.05,24,0)" xlink:href="#aA"/><use transform="matrix(0.05,0,0,0.05,29,0)" xlink:href="#bb"/><use transform="matrix(0.05,0,0,0.05,41.95,0)" xlink:href="#aJ"/><use transform="matrix(0.05,0,0,0.05,51.95,0)" xlink:href="#aF"/><use transform="matrix(0.05,0,0,0.05,61.95,0)" xlink:href="#aM"/><use transform="matrix(0.05,0,0,0.05,66.95,0)" xlink:href="#aO"/></g><g id="F"><use transform="matrix(0.05,0,0,0.05,0,0)" xlink:href="#aJ"/><use transform="matrix(0.05,0,0,0.05,10,0)" xlink:href="#aN"/><use transform="matrix(0.05,0,0,0.05,20,0)" xlink:href="#aO"/><use transform="matrix(0.05,0,0,0.05,30,0)" xlink:href="#aL"/><use transform="matrix(0.05,0,0,0.05,40,0)" xlink:href="#aA"/><use transform="matrix(0.05,0,0,0.05,45,0)" xlink:href="#aB"/><use transform="matrix(0.05,0,0,0.05,55,0)" xlink:href="#aO"/><use transform="matrix(0.05,0,0,0.05,65,0)" xlink:href="#aS"/><use transform="matrix(0.05,0,0,0.05,75.65,0)" xlink:href="#ba"/></g><g id="G"><use transform="matrix(0.05,0,0,0.05,0,0)" xlink:href="#az"/><use transform="matrix(0.05,0,0,0.05,9,0)" xlink:href="#ay"/><use transform="matrix(0.05,0,0,0.05,18,0)" xlink:href="#az"/><use transform="matrix(0.05,0,0,0.05,27,0)" xlink:href="#aD"/><use transform="matrix(0.05,0,0,0.05,39.95,0)" xlink:href="#aE"/><use transform="matrix(0.05,0,0,0.05,49.95,0)" xlink:href="#aF"/><use transform="matrix(0.05,0,0,0.05,59.95,0)" xlink:href="#aG"/><use transform="matrix(0.05,0,0,0.05,64.95,0)" xlink:href="#aH"/><use transform="matrix(0.05,0,0,0.05,68.9,0)" xlink:href="#aI"/><use transform="matrix(0.05,0,0,0.05,78.9,0)" xlink:href="#aM"/><use transform="matrix(0.05,0,0,0.05,83.9,0)" xlink:href="#aO"/></g><g id="H"><use transform="matrix(0.04938271604938272,0,0,0.04938271604938272,0,0)" xlink:href="#aX"/><use transform="matrix(0.04938271604938272,0,0,0.04938271604938272,8.88888888888889,0)" xlink:href="#aE"/><use transform="matrix(0.04938271604938272,0,0,0.04938271604938272,18.765432098765434,0)" xlink:href="#aQ"/></g><path d="M24-231v-30h32v30H24zM-9 49c24 4 33-6 33-30v-209h32V24c2 40-23 58-65 49V49" id="bc"/><g id="I"><use transform="matrix(0.05,0,0,0.05,0,0)" xlink:href="#bc"/><use transform="matrix(0.05,0,0,0.05,3.95,0)" xlink:href="#aE"/><use transform="matrix(0.05,0,0,0.05,13.949999999999998,0)" xlink:href="#aQ"/><use transform="matrix(0.05,0,0,0.05,23.95,0)" xlink:href="#aM"/><use transform="matrix(0.05,0,0,0.05,28.950000000000003,0)" xlink:href="#aO"/></g><g id="J"><use transform="matrix(0.05,0,0,0.05,0,0)" xlink:href="#az"/><use transform="matrix(0.05,0,0,0.05,9,0)" xlink:href="#aA"/><use transform="matrix(0.05,0,0,0.05,14,0)" xlink:href="#aL"/><use transform="matrix(0.05,0,0,0.05,24,0)" xlink:href="#aA"/><use transform="matrix(0.05,0,0,0.05,29,0)" xlink:href="#aJ"/><use transform="matrix(0.05,0,0,0.05,39,0)" xlink:href="#az"/><use transform="matrix(0.05,0,0,0.05,48,0)" xlink:href="#aM"/><use transform="matrix(0.05,0,0,0.05,53,0)" xlink:href="#aO"/></g><path d="M30-248c87 1 191-15 191 75 0 78-77 80-158 76V0H30v-248zm33 125c57 0 124 11 124-50 0-59-68-47-124-48v98" id="bd"/><g id="K"><use transform="matrix(0.05,0,0,0.05,0,0)" xlink:href="#aO"/><use transform="matrix(0.05,0,0,0.05,10,0)" xlink:href="#aB"/><use transform="matrix(0.05,0,0,0.05,20,0)" xlink:href="#aK"/><use transform="matrix(0.05,0,0,0.05,25.950000000000003,0)" xlink:href="#aH"/><use transform="matrix(0.05,0,0,0.05,29.899999999999995,0)" xlink:href="#aZ"/><use transform="matrix(0.05,0,0,0.05,38.9,0)" xlink:href="#aL"/><use transform="matrix(0.05,0,0,0.05,48.9,0)" xlink:href="#aA"/><use transform="matrix(0.05,0,0,0.05,53.900000000000006,0)" xlink:href="#aH"/><use transform="matrix(0.05,0,0,0.05,57.85,0)" xlink:href="#aE"/><use transform="matrix(0.05,0,0,0.05,67.85,0)" xlink:href="#aF"/><use transform="matrix(0.05,0,0,0.05,77.85,0)" xlink:href="#aV"/><use transform="matrix(0.05,0,0,0.05,88.8,0)" xlink:href="#aH"/><use transform="matrix(0.05,0,0,0.05,92.75,0)" xlink:href="#aP"/><use transform="matrix(0.05,0,0,0.05,96.7,0)" xlink:href="#aB"/><use transform="matrix(0.05,0,0,0.05,106.7,0)" xlink:href="#bd"/><use transform="matrix(0.05,0,0,0.05,118.7,0)" xlink:href="#aL"/><use transform="matrix(0.05,0,0,0.05,128.7,0)" xlink:href="#aA"/><use transform="matrix(0.05,0,0,0.05,133.7,0)" xlink:href="#aT"/></g><g id="L"><use transform="matrix(0.05,0,0,0.05,0,0)" xlink:href="#aF"/><use transform="matrix(0.05,0,0,0.05,10,0)" xlink:href="#aH"/><use transform="matrix(0.05,0,0,0.05,13.949999999999998,0)" xlink:href="#aU"/><use transform="matrix(0.05,0,0,0.05,22.95,0)" xlink:href="#ax"/><use transform="matrix(0.05,0,0,0.05,34.95,0)" xlink:href="#aA"/><use transform="matrix(0.05,0,0,0.05,39.95,0)" xlink:href="#aE"/><use transform="matrix(0.05,0,0,0.05,49.95,0)" xlink:href="#aK"/><use transform="matrix(0.05,0,0,0.05,55.900000000000006,0)" xlink:href="#aB"/><use transform="matrix(0.05,0,0,0.05,65.9,0)" xlink:href="#bd"/><use transform="matrix(0.05,0,0,0.05,77.9,0)" xlink:href="#aL"/><use transform="matrix(0.05,0,0,0.05,87.9,0)" xlink:href="#aA"/><use transform="matrix(0.05,0,0,0.05,92.9,0)" xlink:href="#aT"/></g><g id="M"><use transform="matrix(0.05,0,0,0.05,0,0)" xlink:href="#aP"/><use transform="matrix(0.05,0,0,0.05,3.95,0)" xlink:href="#aE"/><use transform="matrix(0.05,0,0,0.05,13.949999999999998,0)" xlink:href="#aI"/><use transform="matrix(0.05,0,0,0.05,23.95,0)" xlink:href="#aV"/><use transform="matrix(0.05,0,0,0.05,34.9,0)" xlink:href="#aH"/><use transform="matrix(0.05,0,0,0.05,38.85,0)" xlink:href="#aP"/><use transform="matrix(0.05,0,0,0.05,42.800000000000004,0)" xlink:href="#aB"/><use transform="matrix(0.05,0,0,0.05,52.800000000000004,0)" xlink:href="#bd"/><use transform="matrix(0.05,0,0,0.05,64.80000000000001,0)" xlink:href="#aL"/><use transform="matrix(0.05,0,0,0.05,74.80000000000001,0)" xlink:href="#aA"/><use transform="matrix(0.05,0,0,0.05,79.80000000000001,0)" xlink:href="#aT"/></g><g id="N"><use transform="matrix(0.04938271604938272,0,0,0.04938271604938272,0,0)" xlink:href="#aX"/><use transform="matrix(0.04938271604938272,0,0,0.04938271604938272,8.88888888888889,0)" xlink:href="#aE"/><use transform="matrix(0.04938271604938272,0,0,0.04938271604938272,18.765432098765434,0)" xlink:href="#aQ"/><use transform="matrix(0.04938271604938272,0,0,0.04938271604938272,28.641975308641978,0)" xlink:href="#ax"/><use transform="matrix(0.04938271604938272,0,0,0.04938271604938272,40.49382716049383,0)" xlink:href="#aA"/><use transform="matrix(0.04938271604938272,0,0,0.04938271604938272,45.4320987654321,0)" xlink:href="#aL"/><use transform="matrix(0.04938271604938272,0,0,0.04938271604938272,55.308641975308646,0)" xlink:href="#aA"/><use transform="matrix(0.04938271604938272,0,0,0.04938271604938272,60.24691358024692,0)" xlink:href="#aJ"/><use transform="matrix(0.04938271604938272,0,0,0.04938271604938272,70.12345679012347,0)" xlink:href="#az"/></g><path d="M30 0v-248h187v28H63v79h144v27H63v87h162V0H30" id="be"/><g id="O"><use transform="matrix(0.04938271604938272,0,0,0.04938271604938272,0,0)" xlink:href="#aS"/><use transform="matrix(0.04938271604938272,0,0,0.04938271604938272,11.851851851851853,0)" xlink:href="#aK"/><use transform="matrix(0.04938271604938272,0,0,0.04938271604938272,17.728395061728396,0)" xlink:href="#aR"/><use transform="matrix(0.04938271604938272,0,0,0.04938271604938272,26.617283950617285,0)" xlink:href="#aT"/><use transform="matrix(0.04938271604938272,0,0,0.04938271604938272,36.49382716049383,0)" xlink:href="#aH"/><use transform="matrix(0.04938271604938272,0,0,0.04938271604938272,40.39506172839506,0)" xlink:href="#aA"/><use transform="matrix(0.04938271604938272,0,0,0.04938271604938272,45.333333333333336,0)" xlink:href="#aB"/><use transform="matrix(0.04938271604938272,0,0,0.04938271604938272,55.20987654320988,0)" xlink:href="#aR"/><use transform="matrix(0.04938271604938272,0,0,0.04938271604938272,64.09876543209877,0)" xlink:href="#aA"/><use transform="matrix(0.04938271604938272,0,0,0.04938271604938272,69.03703703703704,0)" xlink:href="#aJ"/><use transform="matrix(0.04938271604938272,0,0,0.04938271604938272,78.91358024691358,0)" xlink:href="#aK"/><use transform="matrix(0.04938271604938272,0,0,0.04938271604938272,84.79012345679013,0)" xlink:href="#aB"/><use transform="matrix(0.04938271604938272,0,0,0.04938271604938272,94.66666666666667,0)" xlink:href="#be"/><use transform="matrix(0.04938271604938272,0,0,0.04938271604938272,106.51851851851853,0)" xlink:href="#aU"/><use transform="matrix(0.04938271604938272,0,0,0.04938271604938272,115.40740740740739,0)" xlink:href="#aA"/><use transform="matrix(0.04938271604938272,0,0,0.04938271604938272,120.34567901234567,0)" xlink:href="#aK"/><use transform="matrix(0.04938271604938272,0,0,0.04938271604938272,126.22222222222221,0)" xlink:href="#aL"/><use transform="matrix(0.04938271604938272,0,0,0.04938271604938272,136.09876543209876,0)" xlink:href="#aR"/><use transform="matrix(0.04938271604938272,0,0,0.04938271604938272,144.98765432098764,0)" xlink:href="#aA"/><use transform="matrix(0.04938271604938272,0,0,0.04938271604938272,149.92592592592592,0)" xlink:href="#aH"/><use transform="matrix(0.04938271604938272,0,0,0.04938271604938272,153.82716049382717,0)" xlink:href="#aE"/><use transform="matrix(0.04938271604938272,0,0,0.04938271604938272,163.7037037037037,0)" xlink:href="#aF"/><use transform="matrix(0.04938271604938272,0,0,0.04938271604938272,173.58024691358025,0)" xlink:href="#aX"/><use transform="matrix(0.04938271604938272,0,0,0.04938271604938272,182.46913580246914,0)" xlink:href="#aE"/><use transform="matrix(0.04938271604938272,0,0,0.04938271604938272,192.34567901234567,0)" xlink:href="#aQ"/></g><g id="P"><use transform="matrix(0.04938271604938272,0,0,0.04938271604938272,0,0)" xlink:href="#aV"/><use transform="matrix(0.04938271604938272,0,0,0.04938271604938272,10.814814814814815,0)" xlink:href="#aB"/><use transform="matrix(0.04938271604938272,0,0,0.04938271604938272,20.69135802469136,0)" xlink:href="#aL"/><use transform="matrix(0.04938271604938272,0,0,0.04938271604938272,30.567901234567906,0)" xlink:href="#aA"/><use transform="matrix(0.04938271604938272,0,0,0.04938271604938272,35.50617283950618,0)" xlink:href="#aJ"/><use transform="matrix(0.04938271604938272,0,0,0.04938271604938272,45.38271604938272,0)" xlink:href="#aK"/><use transform="matrix(0.04938271604938272,0,0,0.04938271604938272,51.25925925925927,0)" xlink:href="#aB"/><use transform="matrix(0.04938271604938272,0,0,0.04938271604938272,61.13580246913581,0)" xlink:href="#be"/><use transform="matrix(0.04938271604938272,0,0,0.04938271604938272,72.98765432098766,0)" xlink:href="#aU"/><use transform="matrix(0.04938271604938272,0,0,0.04938271604938272,81.87654320987654,0)" xlink:href="#aA"/><use transform="matrix(0.04938271604938272,0,0,0.04938271604938272,86.81481481481481,0)" xlink:href="#aK"/><use transform="matrix(0.04938271604938272,0,0,0.04938271604938272,92.69135802469135,0)" xlink:href="#aL"/><use transform="matrix(0.04938271604938272,0,0,0.04938271604938272,102.56790123456788,0)" xlink:href="#aR"/><use transform="matrix(0.04938271604938272,0,0,0.04938271604938272,111.45679012345678,0)" xlink:href="#aA"/><use transform="matrix(0.04938271604938272,0,0,0.04938271604938272,116.39506172839508,0)" xlink:href="#aH"/><use transform="matrix(0.04938271604938272,0,0,0.04938271604938272,120.2962962962963,0)" xlink:href="#aE"/><use transform="matrix(0.04938271604938272,0,0,0.04938271604938272,130.17283950617286,0)" xlink:href="#aF"/><use transform="matrix(0.04938271604938272,0,0,0.04938271604938272,140.04938271604942,0)" xlink:href="#aX"/><use transform="matrix(0.04938271604938272,0,0,0.04938271604938272,148.9382716049383,0)" xlink:href="#aE"/><use transform="matrix(0.04938271604938272,0,0,0.04938271604938272,158.81481481481484,0)" xlink:href="#aQ"/></g><g id="Q"><use transform="matrix(0.04938271604938272,0,0,0.04938271604938272,0,0)" xlink:href="#aY"/><use transform="matrix(0.04938271604938272,0,0,0.04938271604938272,11.209876543209878,0)" xlink:href="#aJ"/><use transform="matrix(0.04938271604938272,0,0,0.04938271604938272,21.086419753086425,0)" xlink:href="#aP"/><use transform="matrix(0.04938271604938272,0,0,0.04938271604938272,24.98765432098766,0)" xlink:href="#aF"/><use transform="matrix(0.04938271604938272,0,0,0.04938271604938272,34.8641975308642,0)" xlink:href="#aB"/><use transform="matrix(0.04938271604938272,0,0,0.04938271604938272,44.74074074074075,0)" xlink:href="#aK"/><use transform="matrix(0.04938271604938272,0,0,0.04938271604938272,50.617283950617285,0)" xlink:href="#aL"/><use transform="matrix(0.04938271604938272,0,0,0.04938271604938272,60.49382716049383,0)" xlink:href="#aQ"/><use transform="matrix(0.04938271604938272,0,0,0.04938271604938272,70.37037037037038,0)" xlink:href="#aH"/><use transform="matrix(0.04938271604938272,0,0,0.04938271604938272,74.27160493827162,0)" xlink:href="#aP"/><use transform="matrix(0.04938271604938272,0,0,0.04938271604938272,78.17283950617286,0)" xlink:href="#aH"/><use transform="matrix(0.04938271604938272,0,0,0.04938271604938272,82.0740740740741,0)" xlink:href="#aA"/><use transform="matrix(0.04938271604938272,0,0,0.04938271604938272,87.01234567901238,0)" xlink:href="#ay"/><use transform="matrix(0.04938271604938272,0,0,0.04938271604938272,95.90123456790127,0)" xlink:href="#aD"/><use transform="matrix(0.04938271604938272,0,0,0.04938271604938272,108.6913580246914,0)" xlink:href="#aE"/><use transform="matrix(0.04938271604938272,0,0,0.04938271604938272,118.56790123456793,0)" xlink:href="#aF"/><use transform="matrix(0.04938271604938272,0,0,0.04938271604938272,128.44444444444449,0)" xlink:href="#aG"/><use transform="matrix(0.04938271604938272,0,0,0.04938271604938272,133.38271604938276,0)" xlink:href="#aH"/><use transform="matrix(0.04938271604938272,0,0,0.04938271604938272,137.283950617284,0)" xlink:href="#aI"/><use transform="matrix(0.04938271604938272,0,0,0.04938271604938272,147.16049382716056,0)" xlink:href="#aJ"/><use transform="matrix(0.04938271604938272,0,0,0.04938271604938272,157.03703703703712,0)" xlink:href="#aK"/><use transform="matrix(0.04938271604938272,0,0,0.04938271604938272,162.91358024691365,0)" xlink:href="#aL"/><use transform="matrix(0.04938271604938272,0,0,0.04938271604938272,172.79012345679018,0)" xlink:href="#aA"/><use transform="matrix(0.04938271604938272,0,0,0.04938271604938272,177.72839506172846,0)" xlink:href="#aH"/><use transform="matrix(0.04938271604938272,0,0,0.04938271604938272,181.6296296296297,0)" xlink:href="#aE"/><use transform="matrix(0.04938271604938272,0,0,0.04938271604938272,191.50617283950623,0)" xlink:href="#aF"/><use transform="matrix(0.04938271604938272,0,0,0.04938271604938272,201.3827160493828,0)" xlink:href="#aX"/><use transform="matrix(0.04938271604938272,0,0,0.04938271604938272,210.27160493827168,0)" xlink:href="#aE"/><use transform="matrix(0.04938271604938272,0,0,0.04938271604938272,220.1481481481482,0)" xlink:href="#aQ"/></g><g id="R"><use transform="matrix(0.05,0,0,0.05,0,0)" xlink:href="#aZ"/><use transform="matrix(0.05,0,0,0.05,9,0)" xlink:href="#aJ"/><use transform="matrix(0.05,0,0,0.05,19,0)" xlink:href="#aP"/><use transform="matrix(0.05,0,0,0.05,22.95,0)" xlink:href="#aF"/><use transform="matrix(0.05,0,0,0.05,32.95,0)" xlink:href="#aD"/><use transform="matrix(0.05,0,0,0.05,45.900000000000006,0)" xlink:href="#aE"/><use transform="matrix(0.05,0,0,0.05,55.900000000000006,0)" xlink:href="#aF"/><use transform="matrix(0.05,0,0,0.05,65.9,0)" xlink:href="#aG"/><use transform="matrix(0.05,0,0,0.05,70.9,0)" xlink:href="#aH"/><use transform="matrix(0.05,0,0,0.05,74.85000000000001,0)" xlink:href="#aI"/><use transform="matrix(0.05,0,0,0.05,84.85000000000001,0)" xlink:href="#aM"/><use transform="matrix(0.05,0,0,0.05,89.85000000000001,0)" xlink:href="#aO"/></g><g id="S"><use transform="matrix(0.04938271604938272,0,0,0.04938271604938272,0,0)" xlink:href="#ax"/><use transform="matrix(0.04938271604938272,0,0,0.04938271604938272,11.851851851851853,0)" xlink:href="#ay"/><use transform="matrix(0.04938271604938272,0,0,0.04938271604938272,20.74074074074074,0)" xlink:href="#az"/><use transform="matrix(0.04938271604938272,0,0,0.04938271604938272,29.629629629629633,0)" xlink:href="#aA"/><use transform="matrix(0.04938271604938272,0,0,0.04938271604938272,34.5679012345679,0)" xlink:href="#aB"/><use transform="matrix(0.04938271604938272,0,0,0.04938271604938272,44.44444444444444,0)" xlink:href="#aC"/><use transform="matrix(0.04938271604938272,0,0,0.04938271604938272,59.20987654320987,0)" xlink:href="#aD"/><use transform="matrix(0.04938271604938272,0,0,0.04938271604938272,72,0)" xlink:href="#aE"/><use transform="matrix(0.04938271604938272,0,0,0.04938271604938272,81.87654320987654,0)" xlink:href="#aF"/><use transform="matrix(0.04938271604938272,0,0,0.04938271604938272,91.75308641975309,0)" xlink:href="#aG"/><use transform="matrix(0.04938271604938272,0,0,0.04938271604938272,96.69135802469137,0)" xlink:href="#aH"/><use transform="matrix(0.04938271604938272,0,0,0.04938271604938272,100.59259259259261,0)" xlink:href="#aI"/><use transform="matrix(0.04938271604938272,0,0,0.04938271604938272,110.46913580246914,0)" xlink:href="#aJ"/><use transform="matrix(0.04938271604938272,0,0,0.04938271604938272,120.34567901234568,0)" xlink:href="#aK"/><use transform="matrix(0.04938271604938272,0,0,0.04938271604938272,126.22222222222223,0)" xlink:href="#aL"/><use transform="matrix(0.04938271604938272,0,0,0.04938271604938272,136.0987654320988,0)" xlink:href="#aA"/><use transform="matrix(0.04938271604938272,0,0,0.04938271604938272,141.03703703703707,0)" xlink:href="#aH"/><use transform="matrix(0.04938271604938272,0,0,0.04938271604938272,144.9382716049383,0)" xlink:href="#aE"/><use transform="matrix(0.04938271604938272,0,0,0.04938271604938272,154.81481481481484,0)" xlink:href="#aF"/><use transform="matrix(0.04938271604938272,0,0,0.04938271604938272,164.6913580246914,0)" xlink:href="#aX"/><use transform="matrix(0.04938271604938272,0,0,0.04938271604938272,173.58024691358028,0)" xlink:href="#aE"/><use transform="matrix(0.04938271604938272,0,0,0.04938271604938272,183.4567901234568,0)" xlink:href="#aQ"/></g><g id="T"><use transform="matrix(0.04938271604938272,0,0,0.04938271604938272,0,0)" xlink:href="#ba"/><use transform="matrix(0.04938271604938272,0,0,0.04938271604938272,8.839506172839506,0)" xlink:href="#aB"/><use transform="matrix(0.04938271604938272,0,0,0.04938271604938272,18.71604938271605,0)" xlink:href="#az"/><use transform="matrix(0.04938271604938272,0,0,0.04938271604938272,27.60493827160494,0)" xlink:href="#aA"/><use transform="matrix(0.04938271604938272,0,0,0.04938271604938272,32.543209876543216,0)" xlink:href="#bb"/><use transform="matrix(0.04938271604938272,0,0,0.04938271604938272,45.33333333333334,0)" xlink:href="#aJ"/><use transform="matrix(0.04938271604938272,0,0,0.04938271604938272,55.209876543209894,0)" xlink:href="#aF"/><use transform="matrix(0.04938271604938272,0,0,0.04938271604938272,65.08641975308643,0)" xlink:href="#aX"/><use transform="matrix(0.04938271604938272,0,0,0.04938271604938272,73.97530864197532,0)" xlink:href="#aE"/><use transform="matrix(0.04938271604938272,0,0,0.04938271604938272,83.85185185185186,0)" xlink:href="#aQ"/></g><g id="U"><use transform="matrix(0.04938271604938272,0,0,0.04938271604938272,0,0)" xlink:href="#aY"/><use transform="matrix(0.04938271604938272,0,0,0.04938271604938272,10.864197530864198,0)" xlink:href="#aB"/><use transform="matrix(0.04938271604938272,0,0,0.04938271604938272,20.74074074074074,0)" xlink:href="#aK"/><use transform="matrix(0.04938271604938272,0,0,0.04938271604938272,26.617283950617285,0)" xlink:href="#az"/><use transform="matrix(0.04938271604938272,0,0,0.04938271604938272,35.50617283950618,0)" xlink:href="#aH"/><use transform="matrix(0.04938271604938272,0,0,0.04938271604938272,39.40740740740741,0)" xlink:href="#aE"/><use transform="matrix(0.04938271604938272,0,0,0.04938271604938272,49.283950617283956,0)" xlink:href="#aF"/><use transform="matrix(0.04938271604938272,0,0,0.04938271604938272,59.1604938271605,0)" xlink:href="#aB"/><use transform="matrix(0.04938271604938272,0,0,0.04938271604938272,69.03703703703704,0)" xlink:href="#aO"/><use transform="matrix(0.04938271604938272,0,0,0.04938271604938272,78.91358024691358,0)" xlink:href="#bb"/><use transform="matrix(0.04938271604938272,0,0,0.04938271604938272,91.70370370370371,0)" xlink:href="#aB"/><use transform="matrix(0.04938271604938272,0,0,0.04938271604938272,101.58024691358025,0)" xlink:href="#az"/><use transform="matrix(0.04938271604938272,0,0,0.04938271604938272,110.46913580246914,0)" xlink:href="#aE"/><use transform="matrix(0.04938271604938272,0,0,0.04938271604938272,120.34567901234568,0)" xlink:href="#aJ"/><use transform="matrix(0.04938271604938272,0,0,0.04938271604938272,130.22222222222223,0)" xlink:href="#aK"/><use transform="matrix(0.04938271604938272,0,0,0.04938271604938272,136.09876543209876,0)" xlink:href="#aR"/><use transform="matrix(0.04938271604938272,0,0,0.04938271604938272,144.98765432098764,0)" xlink:href="#aB"/></g><g id="V"><use transform="matrix(0.05,0,0,0.05,0,0)" xlink:href="#aK"/><use transform="matrix(0.05,0,0,0.05,5.95,0)" xlink:href="#aB"/><use transform="matrix(0.05,0,0,0.05,15.949999999999998,0)" xlink:href="#az"/><use transform="matrix(0.05,0,0,0.05,24.95,0)" xlink:href="#aE"/><use transform="matrix(0.05,0,0,0.05,34.95,0)" xlink:href="#aJ"/><use transform="matrix(0.05,0,0,0.05,44.95,0)" xlink:href="#aK"/><use transform="matrix(0.05,0,0,0.05,50.900000000000006,0)" xlink:href="#aR"/><use transform="matrix(0.05,0,0,0.05,59.900000000000006,0)" xlink:href="#aB"/><use transform="matrix(0.05,0,0,0.05,69.9,0)" xlink:href="#aM"/><use transform="matrix(0.05,0,0,0.05,74.9,0)" xlink:href="#aO"/></g><g id="W"><use transform="matrix(0.05,0,0,0.05,0,0)" xlink:href="#aJ"/><use transform="matrix(0.05,0,0,0.05,10,0)" xlink:href="#aK"/><use transform="matrix(0.05,0,0,0.05,15.949999999999998,0)" xlink:href="#aP"/></g><g id="X"><use transform="matrix(0.05,0,0,0.05,0,0)" xlink:href="#aZ"/><use transform="matrix(0.05,0,0,0.05,9,0)" xlink:href="#aB"/><use transform="matrix(0.05,0,0,0.05,19,0)" xlink:href="#aK"/><use transform="matrix(0.05,0,0,0.05,24.95,0)" xlink:href="#az"/><use transform="matrix(0.05,0,0,0.05,33.95,0)" xlink:href="#aH"/><use transform="matrix(0.05,0,0,0.05,37.900000000000006,0)" xlink:href="#aE"/><use transform="matrix(0.05,0,0,0.05,47.900000000000006,0)" xlink:href="#aF"/></g><g id="Y"><use transform="matrix(0.05,0,0,0.05,0,0)" xlink:href="#aK"/><use transform="matrix(0.05,0,0,0.05,5.95,0)" xlink:href="#aB"/><use transform="matrix(0.05,0,0,0.05,15.949999999999998,0)" xlink:href="#az"/><use transform="matrix(0.05,0,0,0.05,24.95,0)" xlink:href="#aE"/><use transform="matrix(0.05,0,0,0.05,34.95,0)" xlink:href="#aJ"/><use transform="matrix(0.05,0,0,0.05,44.95,0)" xlink:href="#aK"/><use transform="matrix(0.05,0,0,0.05,50.900000000000006,0)" xlink:href="#aR"/><use transform="matrix(0.05,0,0,0.05,59.900000000000006,0)" xlink:href="#aB"/><use transform="matrix(0.05,0,0,0.05,69.9,0)" xlink:href="#ba"/><use transform="matrix(0.05,0,0,0.05,79.85000000000001,0)" xlink:href="#ay"/><use transform="matrix(0.05,0,0,0.05,88.85000000000001,0)" xlink:href="#aN"/><use transform="matrix(0.05,0,0,0.05,98.85000000000001,0)" xlink:href="#aB"/><use transform="matrix(0.05,0,0,0.05,108.85000000000001,0)" xlink:href="#aM"/><use transform="matrix(0.05,0,0,0.05,113.85000000000001,0)" xlink:href="#aO"/></g><g id="Z"><use transform="matrix(0.04938271604938272,0,0,0.04938271604938272,0,0)" xlink:href="#bb"/><use transform="matrix(0.04938271604938272,0,0,0.04938271604938272,12.790123456790125,0)" xlink:href="#aB"/><use transform="matrix(0.04938271604938272,0,0,0.04938271604938272,22.66666666666667,0)" xlink:href="#az"/><use transform="matrix(0.04938271604938272,0,0,0.04938271604938272,31.555555555555557,0)" xlink:href="#aE"/><use transform="matrix(0.04938271604938272,0,0,0.04938271604938272,41.4320987654321,0)" xlink:href="#aJ"/><use transform="matrix(0.04938271604938272,0,0,0.04938271604938272,51.308641975308646,0)" xlink:href="#aK"/><use transform="matrix(0.04938271604938272,0,0,0.04938271604938272,57.18518518518519,0)" xlink:href="#aR"/><use transform="matrix(0.04938271604938272,0,0,0.04938271604938272,66.07407407407408,0)" xlink:href="#aB"/><use transform="matrix(0.04938271604938272,0,0,0.04938271604938272,75.95061728395062,0)" xlink:href="#ba"/><use transform="matrix(0.04938271604938272,0,0,0.04938271604938272,85.77777777777777,0)" xlink:href="#ay"/><use transform="matrix(0.04938271604938272,0,0,0.04938271604938272,94.66666666666666,0)" xlink:href="#aN"/><use transform="matrix(0.04938271604938272,0,0,0.04938271604938272,104.5432098765432,0)" xlink:href="#aB"/></g></defs></g></svg>