<svg xmlns="http://www.w3.org/2000/svg" xmlns:xlink="http://www.w3.org/1999/xlink" xmlns:lucid="lucid" width="1760" height="1360"><g transform="translate(0 0)" lucid:page-tab-id="0_0"><path d="M0 0h1760v1360H0z" fill="#fff"/><path d="M399.9 32c0-6.63 5.4-12 12-12h936.2c6.6 0 12 5.37 12 12v39.08c0 6.62-5.4 12-12 12H411.9c-6.6 0-12-5.38-12-12z" stroke="#000" stroke-opacity="0" stroke-width="2" fill="#fff" fill-opacity="0"/><use xlink:href="#a" transform="matrix(1,0,0,1,404.9128901765501,25) translate(325.4259259259259 31.458333333333336)"/><use xlink:href="#b" transform="matrix(1,0,0,1,404.9128901765501,25) translate(449.72222222222223 31.458333333333336)"/><use xlink:href="#c" transform="matrix(1,0,0,1,404.9128901765501,25) translate(483.72222222222223 31.458333333333336)"/><use xlink:href="#d" transform="matrix(1,0,0,1,404.9128901765501,25) translate(548.7592592592592 31.458333333333336)"/><path d="M653 92c0-6.63 5.37-12 12-12h430c6.63 0 12 5.37 12 12v9.93c0 6.62-5.37 12-12 12H665c-6.63 0-12-5.38-12-12z" stroke="#000" stroke-opacity="0" stroke-width="2" fill="#fff" fill-opacity="0"/><use xlink:href="#e" transform="matrix(1,0,0,1,657.9999999999998,85) translate(174.60185185185185 15.444444444444446)"/><use xlink:href="#f" transform="matrix(1,0,0,1,657.9999999999998,85) translate(209.90432098765433 15.444444444444446)"/><use xlink:href="#g" transform="matrix(1,0,0,1,657.9999999999998,85) translate(235.83024691358025 15.444444444444446)"/><path d="M512.74 75.6h742.55M512.77 75.6h-1.03M1255.26 75.6h1.03" stroke="#b2b2b2" stroke-width="2" fill="none"/><path d="M1310.75 160h238.5v279h-238.5z" fill="#fff"/><path d="M1310.75 235h238.5v35h-238.5zM1310.75 305h238.5v32h-238.5zM1310.75 372h238.5v35h-238.5z" fill="#e6e6e6"/><path d="M1310.75 160h238.5v40h-238.5z" fill="#ccc"/><path d="M1310.75 160h238.5v279h-238.5zM1310.75 200h238.5" stroke="#666" fill="none"/><use xlink:href="#h" transform="matrix(1,0,0,1,1320.7499999999998,159.99999999999966) translate(5 25.15555555555556)"/><use xlink:href="#i" transform="matrix(1,0,0,1,1315.7499999999998,202.49999999999966) translate(5 20.155555555555555)"/><use xlink:href="#j" transform="matrix(1,0,0,1,1315.7499999999998,237.49999999999966) translate(5 20.155555555555555)"/><use xlink:href="#k" transform="matrix(1,0,0,1,1315.7499999999998,272.49999999999966) translate(5 20.155555555555555)"/><use xlink:href="#l" transform="matrix(1,0,0,1,1315.7499999999998,307.49999999999966) translate(0 17.1)"/><use xlink:href="#m" transform="matrix(1,0,0,1,1315.7499999999998,339.49999999999966) translate(5 20.155555555555555)"/><use xlink:href="#n" transform="matrix(1,0,0,1,1315.7499999999998,374.49999999999966) translate(5 20.155555555555555)"/><use xlink:href="#o" transform="matrix(1,0,0,1,1315.7499999999998,409.49999999999966) translate(0 17.1)"/><path d="M850.75 160h281.5v174h-281.5z" fill="#fff"/><path d="M850.75 235h281.5v35h-281.5zM850.75 302h281.5v32h-281.5z" fill="#e6e6e6"/><path d="M850.75 160h281.5v40h-281.5z" fill="#ccc"/><path d="M850.75 160h281.5v174h-281.5zM850.75 200h281.5" stroke="#666" fill="none"/><use xlink:href="#p" transform="matrix(1,0,0,1,860.7499999999998,160) translate(5 25.15555555555556)"/><use xlink:href="#q" transform="matrix(1,0,0,1,855.7499999999998,202.5) translate(5 20.155555555555555)"/><use xlink:href="#j" transform="matrix(1,0,0,1,855.7499999999998,237.5) translate(5 20.155555555555555)"/><use xlink:href="#r" transform="matrix(1,0,0,1,855.7499999999998,272.5) translate(0 17.1)"/><use xlink:href="#l" transform="matrix(1,0,0,1,855.7499999999998,304.5) translate(0 17.1)"/><path d="M1310.75 480h219.5v200h-219.5z" fill="#fff"/><path d="M1310.75 552h219.5v32h-219.5zM1310.75 616h219.5v32h-219.5z" fill="#e6e6e6"/><path d="M1310.75 480h219.5v40h-219.5z" fill="#ccc"/><path d="M1310.75 480h219.5v200h-219.5zM1310.75 520h219.5" stroke="#666" fill="none"/><use xlink:href="#s" transform="matrix(1,0,0,1,1320.7499999999998,479.99999999999966) translate(5 25.15555555555556)"/><use xlink:href="#t" transform="matrix(1,0,0,1,1315.7499999999998,522.4999999999997) translate(0 17.1)"/><use xlink:href="#u" transform="matrix(1,0,0,1,1315.7499999999998,554.4999999999997) translate(0 17.1)"/><use xlink:href="#r" transform="matrix(1,0,0,1,1315.7499999999998,586.4999999999997) translate(0 17.1)"/><use xlink:href="#l" transform="matrix(1,0,0,1,1315.7499999999998,618.4999999999997) translate(0 17.1)"/><use xlink:href="#v" transform="matrix(1,0,0,1,1315.7499999999998,650.4999999999997) translate(0 17.1)"/><path d="M860.75 680h180v328h-180z" fill="#fff"/><path d="M860.75 752h180v32h-180zM860.75 816h180v32h-180zM860.75 880h180v32h-180zM860.75 944h180v32h-180z" fill="#e6e6e6"/><path d="M860.75 680h180v40h-180z" fill="#ccc"/><path d="M860.75 680h180v328h-180zM860.75 720h180" stroke="#666" fill="none"/><use xlink:href="#w" transform="matrix(1,0,0,1,870.7499999999998,679.9999999999997) translate(5 25.15555555555556)"/><use xlink:href="#x" transform="matrix(1,0,0,1,865.7499999999998,722.4999999999997) translate(0 17.1)"/><use xlink:href="#u" transform="matrix(1,0,0,1,865.7499999999998,754.4999999999997) translate(0 17.1)"/><use xlink:href="#r" transform="matrix(1,0,0,1,865.7499999999998,786.4999999999997) translate(0 17.1)"/><use xlink:href="#l" transform="matrix(1,0,0,1,865.7499999999998,818.4999999999997) translate(0 17.1)"/><use xlink:href="#y" transform="matrix(1,0,0,1,865.7499999999998,850.4999999999997) translate(0 17.1)"/><use xlink:href="#z" transform="matrix(1,0,0,1,865.7499999999998,882.4999999999997) translate(0 17.1)"/><use xlink:href="#A" transform="matrix(1,0,0,1,865.7499999999998,914.4999999999997) translate(0 17.1)"/><use xlink:href="#B" transform="matrix(1,0,0,1,865.7499999999998,946.4999999999997) translate(0 17.1)"/><use xlink:href="#C" transform="matrix(1,0,0,1,865.7499999999998,978.4999999999997) translate(0 17.1)"/><path d="M210.75 394.96h240v235h-240z" fill="#fff"/><path d="M210.75 466.96h240v32h-240zM210.75 530.96h240v32h-240zM210.75 594.96h240v35h-240z" fill="#e6e6e6"/><path d="M210.75 394.96h240v40h-240z" fill="#ccc"/><path d="M210.75 394.96h240v235h-240zM210.75 434.96h240" stroke="#000" fill="none"/><use xlink:href="#D" transform="matrix(1,0,0,1,220.74999999999977,394.9626605077535) translate(5 25.15555555555556)"/><use xlink:href="#E" transform="matrix(1,0,0,1,215.74999999999977,437.4626605077535) translate(0 17.1)"/><use xlink:href="#u" transform="matrix(1,0,0,1,215.74999999999977,469.4626605077535) translate(0 17.1)"/><use xlink:href="#r" transform="matrix(1,0,0,1,215.74999999999977,501.4626605077535) translate(0 17.1)"/><use xlink:href="#F" transform="matrix(1,0,0,1,215.74999999999977,533.4626605077535) translate(0 17.1)"/><use xlink:href="#G" transform="matrix(1,0,0,1,215.74999999999977,565.4626605077535) translate(0 17.1)"/><use xlink:href="#H" transform="matrix(1,0,0,1,215.74999999999977,597.4626605077535) translate(5 20.155555555555555)"/><path d="M530.75 700h200v264h-200z" fill="#fff"/><path d="M530.75 772h200v32h-200zM530.75 836h200v32h-200zM530.75 900h200v32h-200z" fill="#e6e6e6"/><path d="M530.75 700h200v40h-200z" fill="#ccc"/><path d="M530.75 700h200v264h-200zM530.75 740h200" stroke="#000" fill="none"/><use xlink:href="#I" transform="matrix(1,0,0,1,540.7499999999998,699.9999999999997) translate(5 25.15555555555556)"/><use xlink:href="#J" transform="matrix(1,0,0,1,535.7499999999998,742.4999999999997) translate(0 17.1)"/><use xlink:href="#r" transform="matrix(1,0,0,1,535.7499999999998,774.4999999999997) translate(0 17.1)"/><use xlink:href="#u" transform="matrix(1,0,0,1,535.7499999999998,806.4999999999997) translate(0 17.1)"/><use xlink:href="#K" transform="matrix(1,0,0,1,535.7499999999998,838.4999999999997) translate(0 17.1)"/><use xlink:href="#L" transform="matrix(1,0,0,1,535.7499999999998,870.4999999999997) translate(0 17.1)"/><use xlink:href="#M" transform="matrix(1,0,0,1,535.7499999999998,902.4999999999997) translate(0 17.1)"/><use xlink:href="#N" transform="matrix(1,0,0,1,535.7499999999998,934.4999999999997) translate(0 17.1)"/><path d="M210.75 860h240v104h-240z" fill="#fff"/><path d="M210.75 932h240v32h-240z" fill="#e6e6e6"/><path d="M210.75 860h240v40h-240z" fill="#ccc"/><path d="M210.75 860h240v104h-240zM210.75 900h240" stroke="#000" fill="none"/><use xlink:href="#O" transform="matrix(1,0,0,1,220.74999999999977,859.9999999999997) translate(5 25.15555555555556)"/><use xlink:href="#K" transform="matrix(1,0,0,1,215.74999999999977,902.4999999999997) translate(0 17.1)"/><use xlink:href="#u" transform="matrix(1,0,0,1,215.74999999999977,934.4999999999997) translate(0 17.1)"/><path d="M510.25 852h-7.5c-6.63 0-12 5.37-12 12v40c0 6.62-5.37 12-12 12h-7.5" stroke="#000" fill="none"/><path d="M510.25 842v20M530.25 852h-20M471.25 926v-20M451.25 916h20" stroke="#000" fill="#fff"/><path d="M210.75 1000h240v200h-240z" fill="#fff"/><path d="M210.75 1072h240v32h-240zM210.75 1136h240v32h-240z" fill="#e6e6e6"/><path d="M210.75 1000h240v40h-240z" fill="#ccc"/><path d="M210.75 1000h240v200h-240zM210.75 1040h240" stroke="#000" fill="none"/><use xlink:href="#P" transform="matrix(1,0,0,1,220.74999999999977,999.9999999999995) translate(5 25.15555555555556)"/><use xlink:href="#Q" transform="matrix(1,0,0,1,215.74999999999977,1042.4999999999995) translate(0 17.1)"/><use xlink:href="#R" transform="matrix(1,0,0,1,215.74999999999977,1074.4999999999995) translate(0 17.1)"/><use xlink:href="#S" transform="matrix(1,0,0,1,215.74999999999977,1106.4999999999995) translate(0 17.1)"/><use xlink:href="#T" transform="matrix(1,0,0,1,215.74999999999977,1138.4999999999995) translate(0 17.1)"/><use xlink:href="#U" transform="matrix(1,0,0,1,215.74999999999977,1170.4999999999995) translate(0 17.1)"/><path d="M850.75 394.96h200v232h-200z" fill="#fff"/><path d="M850.75 466.96h200v32h-200zM850.75 530.96h200v32h-200zM850.75 594.96h200v32h-200z" fill="#e6e6e6"/><path d="M850.75 394.96h200v40h-200z" fill="#ccc"/><path d="M850.75 394.96h200v232h-200zM850.75 434.96h200" stroke="#000" fill="none"/><use xlink:href="#V" transform="matrix(1,0,0,1,860.7499999999998,394.9626605077536) translate(5 25.15555555555556)"/><use xlink:href="#W" transform="matrix(1,0,0,1,855.7499999999998,437.4626605077536) translate(0 17.1)"/><use xlink:href="#X" transform="matrix(1,0,0,1,855.7499999999998,469.4626605077536) translate(0 17.1)"/><use xlink:href="#Y" transform="matrix(1,0,0,1,855.7499999999998,501.4626605077536) translate(0 17.1)"/><use xlink:href="#F" transform="matrix(1,0,0,1,855.7499999999998,533.4626605077535) translate(0 17.1)"/><use xlink:href="#G" transform="matrix(1,0,0,1,855.7499999999998,565.4626605077535) translate(0 17.1)"/><use xlink:href="#Z" transform="matrix(1,0,0,1,855.7499999999998,597.4626605077535) translate(0 17.1)"/><path d="M530.75 394.96h270v264h-270z" fill="#fff"/><path d="M530.75 466.96h270v32h-270zM530.75 530.96h270v32h-270zM530.75 594.96h270v32h-270z" fill="#e6e6e6"/><path d="M530.75 394.96h270v40h-270z" fill="#ccc"/><path d="M530.75 394.96h270v264h-270zM530.75 434.96h270" stroke="#000" fill="none"/><use xlink:href="#aa" transform="matrix(1,0,0,1,540.7499999999998,394.9626605077535) translate(5 25.15555555555556)"/><use xlink:href="#ab" transform="matrix(1,0,0,1,535.7499999999998,437.4626605077535) translate(0 17.1)"/><use xlink:href="#X" transform="matrix(1,0,0,1,535.7499999999998,469.4626605077535) translate(0 17.1)"/><use xlink:href="#Y" transform="matrix(1,0,0,1,535.7499999999998,501.4626605077535) translate(0 17.1)"/><use xlink:href="#F" transform="matrix(1,0,0,1,535.7499999999998,533.4626605077535) translate(0 17.1)"/><use xlink:href="#G" transform="matrix(1,0,0,1,535.7499999999998,565.4626605077535) translate(0 17.1)"/><use xlink:href="#ac" transform="matrix(1,0,0,1,535.7499999999998,597.4626605077535) translate(0 17.1)"/><use xlink:href="#ad" transform="matrix(1,0,0,1,535.7499999999998,629.4626605077535) translate(0 17.1)"/><path d="M530.75 1032h200v136h-200z" fill="#fff"/><path d="M530.75 1104h200v32h-200z" fill="#e6e6e6"/><path d="M530.75 1032h200v40h-200z" fill="#ccc"/><path d="M530.75 1032h200v136h-200zM530.75 1072h200" stroke="#000" fill="none"/><use xlink:href="#ae" transform="matrix(1,0,0,1,540.7499999999998,1031.9999999999995) translate(5 25.15555555555556)"/><use xlink:href="#J" transform="matrix(1,0,0,1,535.7499999999998,1074.4999999999995) translate(0 17.1)"/><use xlink:href="#G" transform="matrix(1,0,0,1,535.7499999999998,1106.4999999999995) translate(0 17.1)"/><use xlink:href="#af" transform="matrix(1,0,0,1,535.7499999999998,1138.4999999999995) translate(0 17.1)"/><path d="M630.75 1031v-27" stroke="#000" fill="none"/><path d="M631.25 1031.5h-1v-.5h1z"/><path d="M620.75 974.5h20M630.75 964.5v20M640.75 994.5c0 5.52-4.48 10-10 10s-10-4.48-10-10 4.48-10 10-10 10 4.48 10 10" stroke="#000" fill="#fff"/><path d="M471.25 1087.95h39" stroke="#000" fill="none"/><path d="M471.25 1097.95v-20M451.25 1087.95h20M510.25 1077.94v20M530.25 1087.94h-20" stroke="#000" fill="#fff"/><path d="M471.25 579.24h7.5c6.63 0 12-5.37 12-12V229.4c0-6.63 5.37-12 12-12h327.5" stroke="#000" fill="none"/><path d="M471.25 589.24v-20M451.25 579.24h20M830.25 207.4v20M850.25 217.4h-20" stroke="#000" fill="#fff"/><path d="M510.25 579.16h-8c-6.63 0-12-5.38-12-12V229.4c0-6.63 5.37-12 12-12h328" stroke="#000" fill="none"/><path d="M510.25 569.16v20M530.25 579.16h-20M830.25 207.4v20M850.25 217.4h-20" stroke="#000" fill="#fff"/><path d="M751.25 1120.1h409.5c6.63 0 12-5.37 12-12V229.4c0-6.63-5.37-12-12-12h-8.6" stroke="#000" fill="none"/><path d="M751.25 1130.1v-20M731.25 1120.1h20M1132.97 207.4l20 10-20 10M1132.97 217.4h20" stroke="#000" fill="#fff"/><path d="M830.25 579.3c-5.25 0-9.5-4.25-9.5-9.5V226.9c0-5.25 4.25-9.5 9.5-9.5" stroke="#000" fill="none"/><path d="M830.25 569.3v20M850.25 579.3h-20M830.25 207.4v20M850.25 217.4h-20" stroke="#000" fill="#fff"/><path d="M1290.25 664.38h-8c-6.63 0-12-5.37-12-12V228.36c0-6.62 5.37-12 12-12h8" stroke="#000" fill="none"/><path d="M1290.25 654.38v20M1310.25 664.38h-20M1290.25 206.36v20M1310.25 216.36h-20" stroke="#000" fill="#fff"/><path d="M821.25 643.4c5.25 0 9.5 4.25 9.5 9.5v73c0 5.25 4.25 9.5 9.5 9.5" stroke="#000" fill="none"/><path d="M821.25 653.4v-20M801.25 643.4h20M840.25 725.4v20M860.25 735.4h-20" stroke="#000" fill="#fff"/><defs><path fill="#b2b2b2" d="M182-130c37 4 62 22 62 59C244 23 116-4 24 0v-248c84 5 203-23 205 63 0 31-19 50-47 55zM76-148c40-3 101 13 101-30 0-44-60-28-101-31v61zm0 110c48-3 116 14 116-37 0-48-69-32-116-35v72" id="ag"/><path fill="#b2b2b2" d="M24 0v-248h195v40H76v63h132v40H76v65h150V0H24" id="ah"/><path fill="#b2b2b2" d="M169-182c-1-43-94-46-97-3 18 66 151 10 154 114 3 95-165 93-204 36-6-8-10-19-12-30l50-8c3 46 112 56 116 5-17-69-150-10-154-114-4-87 153-88 188-35 5 8 8 18 10 28" id="ai"/><path fill="#b2b2b2" d="M24-248c93 1 206-16 204 79-1 75-69 88-152 82V0H24v-248zm52 121c47 0 100 7 100-41 0-47-54-39-100-39v80" id="aj"/><path fill="#b2b2b2" d="M24 0v-248h52V0H24" id="ak"/><path fill="#b2b2b2" d="M175 0L67-191c6 58 2 128 3 191H24v-248h59L193-55c-6-58-2-129-3-193h46V0h-61" id="al"/><g id="a"><use transform="matrix(0.07407407407407408,0,0,0.07407407407407408,0,0)" xlink:href="#ag"/><use transform="matrix(0.07407407407407408,0,0,0.07407407407407408,19.185185185185187,0)" xlink:href="#ah"/><use transform="matrix(0.07407407407407408,0,0,0.07407407407407408,36.96296296296296,0)" xlink:href="#ai"/><use transform="matrix(0.07407407407407408,0,0,0.07407407407407408,54.74074074074074,0)" xlink:href="#ai"/><use transform="matrix(0.07407407407407408,0,0,0.07407407407407408,72.51851851851852,0)" xlink:href="#aj"/><use transform="matrix(0.07407407407407408,0,0,0.07407407407407408,90.2962962962963,0)" xlink:href="#ak"/><use transform="matrix(0.07407407407407408,0,0,0.07407407407407408,97.70370370370371,0)" xlink:href="#al"/></g><path fill="#b2b2b2" d="M238-95c0 69-44 99-111 99C63 4 22-25 22-93v-155h51v151c-1 38 19 59 55 60 90 1 49-130 58-211h52v153" id="am"/><g id="b"><use transform="matrix(0.07407407407407408,0,0,0.07407407407407408,0,0)" xlink:href="#am"/><use transform="matrix(0.07407407407407408,0,0,0.07407407407407408,19.185185185185187,0)" xlink:href="#ak"/></g><path fill="#b2b2b2" d="M24-248c120-7 223 5 221 122C244-46 201 0 124 0H24v-248zM76-40c74 7 117-18 117-86 0-67-45-88-117-82v168" id="an"/><path fill="#b2b2b2" d="M133-34C117-15 103 5 69 4 32 3 11-16 11-54c-1-60 55-63 116-61 1-26-3-47-28-47-18 1-26 9-28 27l-52-2c7-38 36-58 82-57s74 22 75 68l1 82c-1 14 12 18 25 15v27c-30 8-71 5-69-32zm-48 3c29 0 43-24 42-57-32 0-66-3-65 30 0 17 8 27 23 27" id="ao"/><path fill="#b2b2b2" d="M115-3C79 11 28 4 28-45v-112H4v-33h27l15-45h31v45h36v33H77v99c-1 23 16 31 38 25v30" id="ap"/><g id="c"><use transform="matrix(0.07407407407407408,0,0,0.07407407407407408,0,0)" xlink:href="#an"/><use transform="matrix(0.07407407407407408,0,0,0.07407407407407408,19.185185185185187,0)" xlink:href="#ao"/><use transform="matrix(0.07407407407407408,0,0,0.07407407407407408,34,0)" xlink:href="#ap"/><use transform="matrix(0.07407407407407408,0,0,0.07407407407407408,42.814814814814824,0)" xlink:href="#ao"/></g><path fill="#b2b2b2" d="M230 0l2-204L168 0h-37L68-204 70 0H24v-248h70l56 185 57-185h69V0h-46" id="aq"/><path fill="#b2b2b2" d="M110-194c64 0 96 36 96 99 0 64-35 99-97 99-61 0-95-36-95-99 0-62 34-99 96-99zm-1 164c35 0 45-28 45-65 0-40-10-65-43-65-34 0-45 26-45 65 0 36 10 65 43 65" id="ar"/><path fill="#b2b2b2" d="M88-194c31-1 46 15 58 34l-1-101h50l1 261h-48c-2-10 0-23-3-31C134-8 116 4 84 4 32 4 16-41 15-95c0-56 19-97 73-99zm17 164c33 0 40-30 41-66 1-37-9-64-41-64s-38 30-39 65c0 43 13 65 39 65" id="as"/><path fill="#b2b2b2" d="M185-48c-13 30-37 53-82 52C43 2 14-33 14-96s30-98 90-98c62 0 83 45 84 108H66c0 31 8 55 39 56 18 0 30-7 34-22zm-45-69c5-46-57-63-70-21-2 6-4 13-4 21h74" id="at"/><path fill="#b2b2b2" d="M25 0v-261h50V0H25" id="au"/><g id="d"><use transform="matrix(0.07407407407407408,0,0,0.07407407407407408,0,0)" xlink:href="#aq"/><use transform="matrix(0.07407407407407408,0,0,0.07407407407407408,22.148148148148152,0)" xlink:href="#ar"/><use transform="matrix(0.07407407407407408,0,0,0.07407407407407408,38.37037037037038,0)" xlink:href="#as"/><use transform="matrix(0.07407407407407408,0,0,0.07407407407407408,54.59259259259261,0)" xlink:href="#at"/><use transform="matrix(0.07407407407407408,0,0,0.07407407407407408,69.40740740740742,0)" xlink:href="#au"/></g><path fill="#b2b2b2" d="M205 0l-28-72H64L36 0H1l101-248h38L239 0h-34zm-38-99l-47-123c-12 45-31 82-46 123h93" id="av"/><path fill="#b2b2b2" d="M115-194c55 1 70 41 70 98S169 2 115 4C84 4 66-9 55-30l1 105H24l-1-265h31l2 30c10-21 28-34 59-34zm-8 174c40 0 45-34 45-75s-6-73-45-74c-42 0-51 32-51 76 0 43 10 73 51 73" id="aw"/><path fill="#b2b2b2" d="M114-163C36-179 61-72 57 0H25l-1-190h30c1 12-1 29 2 39 6-27 23-49 58-41v29" id="ax"/><path fill="#b2b2b2" d="M24-231v-30h32v30H24zM24 0v-190h32V0H24" id="ay"/><path fill="#b2b2b2" d="M24 0v-261h32V0H24" id="az"/><g id="e"><use transform="matrix(0.04320987654320988,0,0,0.04320987654320988,0,0)" xlink:href="#av"/><use transform="matrix(0.04320987654320988,0,0,0.04320987654320988,10.370370370370372,0)" xlink:href="#aw"/><use transform="matrix(0.04320987654320988,0,0,0.04320987654320988,19.01234567901235,0)" xlink:href="#ax"/><use transform="matrix(0.04320987654320988,0,0,0.04320987654320988,24.154320987654323,0)" xlink:href="#ay"/><use transform="matrix(0.04320987654320988,0,0,0.04320987654320988,27.567901234567906,0)" xlink:href="#az"/></g><path fill="#b2b2b2" d="M27 0v-27h64v-190l-56 39v-29l58-41h29v221h61V0H27" id="aA"/><path fill="#b2b2b2" d="M64 0c3-98 48-159 88-221H18v-27h164v26C143-157 98-101 97 0H64" id="aB"/><path fill="#b2b2b2" d="M68-38c1 34 0 65-14 84H32c9-13 17-26 17-46H33v-38h35" id="aC"/><g id="f"><use transform="matrix(0.04320987654320988,0,0,0.04320987654320988,0,0)" xlink:href="#aA"/><use transform="matrix(0.04320987654320988,0,0,0.04320987654320988,8.641975308641976,0)" xlink:href="#aB"/><use transform="matrix(0.04320987654320988,0,0,0.04320987654320988,17.283950617283953,0)" xlink:href="#aC"/></g><path fill="#b2b2b2" d="M101-251c82-7 93 87 43 132L82-64C71-53 59-42 53-27h129V0H18c2-99 128-94 128-182 0-28-16-43-45-43s-46 15-49 41l-32-3c6-41 34-60 81-64" id="aD"/><path fill="#b2b2b2" d="M101-251c68 0 85 55 85 127S166 4 100 4C33 4 14-52 14-124c0-73 17-127 87-127zm-1 229c47 0 54-49 54-102s-4-102-53-102c-51 0-55 48-55 102 0 53 5 102 54 102" id="aE"/><g id="g"><use transform="matrix(0.04320987654320988,0,0,0.04320987654320988,0,0)" xlink:href="#aD"/><use transform="matrix(0.04320987654320988,0,0,0.04320987654320988,8.641975308641976,0)" xlink:href="#aE"/><use transform="matrix(0.04320987654320988,0,0,0.04320987654320988,17.283950617283953,0)" xlink:href="#aD"/><use transform="matrix(0.04320987654320988,0,0,0.04320987654320988,25.925925925925927,0)" xlink:href="#aE"/></g><path d="M141-36C126-15 110 5 73 4 37 3 15-17 15-53c-1-64 63-63 125-63 3-35-9-54-41-54-24 1-41 7-42 31l-33-3c5-37 33-52 76-52 45 0 72 20 72 64v82c-1 20 7 32 28 27v20c-31 9-61-2-59-35zM48-53c0 20 12 33 32 33 41-3 63-29 60-74-43 2-92-5-92 41" id="aF"/><path d="M114-163C36-179 61-72 57 0H25l-1-190h30c1 12-1 29 2 39 6-27 23-49 58-41v29" id="aG"/><path d="M96-169c-40 0-48 33-48 73s9 75 48 75c24 0 41-14 43-38l32 2c-6 37-31 61-74 61-59 0-76-41-82-99-10-93 101-131 147-64 4 7 5 14 7 22l-32 3c-4-21-16-35-41-35" id="aH"/><path d="M106-169C34-169 62-67 57 0H25v-261h32l-1 103c12-21 28-36 61-36 89 0 53 116 60 194h-32v-121c2-32-8-49-39-48" id="aI"/><path d="M-5 72V49h209v23H-5" id="aJ"/><path d="M100-194c63 0 86 42 84 106H49c0 40 14 67 53 68 26 1 43-12 49-29l28 8c-11 28-37 45-77 45C44 4 14-33 15-96c1-61 26-98 85-98zm52 81c6-60-76-77-97-28-3 7-6 17-6 28h103" id="aK"/><path d="M141 0L90-78 38 0H4l68-98-65-92h35l48 74 47-74h35l-64 92 68 98h-35" id="aL"/><path d="M59-47c-2 24 18 29 38 22v24C64 9 27 4 27-40v-127H5v-23h24l9-43h21v43h35v23H59v120" id="aM"/><path d="M100-194c62-1 85 37 85 99 1 63-27 99-86 99S16-35 15-95c0-66 28-99 85-99zM99-20c44 1 53-31 53-75 0-43-8-75-51-75s-53 32-53 75 10 74 51 75" id="aN"/><path d="M84 4C-5 8 30-112 23-190h32v120c0 31 7 50 39 49 72-2 45-101 50-169h31l1 190h-30c-1-10 1-25-2-33-11 22-28 36-60 37" id="aO"/><path d="M115-194c55 1 70 41 70 98S169 2 115 4C84 4 66-9 55-30l1 105H24l-1-265h31l2 30c10-21 28-34 59-34zm-8 174c40 0 45-34 45-75s-6-73-45-74c-42 0-51 32-51 76 0 43 10 73 51 73" id="aP"/><g id="h"><use transform="matrix(0.04938271604938272,0,0,0.04938271604938272,0,0)" xlink:href="#aF"/><use transform="matrix(0.04938271604938272,0,0,0.04938271604938272,9.876543209876544,0)" xlink:href="#aG"/><use transform="matrix(0.04938271604938272,0,0,0.04938271604938272,15.753086419753087,0)" xlink:href="#aH"/><use transform="matrix(0.04938271604938272,0,0,0.04938271604938272,24.641975308641978,0)" xlink:href="#aI"/><use transform="matrix(0.04938271604938272,0,0,0.04938271604938272,34.51851851851852,0)" xlink:href="#aJ"/><use transform="matrix(0.04938271604938272,0,0,0.04938271604938272,44.39506172839506,0)" xlink:href="#aK"/><use transform="matrix(0.04938271604938272,0,0,0.04938271604938272,54.27160493827161,0)" xlink:href="#aL"/><use transform="matrix(0.04938271604938272,0,0,0.04938271604938272,63.1604938271605,0)" xlink:href="#aM"/><use transform="matrix(0.04938271604938272,0,0,0.04938271604938272,68.09876543209876,0)" xlink:href="#aG"/><use transform="matrix(0.04938271604938272,0,0,0.04938271604938272,73.9753086419753,0)" xlink:href="#aF"/><use transform="matrix(0.04938271604938272,0,0,0.04938271604938272,83.85185185185185,0)" xlink:href="#aH"/><use transform="matrix(0.04938271604938272,0,0,0.04938271604938272,92.74074074074073,0)" xlink:href="#aM"/><use transform="matrix(0.04938271604938272,0,0,0.04938271604938272,97.67901234567901,0)" xlink:href="#aJ"/><use transform="matrix(0.04938271604938272,0,0,0.04938271604938272,107.55555555555557,0)" xlink:href="#aN"/><use transform="matrix(0.04938271604938272,0,0,0.04938271604938272,117.43209876543212,0)" xlink:href="#aO"/><use transform="matrix(0.04938271604938272,0,0,0.04938271604938272,127.30864197530865,0)" xlink:href="#aM"/><use transform="matrix(0.04938271604938272,0,0,0.04938271604938272,132.2469135802469,0)" xlink:href="#aP"/><use transform="matrix(0.04938271604938272,0,0,0.04938271604938272,142.12345679012344,0)" xlink:href="#aO"/><use transform="matrix(0.04938271604938272,0,0,0.04938271604938272,152,0)" xlink:href="#aM"/></g><path d="M30 0v-248h187v28H63v79h144v27H63v87h162V0H30" id="aQ"/><path d="M140-251c81 0 123 46 123 126C263-46 219 4 140 4 59 4 17-45 17-125s42-126 123-126zm0 227c63 0 89-41 89-101s-29-99-89-99c-61 0-89 39-89 99S79-25 140-24" id="aR"/><path d="M33 0v-248h34V0H33" id="aS"/><path d="M85-194c31 0 48 13 60 33l-1-100h32l1 261h-30c-2-10 0-23-3-31C134-8 116 4 85 4 32 4 16-35 15-94c0-66 23-100 70-100zm9 24c-40 0-46 34-46 75 0 40 6 74 45 74 42 0 51-32 51-76 0-42-9-74-50-73" id="aT"/><g id="i"><use transform="matrix(0.04938271604938272,0,0,0.04938271604938272,0,0)" xlink:href="#aF"/><use transform="matrix(0.04938271604938272,0,0,0.04938271604938272,9.876543209876544,0)" xlink:href="#aG"/><use transform="matrix(0.04938271604938272,0,0,0.04938271604938272,15.753086419753087,0)" xlink:href="#aH"/><use transform="matrix(0.04938271604938272,0,0,0.04938271604938272,24.641975308641978,0)" xlink:href="#aI"/><use transform="matrix(0.04938271604938272,0,0,0.04938271604938272,34.51851851851852,0)" xlink:href="#aQ"/><use transform="matrix(0.04938271604938272,0,0,0.04938271604938272,46.370370370370374,0)" xlink:href="#aL"/><use transform="matrix(0.04938271604938272,0,0,0.04938271604938272,55.25925925925927,0)" xlink:href="#aM"/><use transform="matrix(0.04938271604938272,0,0,0.04938271604938272,60.19753086419754,0)" xlink:href="#aG"/><use transform="matrix(0.04938271604938272,0,0,0.04938271604938272,66.07407407407408,0)" xlink:href="#aF"/><use transform="matrix(0.04938271604938272,0,0,0.04938271604938272,75.95061728395062,0)" xlink:href="#aH"/><use transform="matrix(0.04938271604938272,0,0,0.04938271604938272,84.8395061728395,0)" xlink:href="#aM"/><use transform="matrix(0.04938271604938272,0,0,0.04938271604938272,89.77777777777777,0)" xlink:href="#aR"/><use transform="matrix(0.04938271604938272,0,0,0.04938271604938272,103.60493827160495,0)" xlink:href="#aO"/><use transform="matrix(0.04938271604938272,0,0,0.04938271604938272,113.4814814814815,0)" xlink:href="#aM"/><use transform="matrix(0.04938271604938272,0,0,0.04938271604938272,118.41975308641975,0)" xlink:href="#aP"/><use transform="matrix(0.04938271604938272,0,0,0.04938271604938272,128.2962962962963,0)" xlink:href="#aO"/><use transform="matrix(0.04938271604938272,0,0,0.04938271604938272,138.17283950617286,0)" xlink:href="#aM"/><use transform="matrix(0.04938271604938272,0,0,0.04938271604938272,143.11111111111114,0)" xlink:href="#aS"/><use transform="matrix(0.04938271604938272,0,0,0.04938271604938272,148.04938271604942,0)" xlink:href="#aT"/></g><path d="M24 0v-261h32V0H24" id="aU"/><path d="M115-194c53 0 69 39 70 98 0 66-23 100-70 100C84 3 66-7 56-30L54 0H23l1-261h32v101c10-23 28-34 59-34zm-8 174c40 0 45-34 45-75 0-40-5-75-45-74-42 0-51 32-51 76 0 43 10 73 51 73" id="aV"/><g id="j"><use transform="matrix(0.04938271604938272,0,0,0.04938271604938272,0,0)" xlink:href="#aU"/><use transform="matrix(0.04938271604938272,0,0,0.04938271604938272,3.901234567901235,0)" xlink:href="#aF"/><use transform="matrix(0.04938271604938272,0,0,0.04938271604938272,13.777777777777779,0)" xlink:href="#aV"/><use transform="matrix(0.04938271604938272,0,0,0.04938271604938272,23.654320987654323,0)" xlink:href="#aK"/><use transform="matrix(0.04938271604938272,0,0,0.04938271604938272,33.53086419753087,0)" xlink:href="#aU"/></g><path d="M205 0l-28-72H64L36 0H1l101-248h38L239 0h-34zm-38-99l-47-123c-12 45-31 82-46 123h93" id="aW"/><g id="k"><use transform="matrix(0.04938271604938272,0,0,0.04938271604938272,0,0)" xlink:href="#aH"/><use transform="matrix(0.04938271604938272,0,0,0.04938271604938272,8.88888888888889,0)" xlink:href="#aG"/><use transform="matrix(0.04938271604938272,0,0,0.04938271604938272,14.765432098765434,0)" xlink:href="#aK"/><use transform="matrix(0.04938271604938272,0,0,0.04938271604938272,24.641975308641978,0)" xlink:href="#aF"/><use transform="matrix(0.04938271604938272,0,0,0.04938271604938272,34.51851851851852,0)" xlink:href="#aM"/><use transform="matrix(0.04938271604938272,0,0,0.04938271604938272,39.45679012345679,0)" xlink:href="#aK"/><use transform="matrix(0.04938271604938272,0,0,0.04938271604938272,49.333333333333336,0)" xlink:href="#aT"/><use transform="matrix(0.04938271604938272,0,0,0.04938271604938272,59.20987654320988,0)" xlink:href="#aW"/><use transform="matrix(0.04938271604938272,0,0,0.04938271604938272,71.06172839506173,0)" xlink:href="#aM"/></g><g id="l"><use transform="matrix(0.05,0,0,0.05,0,0)" xlink:href="#aO"/><use transform="matrix(0.05,0,0,0.05,10,0)" xlink:href="#aP"/><use transform="matrix(0.05,0,0,0.05,20,0)" xlink:href="#aT"/><use transform="matrix(0.05,0,0,0.05,30,0)" xlink:href="#aF"/><use transform="matrix(0.05,0,0,0.05,40,0)" xlink:href="#aM"/><use transform="matrix(0.05,0,0,0.05,45,0)" xlink:href="#aK"/><use transform="matrix(0.05,0,0,0.05,55,0)" xlink:href="#aT"/><use transform="matrix(0.05,0,0,0.05,65,0)" xlink:href="#aW"/><use transform="matrix(0.05,0,0,0.05,77,0)" xlink:href="#aM"/></g><g id="m"><use transform="matrix(0.04938271604938272,0,0,0.04938271604938272,0,0)" xlink:href="#aF"/><use transform="matrix(0.04938271604938272,0,0,0.04938271604938272,9.876543209876544,0)" xlink:href="#aG"/><use transform="matrix(0.04938271604938272,0,0,0.04938271604938272,15.753086419753087,0)" xlink:href="#aH"/><use transform="matrix(0.04938271604938272,0,0,0.04938271604938272,24.641975308641978,0)" xlink:href="#aI"/><use transform="matrix(0.04938271604938272,0,0,0.04938271604938272,34.51851851851852,0)" xlink:href="#aQ"/><use transform="matrix(0.04938271604938272,0,0,0.04938271604938272,46.370370370370374,0)" xlink:href="#aL"/><use transform="matrix(0.04938271604938272,0,0,0.04938271604938272,55.25925925925927,0)" xlink:href="#aM"/><use transform="matrix(0.04938271604938272,0,0,0.04938271604938272,60.19753086419754,0)" xlink:href="#aG"/><use transform="matrix(0.04938271604938272,0,0,0.04938271604938272,66.07407407407408,0)" xlink:href="#aF"/><use transform="matrix(0.04938271604938272,0,0,0.04938271604938272,75.95061728395062,0)" xlink:href="#aH"/><use transform="matrix(0.04938271604938272,0,0,0.04938271604938272,84.8395061728395,0)" xlink:href="#aM"/><use transform="matrix(0.04938271604938272,0,0,0.04938271604938272,89.77777777777777,0)" xlink:href="#aS"/><use transform="matrix(0.04938271604938272,0,0,0.04938271604938272,94.71604938271605,0)" xlink:href="#aT"/></g><path d="M63-220v92h138v28H63V0H30v-248h175v28H63" id="aX"/><path d="M24-231v-30h32v30H24zM24 0v-190h32V0H24" id="aY"/><path d="M117-194c89-4 53 116 60 194h-32v-121c0-31-8-49-39-48C34-167 62-67 57 0H25l-1-190h30c1 10-1 24 2 32 11-22 29-35 61-36" id="aZ"/><path d="M210-169c-67 3-38 105-44 169h-31v-121c0-29-5-50-35-48C34-165 62-65 56 0H25l-1-190h30c1 10-1 24 2 32 10-44 99-50 107 0 11-21 27-35 58-36 85-2 47 119 55 194h-31v-121c0-29-5-49-35-48" id="ba"/><g id="n"><use transform="matrix(0.04938271604938272,0,0,0.04938271604938272,0,0)" xlink:href="#aF"/><use transform="matrix(0.04938271604938272,0,0,0.04938271604938272,9.876543209876544,0)" xlink:href="#aG"/><use transform="matrix(0.04938271604938272,0,0,0.04938271604938272,15.753086419753087,0)" xlink:href="#aH"/><use transform="matrix(0.04938271604938272,0,0,0.04938271604938272,24.641975308641978,0)" xlink:href="#aI"/><use transform="matrix(0.04938271604938272,0,0,0.04938271604938272,34.51851851851852,0)" xlink:href="#aQ"/><use transform="matrix(0.04938271604938272,0,0,0.04938271604938272,46.370370370370374,0)" xlink:href="#aL"/><use transform="matrix(0.04938271604938272,0,0,0.04938271604938272,55.25925925925927,0)" xlink:href="#aM"/><use transform="matrix(0.04938271604938272,0,0,0.04938271604938272,60.19753086419754,0)" xlink:href="#aG"/><use transform="matrix(0.04938271604938272,0,0,0.04938271604938272,66.07407407407408,0)" xlink:href="#aF"/><use transform="matrix(0.04938271604938272,0,0,0.04938271604938272,75.95061728395062,0)" xlink:href="#aH"/><use transform="matrix(0.04938271604938272,0,0,0.04938271604938272,84.8395061728395,0)" xlink:href="#aM"/><use transform="matrix(0.04938271604938272,0,0,0.04938271604938272,89.77777777777777,0)" xlink:href="#aR"/><use transform="matrix(0.04938271604938272,0,0,0.04938271604938272,103.60493827160495,0)" xlink:href="#aO"/><use transform="matrix(0.04938271604938272,0,0,0.04938271604938272,113.4814814814815,0)" xlink:href="#aM"/><use transform="matrix(0.04938271604938272,0,0,0.04938271604938272,118.41975308641975,0)" xlink:href="#aP"/><use transform="matrix(0.04938271604938272,0,0,0.04938271604938272,128.2962962962963,0)" xlink:href="#aO"/><use transform="matrix(0.04938271604938272,0,0,0.04938271604938272,138.17283950617286,0)" xlink:href="#aM"/><use transform="matrix(0.04938271604938272,0,0,0.04938271604938272,143.11111111111114,0)" xlink:href="#aX"/><use transform="matrix(0.04938271604938272,0,0,0.04938271604938272,153.92592592592595,0)" xlink:href="#aY"/><use transform="matrix(0.04938271604938272,0,0,0.04938271604938272,157.8271604938272,0)" xlink:href="#aU"/><use transform="matrix(0.04938271604938272,0,0,0.04938271604938272,161.72839506172843,0)" xlink:href="#aK"/><use transform="matrix(0.04938271604938272,0,0,0.04938271604938272,171.60493827160496,0)" xlink:href="#aZ"/><use transform="matrix(0.04938271604938272,0,0,0.04938271604938272,181.48148148148152,0)" xlink:href="#aF"/><use transform="matrix(0.04938271604938272,0,0,0.04938271604938272,191.35802469135808,0)" xlink:href="#ba"/><use transform="matrix(0.04938271604938272,0,0,0.04938271604938272,206.12345679012353,0)" xlink:href="#aK"/></g><path d="M212-179c-10-28-35-45-73-45-59 0-87 40-87 99 0 60 29 101 89 101 43 0 62-24 78-52l27 14C228-24 195 4 139 4 59 4 22-46 18-125c-6-104 99-153 187-111 19 9 31 26 39 46" id="bb"/><g id="o"><use transform="matrix(0.05,0,0,0.05,0,0)" xlink:href="#aF"/><use transform="matrix(0.05,0,0,0.05,10,0)" xlink:href="#aG"/><use transform="matrix(0.05,0,0,0.05,15.949999999999998,0)" xlink:href="#aH"/><use transform="matrix(0.05,0,0,0.05,24.95,0)" xlink:href="#aI"/><use transform="matrix(0.05,0,0,0.05,34.95,0)" xlink:href="#aQ"/><use transform="matrix(0.05,0,0,0.05,46.95,0)" xlink:href="#aL"/><use transform="matrix(0.05,0,0,0.05,55.95,0)" xlink:href="#aM"/><use transform="matrix(0.05,0,0,0.05,60.95,0)" xlink:href="#aG"/><use transform="matrix(0.05,0,0,0.05,66.9,0)" xlink:href="#aF"/><use transform="matrix(0.05,0,0,0.05,76.9,0)" xlink:href="#aH"/><use transform="matrix(0.05,0,0,0.05,85.9,0)" xlink:href="#aM"/><use transform="matrix(0.05,0,0,0.05,90.9,0)" xlink:href="#aR"/><use transform="matrix(0.05,0,0,0.05,104.9,0)" xlink:href="#aO"/><use transform="matrix(0.05,0,0,0.05,114.9,0)" xlink:href="#aM"/><use transform="matrix(0.05,0,0,0.05,119.9,0)" xlink:href="#aP"/><use transform="matrix(0.05,0,0,0.05,129.9,0)" xlink:href="#aO"/><use transform="matrix(0.05,0,0,0.05,139.9,0)" xlink:href="#aM"/><use transform="matrix(0.05,0,0,0.05,144.9,0)" xlink:href="#bb"/><use transform="matrix(0.05,0,0,0.05,157.85,0)" xlink:href="#aN"/><use transform="matrix(0.05,0,0,0.05,167.85,0)" xlink:href="#aZ"/><use transform="matrix(0.05,0,0,0.05,177.85,0)" xlink:href="#aM"/><use transform="matrix(0.05,0,0,0.05,182.85,0)" xlink:href="#aK"/><use transform="matrix(0.05,0,0,0.05,192.85,0)" xlink:href="#aZ"/><use transform="matrix(0.05,0,0,0.05,202.85,0)" xlink:href="#aM"/></g><path d="M206 0h-36l-40-164L89 0H53L-1-190h32L70-26l43-164h34l41 164 42-164h31" id="bc"/><path d="M143 0L79-87 56-68V0H24v-261h32v163l83-92h37l-77 82L181 0h-38" id="bd"/><path d="M101-234c-31-9-42 10-38 44h38v23H63V0H32v-167H5v-23h27c-7-52 17-82 69-68v24" id="be"/><path d="M135-143c-3-34-86-38-87 0 15 53 115 12 119 90S17 21 10-45l28-5c4 36 97 45 98 0-10-56-113-15-118-90-4-57 82-63 122-42 12 7 21 19 24 35" id="bf"/><g id="p"><use transform="matrix(0.04938271604938272,0,0,0.04938271604938272,0,0)" xlink:href="#bc"/><use transform="matrix(0.04938271604938272,0,0,0.04938271604938272,12.790123456790125,0)" xlink:href="#aN"/><use transform="matrix(0.04938271604938272,0,0,0.04938271604938272,22.66666666666667,0)" xlink:href="#aG"/><use transform="matrix(0.04938271604938272,0,0,0.04938271604938272,28.54320987654322,0)" xlink:href="#bd"/><use transform="matrix(0.04938271604938272,0,0,0.04938271604938272,37.4320987654321,0)" xlink:href="#be"/><use transform="matrix(0.04938271604938272,0,0,0.04938271604938272,42.370370370370374,0)" xlink:href="#aU"/><use transform="matrix(0.04938271604938272,0,0,0.04938271604938272,46.27160493827161,0)" xlink:href="#aN"/><use transform="matrix(0.04938271604938272,0,0,0.04938271604938272,56.14814814814815,0)" xlink:href="#bc"/><use transform="matrix(0.04938271604938272,0,0,0.04938271604938272,68.93827160493828,0)" xlink:href="#bf"/></g><g id="q"><use transform="matrix(0.04938271604938272,0,0,0.04938271604938272,0,0)" xlink:href="#bc"/><use transform="matrix(0.04938271604938272,0,0,0.04938271604938272,12.790123456790125,0)" xlink:href="#aN"/><use transform="matrix(0.04938271604938272,0,0,0.04938271604938272,22.66666666666667,0)" xlink:href="#aG"/><use transform="matrix(0.04938271604938272,0,0,0.04938271604938272,28.54320987654322,0)" xlink:href="#bd"/><use transform="matrix(0.04938271604938272,0,0,0.04938271604938272,37.4320987654321,0)" xlink:href="#be"/><use transform="matrix(0.04938271604938272,0,0,0.04938271604938272,42.370370370370374,0)" xlink:href="#aU"/><use transform="matrix(0.04938271604938272,0,0,0.04938271604938272,46.27160493827161,0)" xlink:href="#aN"/><use transform="matrix(0.04938271604938272,0,0,0.04938271604938272,56.14814814814815,0)" xlink:href="#bc"/><use transform="matrix(0.04938271604938272,0,0,0.04938271604938272,68.93827160493828,0)" xlink:href="#aS"/><use transform="matrix(0.04938271604938272,0,0,0.04938271604938272,73.87654320987656,0)" xlink:href="#aT"/></g><g id="r"><use transform="matrix(0.05,0,0,0.05,0,0)" xlink:href="#aH"/><use transform="matrix(0.05,0,0,0.05,9,0)" xlink:href="#aG"/><use transform="matrix(0.05,0,0,0.05,14.949999999999998,0)" xlink:href="#aK"/><use transform="matrix(0.05,0,0,0.05,24.95,0)" xlink:href="#aF"/><use transform="matrix(0.05,0,0,0.05,34.95,0)" xlink:href="#aM"/><use transform="matrix(0.05,0,0,0.05,39.95,0)" xlink:href="#aK"/><use transform="matrix(0.05,0,0,0.05,49.95,0)" xlink:href="#aT"/><use transform="matrix(0.05,0,0,0.05,59.95,0)" xlink:href="#aW"/><use transform="matrix(0.05,0,0,0.05,71.95,0)" xlink:href="#aM"/></g><g id="s"><use transform="matrix(0.04938271604938272,0,0,0.04938271604938272,0,0)" xlink:href="#aF"/><use transform="matrix(0.04938271604938272,0,0,0.04938271604938272,9.876543209876544,0)" xlink:href="#aG"/><use transform="matrix(0.04938271604938272,0,0,0.04938271604938272,15.753086419753087,0)" xlink:href="#aH"/><use transform="matrix(0.04938271604938272,0,0,0.04938271604938272,24.641975308641978,0)" xlink:href="#aI"/><use transform="matrix(0.04938271604938272,0,0,0.04938271604938272,34.51851851851852,0)" xlink:href="#aJ"/><use transform="matrix(0.04938271604938272,0,0,0.04938271604938272,44.39506172839506,0)" xlink:href="#aK"/><use transform="matrix(0.04938271604938272,0,0,0.04938271604938272,54.27160493827161,0)" xlink:href="#aL"/><use transform="matrix(0.04938271604938272,0,0,0.04938271604938272,63.1604938271605,0)" xlink:href="#aM"/><use transform="matrix(0.04938271604938272,0,0,0.04938271604938272,68.09876543209876,0)" xlink:href="#aG"/><use transform="matrix(0.04938271604938272,0,0,0.04938271604938272,73.9753086419753,0)" xlink:href="#aF"/><use transform="matrix(0.04938271604938272,0,0,0.04938271604938272,83.85185185185185,0)" xlink:href="#aH"/><use transform="matrix(0.04938271604938272,0,0,0.04938271604938272,92.74074074074073,0)" xlink:href="#aM"/></g><g id="t"><use transform="matrix(0.05,0,0,0.05,0,0)" xlink:href="#aF"/><use transform="matrix(0.05,0,0,0.05,10,0)" xlink:href="#aG"/><use transform="matrix(0.05,0,0,0.05,15.949999999999998,0)" xlink:href="#aH"/><use transform="matrix(0.05,0,0,0.05,24.95,0)" xlink:href="#aI"/><use transform="matrix(0.05,0,0,0.05,34.95,0)" xlink:href="#aQ"/><use transform="matrix(0.05,0,0,0.05,46.95,0)" xlink:href="#aL"/><use transform="matrix(0.05,0,0,0.05,55.95,0)" xlink:href="#aM"/><use transform="matrix(0.05,0,0,0.05,60.95,0)" xlink:href="#aG"/><use transform="matrix(0.05,0,0,0.05,66.9,0)" xlink:href="#aF"/><use transform="matrix(0.05,0,0,0.05,76.9,0)" xlink:href="#aH"/><use transform="matrix(0.05,0,0,0.05,85.9,0)" xlink:href="#aM"/><use transform="matrix(0.05,0,0,0.05,90.9,0)" xlink:href="#aS"/><use transform="matrix(0.05,0,0,0.05,95.9,0)" xlink:href="#aT"/></g><g id="u"><use transform="matrix(0.05,0,0,0.05,0,0)" xlink:href="#aU"/><use transform="matrix(0.05,0,0,0.05,3.95,0)" xlink:href="#aF"/><use transform="matrix(0.05,0,0,0.05,13.949999999999998,0)" xlink:href="#aV"/><use transform="matrix(0.05,0,0,0.05,23.95,0)" xlink:href="#aK"/><use transform="matrix(0.05,0,0,0.05,33.95,0)" xlink:href="#aU"/></g><g id="v"><use transform="matrix(0.05,0,0,0.05,0,0)" xlink:href="#aF"/><use transform="matrix(0.05,0,0,0.05,10,0)" xlink:href="#aG"/><use transform="matrix(0.05,0,0,0.05,15.949999999999998,0)" xlink:href="#aH"/><use transform="matrix(0.05,0,0,0.05,24.95,0)" xlink:href="#aI"/><use transform="matrix(0.05,0,0,0.05,34.95,0)" xlink:href="#aQ"/><use transform="matrix(0.05,0,0,0.05,46.95,0)" xlink:href="#aL"/><use transform="matrix(0.05,0,0,0.05,55.95,0)" xlink:href="#aM"/><use transform="matrix(0.05,0,0,0.05,60.95,0)" xlink:href="#aG"/><use transform="matrix(0.05,0,0,0.05,66.9,0)" xlink:href="#aF"/><use transform="matrix(0.05,0,0,0.05,76.9,0)" xlink:href="#aH"/><use transform="matrix(0.05,0,0,0.05,85.9,0)" xlink:href="#aM"/><use transform="matrix(0.05,0,0,0.05,90.9,0)" xlink:href="#aS"/><use transform="matrix(0.05,0,0,0.05,95.9,0)" xlink:href="#aZ"/><use transform="matrix(0.05,0,0,0.05,105.9,0)" xlink:href="#aP"/><use transform="matrix(0.05,0,0,0.05,115.9,0)" xlink:href="#aO"/><use transform="matrix(0.05,0,0,0.05,125.9,0)" xlink:href="#aM"/></g><g id="w"><use transform="matrix(0.04938271604938272,0,0,0.04938271604938272,0,0)" xlink:href="#be"/><use transform="matrix(0.04938271604938272,0,0,0.04938271604938272,4.938271604938272,0)" xlink:href="#aK"/><use transform="matrix(0.04938271604938272,0,0,0.04938271604938272,14.814814814814817,0)" xlink:href="#aF"/><use transform="matrix(0.04938271604938272,0,0,0.04938271604938272,24.69135802469136,0)" xlink:href="#aM"/><use transform="matrix(0.04938271604938272,0,0,0.04938271604938272,29.629629629629633,0)" xlink:href="#aO"/><use transform="matrix(0.04938271604938272,0,0,0.04938271604938272,39.50617283950618,0)" xlink:href="#aG"/><use transform="matrix(0.04938271604938272,0,0,0.04938271604938272,45.38271604938272,0)" xlink:href="#aK"/><use transform="matrix(0.04938271604938272,0,0,0.04938271604938272,55.25925925925927,0)" xlink:href="#aJ"/><use transform="matrix(0.04938271604938272,0,0,0.04938271604938272,65.13580246913581,0)" xlink:href="#ba"/><use transform="matrix(0.04938271604938272,0,0,0.04938271604938272,79.90123456790124,0)" xlink:href="#aN"/><use transform="matrix(0.04938271604938272,0,0,0.04938271604938272,89.77777777777779,0)" xlink:href="#aT"/><use transform="matrix(0.04938271604938272,0,0,0.04938271604938272,99.65432098765433,0)" xlink:href="#aK"/><use transform="matrix(0.04938271604938272,0,0,0.04938271604938272,109.53086419753087,0)" xlink:href="#aU"/><use transform="matrix(0.04938271604938272,0,0,0.04938271604938272,113.4320987654321,0)" xlink:href="#bf"/></g><g id="x"><use transform="matrix(0.05,0,0,0.05,0,0)" xlink:href="#aO"/><use transform="matrix(0.05,0,0,0.05,10,0)" xlink:href="#aY"/><use transform="matrix(0.05,0,0,0.05,13.949999999999998,0)" xlink:href="#aT"/></g><g id="y"><use transform="matrix(0.05,0,0,0.05,0,0)" xlink:href="#be"/><use transform="matrix(0.05,0,0,0.05,5,0)" xlink:href="#aY"/><use transform="matrix(0.05,0,0,0.05,8.95,0)" xlink:href="#aU"/><use transform="matrix(0.05,0,0,0.05,12.899999999999999,0)" xlink:href="#aK"/><use transform="matrix(0.05,0,0,0.05,22.9,0)" xlink:href="#aZ"/><use transform="matrix(0.05,0,0,0.05,32.9,0)" xlink:href="#aF"/><use transform="matrix(0.05,0,0,0.05,42.9,0)" xlink:href="#ba"/><use transform="matrix(0.05,0,0,0.05,57.85,0)" xlink:href="#aK"/></g><g id="z"><use transform="matrix(0.05,0,0,0.05,0,0)" xlink:href="#bf"/><use transform="matrix(0.05,0,0,0.05,9,0)" xlink:href="#aN"/><use transform="matrix(0.05,0,0,0.05,19,0)" xlink:href="#aO"/><use transform="matrix(0.05,0,0,0.05,29,0)" xlink:href="#aG"/><use transform="matrix(0.05,0,0,0.05,34.95,0)" xlink:href="#aH"/><use transform="matrix(0.05,0,0,0.05,43.95,0)" xlink:href="#aK"/></g><g id="A"><use transform="matrix(0.05,0,0,0.05,0,0)" xlink:href="#aH"/><use transform="matrix(0.05,0,0,0.05,9,0)" xlink:href="#aN"/><use transform="matrix(0.05,0,0,0.05,19,0)" xlink:href="#aZ"/><use transform="matrix(0.05,0,0,0.05,29,0)" xlink:href="#be"/><use transform="matrix(0.05,0,0,0.05,34,0)" xlink:href="#aM"/><use transform="matrix(0.05,0,0,0.05,39,0)" xlink:href="#aG"/><use transform="matrix(0.05,0,0,0.05,44.95,0)" xlink:href="#aK"/><use transform="matrix(0.05,0,0,0.05,54.95,0)" xlink:href="#aK"/></g><g id="B"><use transform="matrix(0.05,0,0,0.05,0,0)" xlink:href="#aI"/><use transform="matrix(0.05,0,0,0.05,10,0)" xlink:href="#aF"/><use transform="matrix(0.05,0,0,0.05,20,0)" xlink:href="#bf"/><use transform="matrix(0.05,0,0,0.05,29,0)" xlink:href="#aI"/></g><path d="M177-190C167-65 218 103 67 71c-23-6-38-20-44-43l32-5c15 47 100 32 89-28v-30C133-14 115 1 83 1 29 1 15-40 15-95c0-56 16-97 71-98 29-1 48 16 59 35 1-10 0-23 2-32h30zM94-22c36 0 50-32 50-73 0-42-14-75-50-75-39 0-46 34-46 75s6 73 46 73" id="bg"/><g id="C"><use transform="matrix(0.05,0,0,0.05,0,0)" xlink:href="#aH"/><use transform="matrix(0.05,0,0,0.05,9,0)" xlink:href="#aN"/><use transform="matrix(0.05,0,0,0.05,19,0)" xlink:href="#aZ"/><use transform="matrix(0.05,0,0,0.05,29,0)" xlink:href="#be"/><use transform="matrix(0.05,0,0,0.05,34,0)" xlink:href="#aY"/><use transform="matrix(0.05,0,0,0.05,37.95,0)" xlink:href="#bg"/><use transform="matrix(0.05,0,0,0.05,47.95,0)" xlink:href="#bf"/></g><path d="M185-189c-5-48-123-54-124 2 14 75 158 14 163 119 3 78-121 87-175 55-17-10-28-26-33-46l33-7c5 56 141 63 141-1 0-78-155-14-162-118-5-82 145-84 179-34 5 7 8 16 11 25" id="bh"/><path d="M179-190L93 31C79 59 56 82 12 73V49c39 6 53-20 64-50L1-190h34L92-34l54-156h33" id="bi"/><g id="D"><use transform="matrix(0.04938271604938272,0,0,0.04938271604938272,0,0)" xlink:href="#bh"/><use transform="matrix(0.04938271604938272,0,0,0.04938271604938272,11.851851851851853,0)" xlink:href="#bi"/><use transform="matrix(0.04938271604938272,0,0,0.04938271604938272,20.74074074074074,0)" xlink:href="#bf"/><use transform="matrix(0.04938271604938272,0,0,0.04938271604938272,29.629629629629633,0)" xlink:href="#aM"/><use transform="matrix(0.04938271604938272,0,0,0.04938271604938272,34.5679012345679,0)" xlink:href="#aK"/><use transform="matrix(0.04938271604938272,0,0,0.04938271604938272,44.44444444444444,0)" xlink:href="#ba"/><use transform="matrix(0.04938271604938272,0,0,0.04938271604938272,59.20987654320987,0)" xlink:href="#bb"/><use transform="matrix(0.04938271604938272,0,0,0.04938271604938272,72,0)" xlink:href="#aN"/><use transform="matrix(0.04938271604938272,0,0,0.04938271604938272,81.87654320987654,0)" xlink:href="#aZ"/><use transform="matrix(0.04938271604938272,0,0,0.04938271604938272,91.75308641975309,0)" xlink:href="#be"/><use transform="matrix(0.04938271604938272,0,0,0.04938271604938272,96.69135802469137,0)" xlink:href="#aY"/><use transform="matrix(0.04938271604938272,0,0,0.04938271604938272,100.59259259259261,0)" xlink:href="#bg"/><use transform="matrix(0.04938271604938272,0,0,0.04938271604938272,110.46913580246914,0)" xlink:href="#aO"/><use transform="matrix(0.04938271604938272,0,0,0.04938271604938272,120.34567901234568,0)" xlink:href="#aG"/><use transform="matrix(0.04938271604938272,0,0,0.04938271604938272,126.22222222222223,0)" xlink:href="#aF"/><use transform="matrix(0.04938271604938272,0,0,0.04938271604938272,136.0987654320988,0)" xlink:href="#aM"/><use transform="matrix(0.04938271604938272,0,0,0.04938271604938272,141.03703703703707,0)" xlink:href="#aY"/><use transform="matrix(0.04938271604938272,0,0,0.04938271604938272,144.9382716049383,0)" xlink:href="#aN"/><use transform="matrix(0.04938271604938272,0,0,0.04938271604938272,154.81481481481484,0)" xlink:href="#aZ"/><use transform="matrix(0.04938271604938272,0,0,0.04938271604938272,164.6913580246914,0)" xlink:href="#aS"/><use transform="matrix(0.04938271604938272,0,0,0.04938271604938272,169.62962962962968,0)" xlink:href="#aZ"/><use transform="matrix(0.04938271604938272,0,0,0.04938271604938272,179.50617283950623,0)" xlink:href="#aP"/><use transform="matrix(0.04938271604938272,0,0,0.04938271604938272,189.3827160493828,0)" xlink:href="#aO"/><use transform="matrix(0.04938271604938272,0,0,0.04938271604938272,199.25925925925935,0)" xlink:href="#aM"/><use transform="matrix(0.04938271604938272,0,0,0.04938271604938272,204.19753086419763,0)" xlink:href="#bf"/></g><g id="E"><use transform="matrix(0.05,0,0,0.05,0,0)" xlink:href="#bf"/><use transform="matrix(0.05,0,0,0.05,9,0)" xlink:href="#bi"/><use transform="matrix(0.05,0,0,0.05,18,0)" xlink:href="#bf"/><use transform="matrix(0.05,0,0,0.05,27,0)" xlink:href="#bb"/><use transform="matrix(0.05,0,0,0.05,39.95,0)" xlink:href="#aN"/><use transform="matrix(0.05,0,0,0.05,49.95,0)" xlink:href="#aZ"/><use transform="matrix(0.05,0,0,0.05,59.95,0)" xlink:href="#be"/><use transform="matrix(0.05,0,0,0.05,64.95,0)" xlink:href="#aY"/><use transform="matrix(0.05,0,0,0.05,68.9,0)" xlink:href="#bg"/><use transform="matrix(0.05,0,0,0.05,78.9,0)" xlink:href="#aS"/><use transform="matrix(0.05,0,0,0.05,83.9,0)" xlink:href="#aT"/></g><g id="F"><use transform="matrix(0.05,0,0,0.05,0,0)" xlink:href="#aO"/><use transform="matrix(0.05,0,0,0.05,10,0)" xlink:href="#aP"/><use transform="matrix(0.05,0,0,0.05,20,0)" xlink:href="#aT"/><use transform="matrix(0.05,0,0,0.05,30,0)" xlink:href="#aF"/><use transform="matrix(0.05,0,0,0.05,40,0)" xlink:href="#aM"/><use transform="matrix(0.05,0,0,0.05,45,0)" xlink:href="#aK"/><use transform="matrix(0.05,0,0,0.05,55,0)" xlink:href="#aT"/><use transform="matrix(0.05,0,0,0.05,65,0)" xlink:href="#aW"/><use transform="matrix(0.05,0,0,0.05,77,0)" xlink:href="#aM"/></g><g id="G"><use transform="matrix(0.05,0,0,0.05,0,0)" xlink:href="#bc"/><use transform="matrix(0.05,0,0,0.05,12.950000000000001,0)" xlink:href="#aN"/><use transform="matrix(0.05,0,0,0.05,22.950000000000003,0)" xlink:href="#aG"/><use transform="matrix(0.05,0,0,0.05,28.900000000000002,0)" xlink:href="#bd"/><use transform="matrix(0.05,0,0,0.05,37.900000000000006,0)" xlink:href="#be"/><use transform="matrix(0.05,0,0,0.05,42.900000000000006,0)" xlink:href="#aU"/><use transform="matrix(0.05,0,0,0.05,46.85000000000001,0)" xlink:href="#aN"/><use transform="matrix(0.05,0,0,0.05,56.85,0)" xlink:href="#bc"/><use transform="matrix(0.05,0,0,0.05,69.80000000000001,0)" xlink:href="#aS"/><use transform="matrix(0.05,0,0,0.05,74.80000000000001,0)" xlink:href="#aT"/></g><g id="H"><use transform="matrix(0.04938271604938272,0,0,0.04938271604938272,0,0)" xlink:href="#aH"/><use transform="matrix(0.04938271604938272,0,0,0.04938271604938272,8.88888888888889,0)" xlink:href="#aN"/><use transform="matrix(0.04938271604938272,0,0,0.04938271604938272,18.765432098765434,0)" xlink:href="#aZ"/><use transform="matrix(0.04938271604938272,0,0,0.04938271604938272,28.641975308641978,0)" xlink:href="#be"/><use transform="matrix(0.04938271604938272,0,0,0.04938271604938272,33.580246913580254,0)" xlink:href="#aY"/><use transform="matrix(0.04938271604938272,0,0,0.04938271604938272,37.48148148148149,0)" xlink:href="#bg"/><use transform="matrix(0.04938271604938272,0,0,0.04938271604938272,47.35802469135803,0)" xlink:href="#aS"/><use transform="matrix(0.04938271604938272,0,0,0.04938271604938272,52.2962962962963,0)" xlink:href="#aZ"/><use transform="matrix(0.04938271604938272,0,0,0.04938271604938272,62.17283950617284,0)" xlink:href="#aP"/><use transform="matrix(0.04938271604938272,0,0,0.04938271604938272,72.0493827160494,0)" xlink:href="#aO"/><use transform="matrix(0.04938271604938272,0,0,0.04938271604938272,81.92592592592594,0)" xlink:href="#aM"/></g><path d="M153-248C145-148 188 4 80 4 36 3 13-21 6-62l32-5c4 25 16 42 43 43 27 0 39-20 39-49v-147H72v-28h81" id="bj"/><g id="I"><use transform="matrix(0.04938271604938272,0,0,0.04938271604938272,0,0)" xlink:href="#bj"/><use transform="matrix(0.04938271604938272,0,0,0.04938271604938272,8.88888888888889,0)" xlink:href="#aN"/><use transform="matrix(0.04938271604938272,0,0,0.04938271604938272,18.765432098765434,0)" xlink:href="#aV"/></g><path d="M24-231v-30h32v30H24zM-9 49c24 4 33-6 33-30v-209h32V24c2 40-23 58-65 49V49" id="bk"/><g id="J"><use transform="matrix(0.05,0,0,0.05,0,0)" xlink:href="#bk"/><use transform="matrix(0.05,0,0,0.05,3.95,0)" xlink:href="#aN"/><use transform="matrix(0.05,0,0,0.05,13.949999999999998,0)" xlink:href="#aV"/><use transform="matrix(0.05,0,0,0.05,23.95,0)" xlink:href="#aS"/><use transform="matrix(0.05,0,0,0.05,28.950000000000003,0)" xlink:href="#aT"/></g><g id="K"><use transform="matrix(0.05,0,0,0.05,0,0)" xlink:href="#bf"/><use transform="matrix(0.05,0,0,0.05,9,0)" xlink:href="#aM"/><use transform="matrix(0.05,0,0,0.05,14,0)" xlink:href="#aF"/><use transform="matrix(0.05,0,0,0.05,24,0)" xlink:href="#aM"/><use transform="matrix(0.05,0,0,0.05,29,0)" xlink:href="#aO"/><use transform="matrix(0.05,0,0,0.05,39,0)" xlink:href="#bf"/><use transform="matrix(0.05,0,0,0.05,48,0)" xlink:href="#aS"/><use transform="matrix(0.05,0,0,0.05,53,0)" xlink:href="#aT"/></g><path d="M108 0H70L1-190h34L89-25l56-165h34" id="bl"/><path d="M30-248c87 1 191-15 191 75 0 78-77 80-158 76V0H30v-248zm33 125c57 0 124 11 124-50 0-59-68-47-124-48v98" id="bm"/><g id="L"><use transform="matrix(0.05,0,0,0.05,0,0)" xlink:href="#aT"/><use transform="matrix(0.05,0,0,0.05,10,0)" xlink:href="#aK"/><use transform="matrix(0.05,0,0,0.05,20,0)" xlink:href="#aG"/><use transform="matrix(0.05,0,0,0.05,25.950000000000003,0)" xlink:href="#aY"/><use transform="matrix(0.05,0,0,0.05,29.899999999999995,0)" xlink:href="#bl"/><use transform="matrix(0.05,0,0,0.05,38.9,0)" xlink:href="#aF"/><use transform="matrix(0.05,0,0,0.05,48.9,0)" xlink:href="#aM"/><use transform="matrix(0.05,0,0,0.05,53.900000000000006,0)" xlink:href="#aY"/><use transform="matrix(0.05,0,0,0.05,57.85,0)" xlink:href="#aN"/><use transform="matrix(0.05,0,0,0.05,67.85,0)" xlink:href="#aZ"/><use transform="matrix(0.05,0,0,0.05,77.85,0)" xlink:href="#aX"/><use transform="matrix(0.05,0,0,0.05,88.8,0)" xlink:href="#aY"/><use transform="matrix(0.05,0,0,0.05,92.75,0)" xlink:href="#aU"/><use transform="matrix(0.05,0,0,0.05,96.7,0)" xlink:href="#aK"/><use transform="matrix(0.05,0,0,0.05,106.7,0)" xlink:href="#bm"/><use transform="matrix(0.05,0,0,0.05,118.7,0)" xlink:href="#aF"/><use transform="matrix(0.05,0,0,0.05,128.7,0)" xlink:href="#aM"/><use transform="matrix(0.05,0,0,0.05,133.7,0)" xlink:href="#aI"/></g><g id="M"><use transform="matrix(0.05,0,0,0.05,0,0)" xlink:href="#aZ"/><use transform="matrix(0.05,0,0,0.05,10,0)" xlink:href="#aY"/><use transform="matrix(0.05,0,0,0.05,13.949999999999998,0)" xlink:href="#aL"/><use transform="matrix(0.05,0,0,0.05,22.95,0)" xlink:href="#bh"/><use transform="matrix(0.05,0,0,0.05,34.95,0)" xlink:href="#aM"/><use transform="matrix(0.05,0,0,0.05,39.95,0)" xlink:href="#aN"/><use transform="matrix(0.05,0,0,0.05,49.95,0)" xlink:href="#aG"/><use transform="matrix(0.05,0,0,0.05,55.900000000000006,0)" xlink:href="#aK"/><use transform="matrix(0.05,0,0,0.05,65.9,0)" xlink:href="#bm"/><use transform="matrix(0.05,0,0,0.05,77.9,0)" xlink:href="#aF"/><use transform="matrix(0.05,0,0,0.05,87.9,0)" xlink:href="#aM"/><use transform="matrix(0.05,0,0,0.05,92.9,0)" xlink:href="#aI"/></g><g id="N"><use transform="matrix(0.05,0,0,0.05,0,0)" xlink:href="#aU"/><use transform="matrix(0.05,0,0,0.05,3.95,0)" xlink:href="#aN"/><use transform="matrix(0.05,0,0,0.05,13.949999999999998,0)" xlink:href="#bg"/><use transform="matrix(0.05,0,0,0.05,23.95,0)" xlink:href="#aX"/><use transform="matrix(0.05,0,0,0.05,34.9,0)" xlink:href="#aY"/><use transform="matrix(0.05,0,0,0.05,38.85,0)" xlink:href="#aU"/><use transform="matrix(0.05,0,0,0.05,42.800000000000004,0)" xlink:href="#aK"/><use transform="matrix(0.05,0,0,0.05,52.800000000000004,0)" xlink:href="#bm"/><use transform="matrix(0.05,0,0,0.05,64.80000000000001,0)" xlink:href="#aF"/><use transform="matrix(0.05,0,0,0.05,74.80000000000001,0)" xlink:href="#aM"/><use transform="matrix(0.05,0,0,0.05,79.80000000000001,0)" xlink:href="#aI"/></g><g id="O"><use transform="matrix(0.04938271604938272,0,0,0.04938271604938272,0,0)" xlink:href="#bj"/><use transform="matrix(0.04938271604938272,0,0,0.04938271604938272,8.88888888888889,0)" xlink:href="#aN"/><use transform="matrix(0.04938271604938272,0,0,0.04938271604938272,18.765432098765434,0)" xlink:href="#aV"/><use transform="matrix(0.04938271604938272,0,0,0.04938271604938272,28.641975308641978,0)" xlink:href="#bh"/><use transform="matrix(0.04938271604938272,0,0,0.04938271604938272,40.49382716049383,0)" xlink:href="#aM"/><use transform="matrix(0.04938271604938272,0,0,0.04938271604938272,45.4320987654321,0)" xlink:href="#aF"/><use transform="matrix(0.04938271604938272,0,0,0.04938271604938272,55.308641975308646,0)" xlink:href="#aM"/><use transform="matrix(0.04938271604938272,0,0,0.04938271604938272,60.24691358024692,0)" xlink:href="#aO"/><use transform="matrix(0.04938271604938272,0,0,0.04938271604938272,70.12345679012347,0)" xlink:href="#bf"/></g><g id="P"><use transform="matrix(0.04938271604938272,0,0,0.04938271604938272,0,0)" xlink:href="#aH"/><use transform="matrix(0.04938271604938272,0,0,0.04938271604938272,8.88888888888889,0)" xlink:href="#bc"/><use transform="matrix(0.04938271604938272,0,0,0.04938271604938272,21.679012345679013,0)" xlink:href="#aK"/><use transform="matrix(0.04938271604938272,0,0,0.04938271604938272,31.555555555555557,0)" xlink:href="#bh"/><use transform="matrix(0.04938271604938272,0,0,0.04938271604938272,43.40740740740741,0)" xlink:href="#aH"/><use transform="matrix(0.04938271604938272,0,0,0.04938271604938272,52.2962962962963,0)" xlink:href="#aN"/><use transform="matrix(0.04938271604938272,0,0,0.04938271604938272,62.17283950617284,0)" xlink:href="#aG"/><use transform="matrix(0.04938271604938272,0,0,0.04938271604938272,68.0493827160494,0)" xlink:href="#aK"/><use transform="matrix(0.04938271604938272,0,0,0.04938271604938272,77.92592592592594,0)" xlink:href="#bf"/></g><g id="Q"><use transform="matrix(0.05,0,0,0.05,0,0)" xlink:href="#bf"/><use transform="matrix(0.05,0,0,0.05,9,0)" xlink:href="#aH"/><use transform="matrix(0.05,0,0,0.05,18,0)" xlink:href="#aN"/><use transform="matrix(0.05,0,0,0.05,28,0)" xlink:href="#aG"/><use transform="matrix(0.05,0,0,0.05,33.95,0)" xlink:href="#aK"/><use transform="matrix(0.05,0,0,0.05,43.95,0)" xlink:href="#aS"/><use transform="matrix(0.05,0,0,0.05,48.95,0)" xlink:href="#aT"/></g><g id="R"><use transform="matrix(0.05,0,0,0.05,0,0)" xlink:href="#aG"/><use transform="matrix(0.05,0,0,0.05,5.95,0)" xlink:href="#aK"/><use transform="matrix(0.05,0,0,0.05,15.949999999999998,0)" xlink:href="#aP"/><use transform="matrix(0.05,0,0,0.05,25.950000000000003,0)" xlink:href="#aN"/><use transform="matrix(0.05,0,0,0.05,35.95,0)" xlink:href="#aG"/><use transform="matrix(0.05,0,0,0.05,41.900000000000006,0)" xlink:href="#aM"/><use transform="matrix(0.05,0,0,0.05,46.900000000000006,0)" xlink:href="#bj"/><use transform="matrix(0.05,0,0,0.05,55.900000000000006,0)" xlink:href="#aN"/><use transform="matrix(0.05,0,0,0.05,65.9,0)" xlink:href="#aV"/><use transform="matrix(0.05,0,0,0.05,75.9,0)" xlink:href="#aS"/><use transform="matrix(0.05,0,0,0.05,80.9,0)" xlink:href="#aT"/></g><g id="S"><use transform="matrix(0.05,0,0,0.05,0,0)" xlink:href="#aH"/><use transform="matrix(0.05,0,0,0.05,9,0)" xlink:href="#bc"/><use transform="matrix(0.05,0,0,0.05,21.950000000000003,0)" xlink:href="#aK"/></g><g id="T"><use transform="matrix(0.05,0,0,0.05,0,0)" xlink:href="#bf"/><use transform="matrix(0.05,0,0,0.05,9,0)" xlink:href="#aH"/><use transform="matrix(0.05,0,0,0.05,18,0)" xlink:href="#aN"/><use transform="matrix(0.05,0,0,0.05,28,0)" xlink:href="#aG"/><use transform="matrix(0.05,0,0,0.05,33.95,0)" xlink:href="#aK"/></g><g id="U"><use transform="matrix(0.05,0,0,0.05,0,0)" xlink:href="#aZ"/><use transform="matrix(0.05,0,0,0.05,10,0)" xlink:href="#aN"/><use transform="matrix(0.05,0,0,0.05,20,0)" xlink:href="#aM"/><use transform="matrix(0.05,0,0,0.05,25,0)" xlink:href="#aK"/><use transform="matrix(0.05,0,0,0.05,35,0)" xlink:href="#bf"/></g><g id="V"><use transform="matrix(0.04938271604938272,0,0,0.04938271604938272,0,0)" xlink:href="#aM"/><use transform="matrix(0.04938271604938272,0,0,0.04938271604938272,4.938271604938272,0)" xlink:href="#aK"/><use transform="matrix(0.04938271604938272,0,0,0.04938271604938272,14.814814814814817,0)" xlink:href="#bf"/><use transform="matrix(0.04938271604938272,0,0,0.04938271604938272,23.703703703703706,0)" xlink:href="#aM"/><use transform="matrix(0.04938271604938272,0,0,0.04938271604938272,28.641975308641978,0)" xlink:href="#bg"/><use transform="matrix(0.04938271604938272,0,0,0.04938271604938272,38.51851851851852,0)" xlink:href="#aK"/><use transform="matrix(0.04938271604938272,0,0,0.04938271604938272,48.39506172839506,0)" xlink:href="#aZ"/><use transform="matrix(0.04938271604938272,0,0,0.04938271604938272,58.27160493827161,0)" xlink:href="#bb"/><use transform="matrix(0.04938271604938272,0,0,0.04938271604938272,71.06172839506173,0)" xlink:href="#aN"/><use transform="matrix(0.04938271604938272,0,0,0.04938271604938272,80.93827160493828,0)" xlink:href="#aZ"/><use transform="matrix(0.04938271604938272,0,0,0.04938271604938272,90.81481481481482,0)" xlink:href="#be"/><use transform="matrix(0.04938271604938272,0,0,0.04938271604938272,95.75308641975309,0)" xlink:href="#aY"/><use transform="matrix(0.04938271604938272,0,0,0.04938271604938272,99.65432098765433,0)" xlink:href="#bg"/><use transform="matrix(0.04938271604938272,0,0,0.04938271604938272,109.53086419753087,0)" xlink:href="#aS"/><use transform="matrix(0.04938271604938272,0,0,0.04938271604938272,114.46913580246914,0)" xlink:href="#aZ"/><use transform="matrix(0.04938271604938272,0,0,0.04938271604938272,124.34567901234568,0)" xlink:href="#aP"/><use transform="matrix(0.04938271604938272,0,0,0.04938271604938272,134.22222222222223,0)" xlink:href="#aO"/><use transform="matrix(0.04938271604938272,0,0,0.04938271604938272,144.0987654320988,0)" xlink:href="#aM"/><use transform="matrix(0.04938271604938272,0,0,0.04938271604938272,149.03703703703707,0)" xlink:href="#bf"/></g><g id="W"><use transform="matrix(0.05,0,0,0.05,0,0)" xlink:href="#aM"/><use transform="matrix(0.05,0,0,0.05,5,0)" xlink:href="#aK"/><use transform="matrix(0.05,0,0,0.05,15,0)" xlink:href="#bf"/><use transform="matrix(0.05,0,0,0.05,24,0)" xlink:href="#aM"/><use transform="matrix(0.05,0,0,0.05,29,0)" xlink:href="#bg"/><use transform="matrix(0.05,0,0,0.05,39,0)" xlink:href="#aK"/><use transform="matrix(0.05,0,0,0.05,49,0)" xlink:href="#aZ"/><use transform="matrix(0.05,0,0,0.05,59,0)" xlink:href="#bb"/><use transform="matrix(0.05,0,0,0.05,71.95,0)" xlink:href="#aN"/><use transform="matrix(0.05,0,0,0.05,81.95,0)" xlink:href="#aZ"/><use transform="matrix(0.05,0,0,0.05,91.95,0)" xlink:href="#be"/><use transform="matrix(0.05,0,0,0.05,96.95,0)" xlink:href="#aY"/><use transform="matrix(0.05,0,0,0.05,100.9,0)" xlink:href="#bg"/><use transform="matrix(0.05,0,0,0.05,110.9,0)" xlink:href="#aS"/><use transform="matrix(0.05,0,0,0.05,115.9,0)" xlink:href="#aT"/></g><g id="X"><use transform="matrix(0.05,0,0,0.05,0,0)" xlink:href="#aU"/><use transform="matrix(0.05,0,0,0.05,3.95,0)" xlink:href="#aF"/><use transform="matrix(0.05,0,0,0.05,13.949999999999998,0)" xlink:href="#aV"/><use transform="matrix(0.05,0,0,0.05,23.95,0)" xlink:href="#aK"/><use transform="matrix(0.05,0,0,0.05,33.95,0)" xlink:href="#aU"/></g><g id="Y"><use transform="matrix(0.05,0,0,0.05,0,0)" xlink:href="#aH"/><use transform="matrix(0.05,0,0,0.05,9,0)" xlink:href="#aG"/><use transform="matrix(0.05,0,0,0.05,14.949999999999998,0)" xlink:href="#aK"/><use transform="matrix(0.05,0,0,0.05,24.95,0)" xlink:href="#aF"/><use transform="matrix(0.05,0,0,0.05,34.95,0)" xlink:href="#aM"/><use transform="matrix(0.05,0,0,0.05,39.95,0)" xlink:href="#aK"/><use transform="matrix(0.05,0,0,0.05,49.95,0)" xlink:href="#aT"/><use transform="matrix(0.05,0,0,0.05,59.95,0)" xlink:href="#aW"/><use transform="matrix(0.05,0,0,0.05,71.95,0)" xlink:href="#aM"/></g><g id="Z"><use transform="matrix(0.05,0,0,0.05,0,0)" xlink:href="#aH"/><use transform="matrix(0.05,0,0,0.05,9,0)" xlink:href="#aN"/><use transform="matrix(0.05,0,0,0.05,19,0)" xlink:href="#aZ"/><use transform="matrix(0.05,0,0,0.05,29,0)" xlink:href="#be"/><use transform="matrix(0.05,0,0,0.05,34,0)" xlink:href="#aY"/><use transform="matrix(0.05,0,0,0.05,37.95,0)" xlink:href="#bg"/><use transform="matrix(0.05,0,0,0.05,47.95,0)" xlink:href="#aS"/><use transform="matrix(0.05,0,0,0.05,52.95,0)" xlink:href="#aZ"/><use transform="matrix(0.05,0,0,0.05,62.95,0)" xlink:href="#aP"/><use transform="matrix(0.05,0,0,0.05,72.95,0)" xlink:href="#aO"/><use transform="matrix(0.05,0,0,0.05,82.95,0)" xlink:href="#aM"/></g><path d="M137 0h-34L2-248h35l83 218 83-218h36" id="bn"/><g id="aa"><use transform="matrix(0.04938271604938272,0,0,0.04938271604938272,0,0)" xlink:href="#bn"/><use transform="matrix(0.04938271604938272,0,0,0.04938271604938272,11.209876543209878,0)" xlink:href="#aO"/><use transform="matrix(0.04938271604938272,0,0,0.04938271604938272,21.086419753086425,0)" xlink:href="#aU"/><use transform="matrix(0.04938271604938272,0,0,0.04938271604938272,24.98765432098766,0)" xlink:href="#aZ"/><use transform="matrix(0.04938271604938272,0,0,0.04938271604938272,34.8641975308642,0)" xlink:href="#aK"/><use transform="matrix(0.04938271604938272,0,0,0.04938271604938272,44.74074074074075,0)" xlink:href="#aG"/><use transform="matrix(0.04938271604938272,0,0,0.04938271604938272,50.617283950617285,0)" xlink:href="#aF"/><use transform="matrix(0.04938271604938272,0,0,0.04938271604938272,60.49382716049383,0)" xlink:href="#aV"/><use transform="matrix(0.04938271604938272,0,0,0.04938271604938272,70.37037037037038,0)" xlink:href="#aY"/><use transform="matrix(0.04938271604938272,0,0,0.04938271604938272,74.27160493827162,0)" xlink:href="#aU"/><use transform="matrix(0.04938271604938272,0,0,0.04938271604938272,78.17283950617286,0)" xlink:href="#aY"/><use transform="matrix(0.04938271604938272,0,0,0.04938271604938272,82.0740740740741,0)" xlink:href="#aM"/><use transform="matrix(0.04938271604938272,0,0,0.04938271604938272,87.01234567901238,0)" xlink:href="#bi"/><use transform="matrix(0.04938271604938272,0,0,0.04938271604938272,95.90123456790127,0)" xlink:href="#bb"/><use transform="matrix(0.04938271604938272,0,0,0.04938271604938272,108.6913580246914,0)" xlink:href="#aN"/><use transform="matrix(0.04938271604938272,0,0,0.04938271604938272,118.56790123456793,0)" xlink:href="#aZ"/><use transform="matrix(0.04938271604938272,0,0,0.04938271604938272,128.44444444444449,0)" xlink:href="#be"/><use transform="matrix(0.04938271604938272,0,0,0.04938271604938272,133.38271604938276,0)" xlink:href="#aY"/><use transform="matrix(0.04938271604938272,0,0,0.04938271604938272,137.283950617284,0)" xlink:href="#bg"/><use transform="matrix(0.04938271604938272,0,0,0.04938271604938272,147.16049382716056,0)" xlink:href="#aO"/><use transform="matrix(0.04938271604938272,0,0,0.04938271604938272,157.03703703703712,0)" xlink:href="#aG"/><use transform="matrix(0.04938271604938272,0,0,0.04938271604938272,162.91358024691365,0)" xlink:href="#aF"/><use transform="matrix(0.04938271604938272,0,0,0.04938271604938272,172.79012345679018,0)" xlink:href="#aM"/><use transform="matrix(0.04938271604938272,0,0,0.04938271604938272,177.72839506172846,0)" xlink:href="#aY"/><use transform="matrix(0.04938271604938272,0,0,0.04938271604938272,181.6296296296297,0)" xlink:href="#aN"/><use transform="matrix(0.04938271604938272,0,0,0.04938271604938272,191.50617283950623,0)" xlink:href="#aZ"/><use transform="matrix(0.04938271604938272,0,0,0.04938271604938272,201.3827160493828,0)" xlink:href="#aS"/><use transform="matrix(0.04938271604938272,0,0,0.04938271604938272,206.3209876543211,0)" xlink:href="#aZ"/><use transform="matrix(0.04938271604938272,0,0,0.04938271604938272,216.19753086419763,0)" xlink:href="#aP"/><use transform="matrix(0.04938271604938272,0,0,0.04938271604938272,226.0740740740742,0)" xlink:href="#aO"/><use transform="matrix(0.04938271604938272,0,0,0.04938271604938272,235.95061728395072,0)" xlink:href="#aM"/><use transform="matrix(0.04938271604938272,0,0,0.04938271604938272,240.88888888888906,0)" xlink:href="#bf"/></g><g id="ab"><use transform="matrix(0.05,0,0,0.05,0,0)" xlink:href="#bl"/><use transform="matrix(0.05,0,0,0.05,9,0)" xlink:href="#aO"/><use transform="matrix(0.05,0,0,0.05,19,0)" xlink:href="#aU"/><use transform="matrix(0.05,0,0,0.05,22.95,0)" xlink:href="#aZ"/><use transform="matrix(0.05,0,0,0.05,32.95,0)" xlink:href="#bb"/><use transform="matrix(0.05,0,0,0.05,45.900000000000006,0)" xlink:href="#aN"/><use transform="matrix(0.05,0,0,0.05,55.900000000000006,0)" xlink:href="#aZ"/><use transform="matrix(0.05,0,0,0.05,65.9,0)" xlink:href="#be"/><use transform="matrix(0.05,0,0,0.05,70.9,0)" xlink:href="#aY"/><use transform="matrix(0.05,0,0,0.05,74.85000000000001,0)" xlink:href="#bg"/><use transform="matrix(0.05,0,0,0.05,84.85000000000001,0)" xlink:href="#aS"/><use transform="matrix(0.05,0,0,0.05,89.85000000000001,0)" xlink:href="#aT"/></g><g id="ac"><use transform="matrix(0.05,0,0,0.05,0,0)" xlink:href="#bl"/><use transform="matrix(0.05,0,0,0.05,9,0)" xlink:href="#aO"/><use transform="matrix(0.05,0,0,0.05,19,0)" xlink:href="#aU"/><use transform="matrix(0.05,0,0,0.05,22.95,0)" xlink:href="#aZ"/><use transform="matrix(0.05,0,0,0.05,32.95,0)" xlink:href="#bb"/><use transform="matrix(0.05,0,0,0.05,45.900000000000006,0)" xlink:href="#aU"/><use transform="matrix(0.05,0,0,0.05,49.85000000000001,0)" xlink:href="#aF"/><use transform="matrix(0.05,0,0,0.05,59.85,0)" xlink:href="#bf"/><use transform="matrix(0.05,0,0,0.05,68.85000000000001,0)" xlink:href="#bf"/></g><path d="M240 0l2-218c-23 76-54 145-80 218h-23L58-218 59 0H30v-248h44l77 211c21-75 51-140 76-211h43V0h-30" id="bo"/><path d="M232-93c-1 65-40 97-104 97C67 4 28-28 28-90v-158h33c8 89-33 224 67 224 102 0 64-133 71-224h33v155" id="bp"/><g id="ad"><use transform="matrix(0.05,0,0,0.05,0,0)" xlink:href="#be"/><use transform="matrix(0.05,0,0,0.05,5,0)" xlink:href="#aK"/><use transform="matrix(0.05,0,0,0.05,15,0)" xlink:href="#aF"/><use transform="matrix(0.05,0,0,0.05,25,0)" xlink:href="#aM"/><use transform="matrix(0.05,0,0,0.05,30,0)" xlink:href="#aO"/><use transform="matrix(0.05,0,0,0.05,40,0)" xlink:href="#aG"/><use transform="matrix(0.05,0,0,0.05,45.95,0)" xlink:href="#aK"/><use transform="matrix(0.05,0,0,0.05,55.95,0)" xlink:href="#bo"/><use transform="matrix(0.05,0,0,0.05,70.9,0)" xlink:href="#aN"/><use transform="matrix(0.05,0,0,0.05,80.9,0)" xlink:href="#aT"/><use transform="matrix(0.05,0,0,0.05,90.9,0)" xlink:href="#aK"/><use transform="matrix(0.05,0,0,0.05,100.9,0)" xlink:href="#aU"/><use transform="matrix(0.05,0,0,0.05,104.85000000000001,0)" xlink:href="#bp"/><use transform="matrix(0.05,0,0,0.05,117.80000000000001,0)" xlink:href="#aY"/><use transform="matrix(0.05,0,0,0.05,121.75,0)" xlink:href="#aT"/></g><g id="ae"><use transform="matrix(0.04938271604938272,0,0,0.04938271604938272,0,0)" xlink:href="#aG"/><use transform="matrix(0.04938271604938272,0,0,0.04938271604938272,5.8765432098765435,0)" xlink:href="#aK"/><use transform="matrix(0.04938271604938272,0,0,0.04938271604938272,15.753086419753087,0)" xlink:href="#aP"/><use transform="matrix(0.04938271604938272,0,0,0.04938271604938272,25.629629629629633,0)" xlink:href="#aN"/><use transform="matrix(0.04938271604938272,0,0,0.04938271604938272,35.50617283950618,0)" xlink:href="#aG"/><use transform="matrix(0.04938271604938272,0,0,0.04938271604938272,41.38271604938272,0)" xlink:href="#aM"/><use transform="matrix(0.04938271604938272,0,0,0.04938271604938272,46.320987654320994,0)" xlink:href="#bj"/><use transform="matrix(0.04938271604938272,0,0,0.04938271604938272,55.209876543209894,0)" xlink:href="#aN"/><use transform="matrix(0.04938271604938272,0,0,0.04938271604938272,65.08641975308643,0)" xlink:href="#aV"/><use transform="matrix(0.04938271604938272,0,0,0.04938271604938272,74.96296296296298,0)" xlink:href="#bf"/></g><g id="af"><use transform="matrix(0.05,0,0,0.05,0,0)" xlink:href="#aU"/><use transform="matrix(0.05,0,0,0.05,3.95,0)" xlink:href="#aN"/><use transform="matrix(0.05,0,0,0.05,13.949999999999998,0)" xlink:href="#bg"/></g></defs></g></svg>